<?xml version="1.0" encoding="UTF-8" standalone="no"?><svg xmlns="http://www.w3.org/2000/svg" xmlns:xlink="http://www.w3.org/1999/xlink" clip-rule="evenodd" stroke-miterlimit="4.00" viewBox="0 0 1920 1080"><desc>SVG generated by Keynote</desc><defs></defs><g transform="matrix(1.00, 0.00, -0.00, -1.00, 0.0, 1080.0)"><path d="M 0.0 1080.0 L 1920.0 1080.0 L 1920.0 0.0 L 0.0 0.0 Z M 0.0 1080.0 " fill="#1E1E21"></path><path d="M 0.0 0.0 L 1953.0 0.0 " fill="none" stroke="#00FDC7" stroke-width="7.00" transform="matrix(1.00, -0.00, -0.00, -1.00, -16.5, 970.1)"></path><text xml:space="preserve" font-family="DINCondensed-Bold" font-weight="bold" font-size="66.0" fill="#E8EFEF" transform="matrix(1.00, 0.00, -0.00, -1.00, 50.0, 999.0)">F</text><text xml:space="preserve" font-family="DINCondensed-Bold" font-weight="bold" font-size="66.0" fill="#E8EFEF" transform="matrix(1.00, 0.00, -0.00, -1.00, 77.7, 999.0)">L</text><text xml:space="preserve" font-family="DINCondensed-Bold" font-weight="bold" font-size="66.0" fill="#E8EFEF" transform="matrix(1.00, 0.00, -0.00, -1.00, 105.4, 999.0)">O</text><text xml:space="preserve" font-family="DINCondensed-Bold" font-weight="bold" font-size="66.0" fill="#E8EFEF" transform="matrix(1.00, 0.00, -0.00, -1.00, 136.1, 999.0)">A</text><text xml:space="preserve" font-family="DINCondensed-Bold" font-weight="bold" font-size="66.0" fill="#E8EFEF" transform="matrix(1.00, 0.00, -0.00, -1.00, 162.6, 999.0)">T</text><text xml:space="preserve" font-family="DINCondensed-Bold" font-weight="bold" font-size="66.0" fill="#E8EFEF" transform="matrix(1.00, 0.00, -0.00, -1.00, 187.8, 999.0)">I</text><text xml:space="preserve" font-family="DINCondensed-Bold" font-weight="bold" font-size="66.0" fill="#E8EFEF" transform="matrix(1.00, 0.00, -0.00, -1.00, 204.6, 999.0)">N</text><text xml:space="preserve" font-family="DINCondensed-Bold" font-weight="bold" font-size="66.0" fill="#E8EFEF" transform="matrix(1.00, 0.00, -0.00, -1.00, 237.2, 999.0)">G</text><text xml:space="preserve" font-family="DINCondensed-Bold" font-weight="bold" font-size="66.0" fill="#E8EFEF" transform="matrix(1.00, 0.00, -0.00, -1.00, 268.6, 999.0)"> </text><text xml:space="preserve" font-family="DINCondensed-Bold" font-weight="bold" font-size="66.0" fill="#E8EFEF" transform="matrix(1.00, 0.00, -0.00, -1.00, 284.2, 999.0)">B</text><text xml:space="preserve" font-family="DINCondensed-Bold" font-weight="bold" font-size="66.0" fill="#E8EFEF" transform="matrix(1.00, 0.00, -0.00, -1.00, 315.6, 999.0)">U</text><text xml:space="preserve" font-family="DINCondensed-Bold" font-weight="bold" font-size="66.0" fill="#E8EFEF" transform="matrix(1.00, 0.00, -0.00, -1.00, 347.0, 999.0)">T</text><text xml:space="preserve" font-family="DINCondensed-Bold" font-weight="bold" font-size="66.0" fill="#E8EFEF" transform="matrix(1.00, 0.00, -0.00, -1.00, 372.2, 999.0)">T</text><text xml:space="preserve" font-family="DINCondensed-Bold" font-weight="bold" font-size="66.0" fill="#E8EFEF" transform="matrix(1.00, 0.00, -0.00, -1.00, 396.6, 999.0)">O</text><text xml:space="preserve" font-family="DINCondensed-Bold" font-weight="bold" font-size="66.0" fill="#E8EFEF" transform="matrix(1.00, 0.00, -0.00, -1.00, 428.0, 999.0)">N</text><text xml:space="preserve" font-family="DINCondensed-Bold" font-weight="bold" font-size="66.0" fill="#E8EFEF" transform="matrix(1.00, 0.00, -0.00, -1.00, 460.7, 999.0)"> </text><text xml:space="preserve" font-family="DINCondensed-Bold" font-weight="bold" font-size="66.0" fill="#E8EFEF" transform="matrix(1.00, 0.00, -0.00, -1.00, 476.2, 999.0)">M</text><text xml:space="preserve" font-family="DINCondensed-Bold" font-weight="bold" font-size="66.0" fill="#E8EFEF" transform="matrix(1.00, 0.00, -0.00, -1.00, 516.2, 999.0)">E</text><text xml:space="preserve" font-family="DINCondensed-Bold" font-weight="bold" font-size="66.0" fill="#E8EFEF" transform="matrix(1.00, 0.00, -0.00, -1.00, 543.9, 999.0)">N</text><text xml:space="preserve" font-family="DINCondensed-Bold" font-weight="bold" font-size="66.0" fill="#E8EFEF" transform="matrix(1.00, 0.00, -0.00, -1.00, 576.5, 999.0)">U</text><image xlink:href="../../8A3A60FC-869F-4707-8309-6A852A110BDD/assets/92745F562A86DB287DF85DE48FF1C34D.png" width="568.00" height="1012.00" transform="matrix(1.43, 0.00, -0.00, -1.43, 1107.0, 1457.0)"></image><g><clipPath id="clip-251"><path d="M -6.0 944.0 L 1095.0 944.0 L 1095.0 36.0 L -6.0 36.0 Z M -5.9 944.0 "></path></clipPath><g clip-path="url(#clip-251)"><image xlink:href="../../48D43B44-17F7-4634-83E6-128967CCCAC2/assets/4BB31C8F8759794F7CF5B463E03BDAB4.png" width="932.00" height="768.00" transform="matrix(1.18, 0.00, -0.00, -1.18, -6.0, 944.0)"></image></g></g><g><clipPath id="clip-252"><path d="M 547.2 544.5 L 1017.7 569.1 L 1022.3 480.9 L 551.9 456.2 Z M 547.2 544.5 "></path></clipPath><g clip-path="url(#clip-252)"><path d="M 0.0 3.7 C 65.6 50.1 139.6 68.8 212.7 57.3 C 283.9 46.1 352.0 6.5 423.2 0.7 L 428.7 0.8 " fill="none" stroke="#00FBC8" stroke-width="11.00" transform="matrix(1.00, 0.05, 0.05, -1.00, 552.5, 523.4)"></path><path d="M 975.8 523.9 L 1017.1 546.2 L 974.5 565.9 Z M 975.8 523.9 " fill="#00FBC8"></path></g></g><g><clipPath id="clip-253"><path d="M 1021.5 437.5 L 1874.5 437.5 L 1874.5 922.5 L 1021.5 922.5 Z M 1021.5 437.5 "></path></clipPath><g clip-path="url(#clip-253)"><image xlink:href="../../8A3A60FC-869F-4707-8309-6A852A110BDD/assets/03507E8DDAD11B724B059587BB611F56.png" width="842.00" height="474.00" transform="matrix(1.00, 0.00, -0.00, -1.00, 1027.0, 917.0)"></image><path d="M 0.0 0.0 L 842.0 0.0 L 842.0 474.0 L 0.0 474.0 Z M 0.0 0.0 " fill="none" stroke="#00FBC8" stroke-width="11.00" transform="matrix(1.00, 0.00, 0.00, -1.00, 1027.0, 917.0)"></path></g></g><g><clipPath id="clip-254"><path d="M 588.0 671.5 L 1016.9 694.0 L 1023.0 577.2 L 594.2 554.7 Z M 588.0 671.5 "></path></clipPath><g clip-path="url(#clip-254)"><path d="M 0.0 0.0 C 30.9 21.4 65.8 36.2 102.7 43.5 C 195.4 61.9 298.6 33.3 378.7 85.8 C 380.6 87.1 382.5 88.4 384.4 89.7 L 389.5 91.6 " fill="none" stroke="#00FBC8" stroke-width="11.00" transform="matrix(1.00, 0.05, 0.05, -1.00, 592.5, 666.2)"></path><path d="M 974.6 576.8 L 1021.0 583.8 L 987.5 616.8 Z M 974.6 576.8 " fill="#00FBC8"></path></g></g><g><clipPath id="clip-255"><path d="M 123.3 495.6 L 545.7 495.6 L 545.7 536.2 L 123.3 536.2 Z M 123.3 495.6 "></path></clipPath><g clip-path="url(#clip-255)"><path d="M 124.3 535.2 L 544.7 535.2 L 544.7 496.6 L 124.3 496.6 Z M 124.3 535.2 " fill="#00BA9C" fill-opacity="0.40"></path></g></g><g><clipPath id="clip-256"><path d="M 171.3 645.5 L 593.7 645.5 L 593.7 686.1 L 171.3 686.1 Z M 171.3 645.5 "></path></clipPath><g clip-path="url(#clip-256)"><path d="M 172.3 685.1 L 592.7 685.1 L 592.7 646.5 L 172.3 646.5 Z M 172.3 685.1 " fill="#00BA9C" fill-opacity="0.40"></path></g></g></g></svg>