<?xml version="1.0" encoding="UTF-8" standalone="no"?><svg xmlns="http://www.w3.org/2000/svg" xmlns:xlink="http://www.w3.org/1999/xlink" clip-rule="evenodd" stroke-miterlimit="4.00" viewBox="0 0 1372 55"><desc>SVG generated by Keynote</desc><defs></defs><g transform="matrix(1.00, 0.00, -0.00, -1.00, 0.0, 55.0)"><path d="M 2.5 67.0 L 1373.6 67.0 L 1373.6 -1.0 L 2.5 -1.0 Z M 2.5 67.0 " fill="#00FBC8"></path><text xml:space="preserve" font-family="Courier" font-size="57.1" fill="#000000" transform="matrix(1.00, 0.00, -0.00, -1.00, 2.0, 13.0)">w</text><text xml:space="preserve" font-family="Courier" font-size="57.1" fill="#000000" transform="matrix(1.00, 0.00, -0.00, -1.00, 36.3, 13.0)">w</text><text xml:space="preserve" font-family="Courier" font-size="57.1" fill="#000000" transform="matrix(1.00, 0.00, -0.00, -1.00, 70.6, 13.0)">w</text><text xml:space="preserve" font-family="Courier" font-size="57.1" fill="#000000" transform="matrix(1.00, 0.00, -0.00, -1.00, 104.8, 13.0)">.</text><text xml:space="preserve" font-family="Courier" font-size="57.1" fill="#000000" transform="matrix(1.00, 0.00, -0.00, -1.00, 139.1, 13.0)">u</text><text xml:space="preserve" font-family="Courier" font-size="57.1" fill="#000000" transform="matrix(1.00, 0.00, -0.00, -1.00, 173.4, 13.0)">d</text><text xml:space="preserve" font-family="Courier" font-size="57.1" fill="#000000" transform="matrix(1.00, 0.00, -0.00, -1.00, 207.7, 13.0)">e</text><text xml:space="preserve" font-family="Courier" font-size="57.1" fill="#000000" transform="matrix(1.00, 0.00, -0.00, -1.00, 242.0, 13.0)">m</text><text xml:space="preserve" font-family="Courier" font-size="57.1" fill="#000000" transform="matrix(1.00, 0.00, -0.00, -1.00, 276.3, 13.0)">y</text><text xml:space="preserve" font-family="Courier" font-size="57.1" fill="#000000" transform="matrix(1.00, 0.00, -0.00, -1.00, 310.5, 13.0)">.</text><text xml:space="preserve" font-family="Courier" font-size="57.1" fill="#000000" transform="matrix(1.00, 0.00, -0.00, -1.00, 344.8, 13.0)">c</text><text xml:space="preserve" font-family="Courier" font-size="57.1" fill="#000000" transform="matrix(1.00, 0.00, -0.00, -1.00, 379.1, 13.0)">o</text><text xml:space="preserve" font-family="Courier" font-size="57.1" fill="#000000" transform="matrix(1.00, 0.00, -0.00, -1.00, 413.4, 13.0)">m</text><text xml:space="preserve" font-family="Courier" font-size="57.1" fill="#000000" transform="matrix(1.00, 0.00, -0.00, -1.00, 447.7, 13.0)">/</text><text xml:space="preserve" font-family="Courier" font-size="57.1" fill="#000000" transform="matrix(1.00, 0.00, -0.00, -1.00, 482.0, 13.0)">v</text><text xml:space="preserve" font-family="Courier" font-size="57.1" fill="#000000" transform="matrix(1.00, 0.00, -0.00, -1.00, 516.2, 13.0)">u</text><text xml:space="preserve" font-family="Courier" font-size="57.1" fill="#000000" transform="matrix(1.00, 0.00, -0.00, -1.00, 550.5, 13.0)">e</text><text xml:space="preserve" font-family="Courier" font-size="57.1" fill="#000000" transform="matrix(1.00, 0.00, -0.00, -1.00, 584.8, 13.0)">j</text><text xml:space="preserve" font-family="Courier" font-size="57.1" fill="#000000" transform="matrix(1.00, 0.00, -0.00, -1.00, 619.1, 13.0)">s</text><text xml:space="preserve" font-family="Courier" font-size="57.1" fill="#000000" transform="matrix(1.00, 0.00, -0.00, -1.00, 653.4, 13.0)">-</text><text xml:space="preserve" font-family="Courier" font-size="57.1" fill="#000000" transform="matrix(1.00, 0.00, -0.00, -1.00, 687.7, 13.0)">2</text><text xml:space="preserve" font-family="Courier" font-size="57.1" fill="#000000" transform="matrix(1.00, 0.00, -0.00, -1.00, 721.9, 13.0)">-</text><text xml:space="preserve" font-family="Courier" font-size="57.1" fill="#000000" transform="matrix(1.00, 0.00, -0.00, -1.00, 756.2, 13.0)">t</text><text xml:space="preserve" font-family="Courier" font-size="57.1" fill="#000000" transform="matrix(1.00, 0.00, -0.00, -1.00, 790.5, 13.0)">h</text><text xml:space="preserve" font-family="Courier" font-size="57.1" fill="#000000" transform="matrix(1.00, 0.00, -0.00, -1.00, 824.8, 13.0)">e</text><text xml:space="preserve" font-family="Courier" font-size="57.1" fill="#000000" transform="matrix(1.00, 0.00, -0.00, -1.00, 859.1, 13.0)">-</text><text xml:space="preserve" font-family="Courier" font-size="57.1" fill="#000000" transform="matrix(1.00, 0.00, -0.00, -1.00, 893.4, 13.0)">c</text><text xml:space="preserve" font-family="Courier" font-size="57.1" fill="#000000" transform="matrix(1.00, 0.00, -0.00, -1.00, 927.6, 13.0)">o</text><text xml:space="preserve" font-family="Courier" font-size="57.1" fill="#000000" transform="matrix(1.00, 0.00, -0.00, -1.00, 961.9, 13.0)">m</text><text xml:space="preserve" font-family="Courier" font-size="57.1" fill="#000000" transform="matrix(1.00, 0.00, -0.00, -1.00, 996.2, 13.0)">p</text><text xml:space="preserve" font-family="Courier" font-size="57.1" fill="#000000" transform="matrix(1.00, 0.00, -0.00, -1.00, 1030.5, 13.0)">l</text><text xml:space="preserve" font-family="Courier" font-size="57.1" fill="#000000" transform="matrix(1.00, 0.00, -0.00, -1.00, 1064.8, 13.0)">e</text><text xml:space="preserve" font-family="Courier" font-size="57.1" fill="#000000" transform="matrix(1.00, 0.00, -0.00, -1.00, 1099.1, 13.0)">t</text><text xml:space="preserve" font-family="Courier" font-size="57.1" fill="#000000" transform="matrix(1.00, 0.00, -0.00, -1.00, 1133.3, 13.0)">e</text><text xml:space="preserve" font-family="Courier" font-size="57.1" fill="#000000" transform="matrix(1.00, 0.00, -0.00, -1.00, 1167.6, 13.0)">-</text><text xml:space="preserve" font-family="Courier" font-size="57.1" fill="#000000" transform="matrix(1.00, 0.00, -0.00, -1.00, 1201.9, 13.0)">g</text><text xml:space="preserve" font-family="Courier" font-size="57.1" fill="#000000" transform="matrix(1.00, 0.00, -0.00, -1.00, 1236.2, 13.0)">u</text><text xml:space="preserve" font-family="Courier" font-size="57.1" fill="#000000" transform="matrix(1.00, 0.00, -0.00, -1.00, 1270.5, 13.0)">i</text><text xml:space="preserve" font-family="Courier" font-size="57.1" fill="#000000" transform="matrix(1.00, 0.00, -0.00, -1.00, 1304.8, 13.0)">d</text><text xml:space="preserve" font-family="Courier" font-size="57.1" fill="#000000" transform="matrix(1.00, 0.00, -0.00, -1.00, 1339.0, 13.0)">e</text></g></svg>