<?xml version="1.0" encoding="UTF-8" standalone="no"?><svg xmlns="http://www.w3.org/2000/svg" xmlns:xlink="http://www.w3.org/1999/xlink" clip-rule="evenodd" stroke-miterlimit="4.00" viewBox="0 0 1920 1080"><desc>SVG generated by Keynote</desc><defs></defs><g transform="matrix(1.00, 0.00, -0.00, -1.00, 0.0, 1080.0)"><path d="M 0.0 1080.0 L 1920.0 1080.0 L 1920.0 0.0 L 0.0 0.0 Z M 0.0 1080.0 " fill="#1E1E21"></path><path d="M 0.0 0.0 L 1928.2 0.0 " fill="none" stroke="#00E5C0" stroke-width="112.00" transform="matrix(1.00, -0.00, -0.00, -1.00, -4.1, 52.6)"></path><path d="M 0.0 0.0 L 1953.0 0.0 " fill="none" stroke="#00FDC7" stroke-width="7.00" transform="matrix(1.00, -0.00, -0.00, -1.00, -16.5, 970.1)"></path><path d="M 273.5 89.0 L 1644.6 89.0 L 1644.6 21.0 L 273.5 21.0 Z M 273.5 89.0 " fill="#00FBC8"></path><text xml:space="preserve" font-family="Courier" font-size="57.1" fill="#000000" transform="matrix(1.00, 0.00, -0.00, -1.00, 273.0, 35.0)">w</text><text xml:space="preserve" font-family="Courier" font-size="57.1" fill="#000000" transform="matrix(1.00, 0.00, -0.00, -1.00, 307.3, 35.0)">w</text><text xml:space="preserve" font-family="Courier" font-size="57.1" fill="#000000" transform="matrix(1.00, 0.00, -0.00, -1.00, 341.6, 35.0)">w</text><text xml:space="preserve" font-family="Courier" font-size="57.1" fill="#000000" transform="matrix(1.00, 0.00, -0.00, -1.00, 375.8, 35.0)">.</text><text xml:space="preserve" font-family="Courier" font-size="57.1" fill="#000000" transform="matrix(1.00, 0.00, -0.00, -1.00, 410.1, 35.0)">u</text><text xml:space="preserve" font-family="Courier" font-size="57.1" fill="#000000" transform="matrix(1.00, 0.00, -0.00, -1.00, 444.4, 35.0)">d</text><text xml:space="preserve" font-family="Courier" font-size="57.1" fill="#000000" transform="matrix(1.00, 0.00, -0.00, -1.00, 478.7, 35.0)">e</text><text xml:space="preserve" font-family="Courier" font-size="57.1" fill="#000000" transform="matrix(1.00, 0.00, -0.00, -1.00, 513.0, 35.0)">m</text><text xml:space="preserve" font-family="Courier" font-size="57.1" fill="#000000" transform="matrix(1.00, 0.00, -0.00, -1.00, 547.3, 35.0)">y</text><text xml:space="preserve" font-family="Courier" font-size="57.1" fill="#000000" transform="matrix(1.00, 0.00, -0.00, -1.00, 581.5, 35.0)">.</text><text xml:space="preserve" font-family="Courier" font-size="57.1" fill="#000000" transform="matrix(1.00, 0.00, -0.00, -1.00, 615.8, 35.0)">c</text><text xml:space="preserve" font-family="Courier" font-size="57.1" fill="#000000" transform="matrix(1.00, 0.00, -0.00, -1.00, 650.1, 35.0)">o</text><text xml:space="preserve" font-family="Courier" font-size="57.1" fill="#000000" transform="matrix(1.00, 0.00, -0.00, -1.00, 684.4, 35.0)">m</text><text xml:space="preserve" font-family="Courier" font-size="57.1" fill="#000000" transform="matrix(1.00, 0.00, -0.00, -1.00, 718.7, 35.0)">/</text><text xml:space="preserve" font-family="Courier" font-size="57.1" fill="#000000" transform="matrix(1.00, 0.00, -0.00, -1.00, 753.0, 35.0)">v</text><text xml:space="preserve" font-family="Courier" font-size="57.1" fill="#000000" transform="matrix(1.00, 0.00, -0.00, -1.00, 787.2, 35.0)">u</text><text xml:space="preserve" font-family="Courier" font-size="57.1" fill="#000000" transform="matrix(1.00, 0.00, -0.00, -1.00, 821.5, 35.0)">e</text><text xml:space="preserve" font-family="Courier" font-size="57.1" fill="#000000" transform="matrix(1.00, 0.00, -0.00, -1.00, 855.8, 35.0)">j</text><text xml:space="preserve" font-family="Courier" font-size="57.1" fill="#000000" transform="matrix(1.00, 0.00, -0.00, -1.00, 890.1, 35.0)">s</text><text xml:space="preserve" font-family="Courier" font-size="57.1" fill="#000000" transform="matrix(1.00, 0.00, -0.00, -1.00, 924.4, 35.0)">-</text><text xml:space="preserve" font-family="Courier" font-size="57.1" fill="#000000" transform="matrix(1.00, 0.00, -0.00, -1.00, 958.7, 35.0)">2</text><text xml:space="preserve" font-family="Courier" font-size="57.1" fill="#000000" transform="matrix(1.00, 0.00, -0.00, -1.00, 992.9, 35.0)">-</text><text xml:space="preserve" font-family="Courier" font-size="57.1" fill="#000000" transform="matrix(1.00, 0.00, -0.00, -1.00, 1027.2, 35.0)">t</text><text xml:space="preserve" font-family="Courier" font-size="57.1" fill="#000000" transform="matrix(1.00, 0.00, -0.00, -1.00, 1061.5, 35.0)">h</text><text xml:space="preserve" font-family="Courier" font-size="57.1" fill="#000000" transform="matrix(1.00, 0.00, -0.00, -1.00, 1095.8, 35.0)">e</text><text xml:space="preserve" font-family="Courier" font-size="57.1" fill="#000000" transform="matrix(1.00, 0.00, -0.00, -1.00, 1130.1, 35.0)">-</text><text xml:space="preserve" font-family="Courier" font-size="57.1" fill="#000000" transform="matrix(1.00, 0.00, -0.00, -1.00, 1164.4, 35.0)">c</text><text xml:space="preserve" font-family="Courier" font-size="57.1" fill="#000000" transform="matrix(1.00, 0.00, -0.00, -1.00, 1198.6, 35.0)">o</text><text xml:space="preserve" font-family="Courier" font-size="57.1" fill="#000000" transform="matrix(1.00, 0.00, -0.00, -1.00, 1232.9, 35.0)">m</text><text xml:space="preserve" font-family="Courier" font-size="57.1" fill="#000000" transform="matrix(1.00, 0.00, -0.00, -1.00, 1267.2, 35.0)">p</text><text xml:space="preserve" font-family="Courier" font-size="57.1" fill="#000000" transform="matrix(1.00, 0.00, -0.00, -1.00, 1301.5, 35.0)">l</text><text xml:space="preserve" font-family="Courier" font-size="57.1" fill="#000000" transform="matrix(1.00, 0.00, -0.00, -1.00, 1335.8, 35.0)">e</text><text xml:space="preserve" font-family="Courier" font-size="57.1" fill="#000000" transform="matrix(1.00, 0.00, -0.00, -1.00, 1370.1, 35.0)">t</text><text xml:space="preserve" font-family="Courier" font-size="57.1" fill="#000000" transform="matrix(1.00, 0.00, -0.00, -1.00, 1404.3, 35.0)">e</text><text xml:space="preserve" font-family="Courier" font-size="57.1" fill="#000000" transform="matrix(1.00, 0.00, -0.00, -1.00, 1438.6, 35.0)">-</text><text xml:space="preserve" font-family="Courier" font-size="57.1" fill="#000000" transform="matrix(1.00, 0.00, -0.00, -1.00, 1472.9, 35.0)">g</text><text xml:space="preserve" font-family="Courier" font-size="57.1" fill="#000000" transform="matrix(1.00, 0.00, -0.00, -1.00, 1507.2, 35.0)">u</text><text xml:space="preserve" font-family="Courier" font-size="57.1" fill="#000000" transform="matrix(1.00, 0.00, -0.00, -1.00, 1541.5, 35.0)">i</text><text xml:space="preserve" font-family="Courier" font-size="57.1" fill="#000000" transform="matrix(1.00, 0.00, -0.00, -1.00, 1575.8, 35.0)">d</text><text xml:space="preserve" font-family="Courier" font-size="57.1" fill="#000000" transform="matrix(1.00, 0.00, -0.00, -1.00, 1610.0, 35.0)">e</text><path d="M 43.8 88.4 L 249.5 88.4 L 249.5 20.4 L 43.8 20.4 Z M 43.8 88.4 " fill="#000000"></path><text xml:space="preserve" font-family="Courier" font-size="57.1" fill="#00FBC8" transform="matrix(1.00, 0.00, -0.00, -1.00, 44.0, 34.0)"> </text><text xml:space="preserve" font-family="Courier" font-size="57.1" fill="#00FBC8" transform="matrix(1.00, 0.00, -0.00, -1.00, 78.3, 34.0)">R</text><text xml:space="preserve" font-family="Courier" font-size="57.1" fill="#00FBC8" transform="matrix(1.00, 0.00, -0.00, -1.00, 112.6, 34.0)">E</text><text xml:space="preserve" font-family="Courier" font-size="57.1" fill="#00FBC8" transform="matrix(1.00, 0.00, -0.00, -1.00, 146.8, 34.0)">F</text><text xml:space="preserve" font-family="Courier" font-size="57.1" fill="#00FBC8" transform="matrix(1.00, 0.00, -0.00, -1.00, 181.1, 34.0)">:</text><text xml:space="preserve" font-family="Courier" font-size="57.1" fill="#00FBC8" transform="matrix(1.00, 0.00, -0.00, -1.00, 215.4, 34.0)"> </text><image xlink:href="FF6B5E548DC69007C661935A363EBD11.png" width="1280.00" height="641.00" transform="matrix(1.53, 0.00, -0.00, -1.53, 454.0, 1084.0)"></image><path d="M -14.5 1080.7 L 678.6 1080.7 L 678.6 108.5 L -14.5 108.5 Z M -14.5 1080.7 " fill="#1E1E21"></path><text xml:space="preserve" font-family="DINCondensed-Bold" font-weight="bold" font-size="156.0" fill="#E8EFEF" transform="matrix(1.00, 0.00, -0.00, -1.00, 67.0, 717.0)">W</text><text xml:space="preserve" font-family="DINCondensed-Bold" font-weight="bold" font-size="156.0" fill="#E8EFEF" transform="matrix(1.00, 0.00, -0.00, -1.00, 167.3, 717.0)">H</text><text xml:space="preserve" font-family="DINCondensed-Bold" font-weight="bold" font-size="156.0" fill="#E8EFEF" transform="matrix(1.00, 0.00, -0.00, -1.00, 241.6, 717.0)">A</text><text xml:space="preserve" font-family="DINCondensed-Bold" font-weight="bold" font-size="156.0" fill="#E8EFEF" transform="matrix(1.00, 0.00, -0.00, -1.00, 304.3, 717.0)">T</text><text xml:space="preserve" font-family="DINCondensed-Bold" font-weight="bold" font-size="156.0" fill="#E8EFEF" transform="matrix(1.00, 0.00, -0.00, -1.00, 363.9, 717.0)"> </text><text xml:space="preserve" font-family="DINCondensed-Bold" font-weight="bold" font-size="156.0" fill="#E8EFEF" transform="matrix(1.00, 0.00, -0.00, -1.00, 400.7, 717.0)">A</text><text xml:space="preserve" font-family="DINCondensed-Bold" font-weight="bold" font-size="156.0" fill="#E8EFEF" transform="matrix(1.00, 0.00, -0.00, -1.00, 472.0, 717.0)">R</text><text xml:space="preserve" font-family="DINCondensed-Bold" font-weight="bold" font-size="156.0" fill="#E8EFEF" transform="matrix(1.00, 0.00, -0.00, -1.00, 546.2, 717.0)">E</text><text xml:space="preserve" font-family="DINCondensed-Bold" font-weight="bold" font-size="156.0" fill="#E8EFEF" transform="matrix(1.00, 0.00, -0.00, -1.00, 611.8, 717.0)"> </text><text xml:space="preserve" font-family="DINCondensed-Bold" font-weight="bold" font-size="156.0" fill="#E8EFEF" transform="matrix(1.00, 0.00, -0.00, -1.00, 67.0, 562.0)">W</text><text xml:space="preserve" font-family="DINCondensed-Bold" font-weight="bold" font-size="156.0" fill="#E8EFEF" transform="matrix(1.00, 0.00, -0.00, -1.00, 167.3, 562.0)">E</text><text xml:space="preserve" font-family="DINCondensed-Bold" font-weight="bold" font-size="156.0" fill="#E8EFEF" transform="matrix(1.00, 0.00, -0.00, -1.00, 232.8, 562.0)"> </text><text xml:space="preserve" font-family="DINCondensed-Bold" font-weight="bold" font-size="156.0" fill="#E8EFEF" transform="matrix(1.00, 0.00, -0.00, -1.00, 269.6, 562.0)">G</text><text xml:space="preserve" font-family="DINCondensed-Bold" font-weight="bold" font-size="156.0" fill="#E8EFEF" transform="matrix(1.00, 0.00, -0.00, -1.00, 343.9, 562.0)">O</text><text xml:space="preserve" font-family="DINCondensed-Bold" font-weight="bold" font-size="156.0" fill="#E8EFEF" transform="matrix(1.00, 0.00, -0.00, -1.00, 418.2, 562.0)">I</text><text xml:space="preserve" font-family="DINCondensed-Bold" font-weight="bold" font-size="156.0" fill="#E8EFEF" transform="matrix(1.00, 0.00, -0.00, -1.00, 457.8, 562.0)">N</text><text xml:space="preserve" font-family="DINCondensed-Bold" font-weight="bold" font-size="156.0" fill="#E8EFEF" transform="matrix(1.00, 0.00, -0.00, -1.00, 534.8, 562.0)">G</text><text xml:space="preserve" font-family="DINCondensed-Bold" font-weight="bold" font-size="156.0" fill="#E8EFEF" transform="matrix(1.00, 0.00, -0.00, -1.00, 609.1, 562.0)"> </text><text xml:space="preserve" font-family="DINCondensed-Bold" font-weight="bold" font-size="156.0" fill="#E8EFEF" transform="matrix(1.00, 0.00, -0.00, -1.00, 67.0, 406.0)">T</text><text xml:space="preserve" font-family="DINCondensed-Bold" font-weight="bold" font-size="156.0" fill="#E8EFEF" transform="matrix(1.00, 0.00, -0.00, -1.00, 124.7, 406.0)">O</text><text xml:space="preserve" font-family="DINCondensed-Bold" font-weight="bold" font-size="156.0" fill="#E8EFEF" transform="matrix(1.00, 0.00, -0.00, -1.00, 199.0, 406.0)"> </text><text xml:space="preserve" font-family="DINCondensed-Bold" font-weight="bold" font-size="156.0" fill="#E8EFEF" transform="matrix(1.00, 0.00, -0.00, -1.00, 235.8, 406.0)">B</text><text xml:space="preserve" font-family="DINCondensed-Bold" font-weight="bold" font-size="156.0" fill="#E8EFEF" transform="matrix(1.00, 0.00, -0.00, -1.00, 310.0, 406.0)">U</text><text xml:space="preserve" font-family="DINCondensed-Bold" font-weight="bold" font-size="156.0" fill="#E8EFEF" transform="matrix(1.00, 0.00, -0.00, -1.00, 384.3, 406.0)">I</text><text xml:space="preserve" font-family="DINCondensed-Bold" font-weight="bold" font-size="156.0" fill="#E8EFEF" transform="matrix(1.00, 0.00, -0.00, -1.00, 423.9, 406.0)">L</text><text xml:space="preserve" font-family="DINCondensed-Bold" font-weight="bold" font-size="156.0" fill="#E8EFEF" transform="matrix(1.00, 0.00, -0.00, -1.00, 489.4, 406.0)">D</text><text xml:space="preserve" font-family="DINCondensed-Bold" font-weight="bold" font-size="156.0" fill="#E8EFEF" transform="matrix(1.00, 0.00, -0.00, -1.00, 563.7, 406.0)">?</text></g></svg>