<?xml version="1.0" encoding="UTF-8" standalone="no"?><svg xmlns="http://www.w3.org/2000/svg" xmlns:xlink="http://www.w3.org/1999/xlink" clip-rule="evenodd" stroke-miterlimit="4.00" viewBox="0 0 1920 1080"><desc>SVG generated by Keynote</desc><defs></defs><g transform="matrix(1.00, 0.00, -0.00, -1.00, 0.0, 1080.0)"><path d="M 0.0 1080.0 L 1920.0 1080.0 L 1920.0 0.0 L 0.0 0.0 Z M 0.0 1080.0 " fill="#1E1E21"></path><path d="M 0.0 0.0 L 1928.2 0.0 " fill="none" stroke="#00E5C0" stroke-width="112.00" transform="matrix(1.00, -0.00, -0.00, -1.00, -4.1, 52.6)"></path><path d="M 0.0 0.0 L 1953.0 0.0 " fill="none" stroke="#00FDC7" stroke-width="7.00" transform="matrix(1.00, -0.00, -0.00, -1.00, -16.5, 970.1)"></path><path d="M -89.6 1116.5 L 2007.6 1116.5 L 2007.6 129.5 L -89.6 129.5 Z M -89.6 1116.5 " fill="#000000"></path><path d="M -24.0 242.1 L 1942.0 242.1 L 1942.0 -23.2 L -24.0 -23.2 Z M -24.0 242.1 " fill="#00FBC8"></path><g><clipPath id="clip-327"><path d="M 248.0 80.2 L 346.5 80.2 L 346.5 178.7 L 248.0 178.7 Z M 248.0 80.2 "></path></clipPath><g clip-path="url(#clip-327)"><image xlink:href="3C1A9B5731C7AF1F5F608D2B0D6679A2.png" width="99.00" height="99.00" transform="matrix(0.99, 0.00, -0.00, -1.00, 248.0, 179.0)"></image></g></g><g><clipPath id="clip-328"><path d="M 356.0 80.2 L 454.5 80.2 L 454.5 178.7 L 356.0 178.7 Z M 356.0 80.2 "></path></clipPath><g clip-path="url(#clip-328)"><image xlink:href="F90B031720A9C07655F5AAA49C5110B8.png" width="99.00" height="99.00" transform="matrix(0.99, 0.00, -0.00, -1.00, 356.0, 179.0)"></image></g></g><g><clipPath id="clip-329"><path d="M 464.0 80.2 L 562.5 80.2 L 562.5 178.7 L 464.0 178.7 Z M 464.0 80.2 "></path></clipPath><g clip-path="url(#clip-329)"><image xlink:href="89D25819E935CD1FE624148613CC40A3.png" width="99.00" height="99.00" transform="matrix(1.00, 0.00, -0.00, -1.00, 464.0, 179.0)"></image></g></g><g><clipPath id="clip-330"><path d="M 572.1 80.2 L 670.6 80.2 L 670.6 178.7 L 572.1 178.7 Z M 572.1 80.2 "></path></clipPath><g clip-path="url(#clip-330)"><image xlink:href="B63ABE1C11C4B701FCBB5D1B45E2BDE5.png" width="99.00" height="99.00" transform="matrix(1.00, 0.00, -0.00, -1.00, 572.0, 179.0)"></image></g></g><g><clipPath id="clip-331"><path d="M 680.1 80.2 L 778.6 80.2 L 778.6 178.7 L 680.1 178.7 Z M 680.1 80.2 "></path></clipPath><g clip-path="url(#clip-331)"><image xlink:href="D515FE0A54983CE2C8A3572719EF7260.png" width="99.00" height="99.00" transform="matrix(1.00, 0.00, -0.00, -1.00, 680.0, 179.0)"></image></g></g><g><clipPath id="clip-332"><path d="M 772.8 39.0 L 1685.4 39.0 L 1685.4 202.2 L 772.8 202.2 Z M 772.8 39.0 "></path></clipPath><g clip-path="url(#clip-332)"><path d="M 793.8 181.2 L 1600.3 181.2 L 1600.3 80.2 L 793.8 80.2 Z M 793.8 181.2 " fill="#000000" fill-opacity="0.00"></path><text xml:space="preserve" font-family="Courier" font-size="84.0" fill="#212121" transform="matrix(1.00, 0.00, -0.00, -1.00, 794.0, 101.0)">@</text><text xml:space="preserve" font-family="Courier" font-size="84.0" fill="#212121" transform="matrix(1.00, 0.00, -0.00, -1.00, 844.4, 101.0)">k</text><text xml:space="preserve" font-family="Courier" font-size="84.0" fill="#212121" transform="matrix(1.00, 0.00, -0.00, -1.00, 894.8, 101.0)">r</text><text xml:space="preserve" font-family="Courier" font-size="84.0" fill="#212121" transform="matrix(1.00, 0.00, -0.00, -1.00, 945.2, 101.0)">y</text><text xml:space="preserve" font-family="Courier" font-size="84.0" fill="#212121" transform="matrix(1.00, 0.00, -0.00, -1.00, 995.7, 101.0)">s</text><text xml:space="preserve" font-family="Courier" font-size="84.0" fill="#212121" transform="matrix(1.00, 0.00, -0.00, -1.00, 1046.1, 101.0)">t</text><text xml:space="preserve" font-family="Courier" font-size="84.0" fill="#212121" transform="matrix(1.00, 0.00, -0.00, -1.00, 1096.5, 101.0)">a</text><text xml:space="preserve" font-family="Courier" font-size="84.0" fill="#212121" transform="matrix(1.00, 0.00, -0.00, -1.00, 1146.9, 101.0)">l</text><text xml:space="preserve" font-family="Courier" font-size="84.0" fill="#212121" transform="matrix(1.00, 0.00, -0.00, -1.00, 1197.3, 101.0)">c</text><text xml:space="preserve" font-family="Courier" font-size="84.0" fill="#212121" transform="matrix(1.00, 0.00, -0.00, -1.00, 1247.7, 101.0)">a</text><text xml:space="preserve" font-family="Courier" font-size="84.0" fill="#212121" transform="matrix(1.00, 0.00, -0.00, -1.00, 1298.2, 101.0)">m</text><text xml:space="preserve" font-family="Courier" font-size="84.0" fill="#212121" transform="matrix(1.00, 0.00, -0.00, -1.00, 1348.6, 101.0)">p</text><text xml:space="preserve" font-family="Courier" font-size="84.0" fill="#212121" transform="matrix(1.00, 0.00, -0.00, -1.00, 1399.0, 101.0)">i</text><text xml:space="preserve" font-family="Courier" font-size="84.0" fill="#212121" transform="matrix(1.00, 0.00, -0.00, -1.00, 1449.4, 101.0)">o</text><text xml:space="preserve" font-family="Courier" font-size="84.0" fill="#212121" transform="matrix(1.00, 0.00, -0.00, -1.00, 1499.8, 101.0)">n</text><text xml:space="preserve" font-family="Courier" font-size="84.0" fill="#212121" transform="matrix(1.00, 0.00, -0.00, -1.00, 1550.2, 101.0)">i</text></g></g><image xlink:href="A8284F08E1B4E7565E78C66CC5F029FB.png" width="600.00" height="452.00" transform="matrix(1.87, 0.00, -0.00, -1.87, 354.0, 1090.0)"></image></g></svg>