<?xml version="1.0" encoding="UTF-8" standalone="no"?><svg xmlns="http://www.w3.org/2000/svg" xmlns:xlink="http://www.w3.org/1999/xlink" clip-rule="evenodd" stroke-miterlimit="4.00" viewBox="0 0 666 289"><desc>SVG generated by Keynote</desc><defs></defs><g transform="matrix(1.00, 0.00, -0.00, -1.00, 0.0, 289.0)"><g><clipPath id="clip-118"><path d="M 1.0 289.0 L 477.0 289.0 L 477.0 1.0 L 1.0 1.0 Z M 0.5 288.7 "></path></clipPath><g clip-path="url(#clip-118)"><g><clipPath id="clip-119"><path d="M 0.5 0.7 L 476.5 0.7 L 476.5 288.7 L 0.5 288.7 Z M 0.5 0.7 "></path></clipPath><g clip-path="url(#clip-119)"><image xlink:href="BD58E9E4F1434F304166A690DD56EA2B.png" width="456.00" height="266.00" transform="matrix(1.08, 0.00, -0.00, -1.08, -8.0, 289.0)"></image></g></g></g></g><g><clipPath id="clip-120"><path d="M 663.5 193.1 L 308.7 226.6 L 311.1 252.5 L 666.0 219.0 Z M 663.5 193.1 "></path></clipPath><g clip-path="url(#clip-120)"><path d="M 0.0 0.0 L 330.5 0.0 L 333.5 0.0 " fill="none" stroke="#00FBC8" stroke-width="6.00" transform="matrix(-1.00, 0.09, 0.09, 1.00, 663.8, 206.2)"></path><path d="M 335.9 249.1 L 310.9 239.4 L 333.6 225.2 Z M 335.9 249.1 " fill="#00FBC8"></path></g></g></g></svg>