<?xml version="1.0" encoding="UTF-8" standalone="no"?><svg xmlns="http://www.w3.org/2000/svg" xmlns:xlink="http://www.w3.org/1999/xlink" clip-rule="evenodd" stroke-miterlimit="4.00" viewBox="0 0 1024 549"><desc>SVG generated by Keynote</desc><defs></defs><g transform="matrix(1.00, 0.00, -0.00, -1.00, 0.0, 549.0)"><g><clipPath id="clip-129"><path d="M 0.2 0.2 L 859.0 0.2 L 859.0 548.7 L 0.2 548.7 Z M 0.2 0.2 "></path></clipPath><g clip-path="url(#clip-129)"><image xlink:href="8D6AE87C67EDF8B49CAAB7D186856AA6.png" width="853.00" height="542.00" transform="matrix(1.00, 0.00, -0.00, -1.00, 3.0, 546.0)"></image><path d="M -0.2 -0.3 L 852.8 -0.3 L 852.8 542.7 L -0.2 542.7 Z M -0.2 -0.3 " fill="none" stroke="#F86827" stroke-width="6.00" transform="matrix(1.00, 0.00, 0.00, -1.00, 3.2, 545.7)"></path></g></g><g><clipPath id="clip-130"><path d="M 854.7 234.2 L 1023.4 216.0 L 1020.7 190.1 L 851.9 208.3 Z M 854.7 234.2 "></path></clipPath><g clip-path="url(#clip-130)"><path d="M 0.0 0.0 L 143.7 0.0 L 146.7 0.0 " fill="none" stroke="#F86827" stroke-width="6.00" transform="matrix(0.99, -0.11, -0.11, -0.99, 854.3, 221.1)"></path><path d="M 995.9 193.8 L 1021.1 203.1 L 998.5 217.6 Z M 995.9 193.8 " fill="#F86827"></path></g></g></g></svg>