<?xml version="1.0" encoding="UTF-8" standalone="no"?><svg xmlns="http://www.w3.org/2000/svg" xmlns:xlink="http://www.w3.org/1999/xlink" clip-rule="evenodd" stroke-miterlimit="4.00" viewBox="0 0 456 51"><desc>SVG generated by Keynote</desc><defs></defs><g transform="matrix(1.00, 0.00, -0.00, -1.00, 0.0, 51.0)"><text xml:space="preserve" font-family="DINCondensed-Bold" font-weight="bold" font-size="66.0" fill="#E8EFEF" transform="matrix(1.00, 0.00, -0.00, -1.00, 0.0, 2.0)">S</text><text xml:space="preserve" font-family="DINCondensed-Bold" font-weight="bold" font-size="66.0" fill="#E8EFEF" transform="matrix(1.00, 0.00, -0.00, -1.00, 30.1, 2.0)">P</text><text xml:space="preserve" font-family="DINCondensed-Bold" font-weight="bold" font-size="66.0" fill="#E8EFEF" transform="matrix(1.00, 0.00, -0.00, -1.00, 60.3, 2.0)">R</text><text xml:space="preserve" font-family="DINCondensed-Bold" font-weight="bold" font-size="66.0" fill="#E8EFEF" transform="matrix(1.00, 0.00, -0.00, -1.00, 91.7, 2.0)">I</text><text xml:space="preserve" font-family="DINCondensed-Bold" font-weight="bold" font-size="66.0" fill="#E8EFEF" transform="matrix(1.00, 0.00, -0.00, -1.00, 108.4, 2.0)">T</text><text xml:space="preserve" font-family="DINCondensed-Bold" font-weight="bold" font-size="66.0" fill="#E8EFEF" transform="matrix(1.00, 0.00, -0.00, -1.00, 133.7, 2.0)">E</text><text xml:space="preserve" font-family="DINCondensed-Bold" font-weight="bold" font-size="66.0" fill="#E8EFEF" transform="matrix(1.00, 0.00, -0.00, -1.00, 161.4, 2.0)"> </text><text xml:space="preserve" font-family="DINCondensed-Bold" font-weight="bold" font-size="66.0" fill="#E8EFEF" transform="matrix(1.00, 0.00, -0.00, -1.00, 176.9, 2.0)">A</text><text xml:space="preserve" font-family="DINCondensed-Bold" font-weight="bold" font-size="66.0" fill="#E8EFEF" transform="matrix(1.00, 0.00, -0.00, -1.00, 207.1, 2.0)">N</text><text xml:space="preserve" font-family="DINCondensed-Bold" font-weight="bold" font-size="66.0" fill="#E8EFEF" transform="matrix(1.00, 0.00, -0.00, -1.00, 239.7, 2.0)">I</text><text xml:space="preserve" font-family="DINCondensed-Bold" font-weight="bold" font-size="66.0" fill="#E8EFEF" transform="matrix(1.00, 0.00, -0.00, -1.00, 256.5, 2.0)">M</text><text xml:space="preserve" font-family="DINCondensed-Bold" font-weight="bold" font-size="66.0" fill="#E8EFEF" transform="matrix(1.00, 0.00, -0.00, -1.00, 296.5, 2.0)">A</text><text xml:space="preserve" font-family="DINCondensed-Bold" font-weight="bold" font-size="66.0" fill="#E8EFEF" transform="matrix(1.00, 0.00, -0.00, -1.00, 323.0, 2.0)">T</text><text xml:space="preserve" font-family="DINCondensed-Bold" font-weight="bold" font-size="66.0" fill="#E8EFEF" transform="matrix(1.00, 0.00, -0.00, -1.00, 348.2, 2.0)">I</text><text xml:space="preserve" font-family="DINCondensed-Bold" font-weight="bold" font-size="66.0" fill="#E8EFEF" transform="matrix(1.00, 0.00, -0.00, -1.00, 365.0, 2.0)">O</text><text xml:space="preserve" font-family="DINCondensed-Bold" font-weight="bold" font-size="66.0" fill="#E8EFEF" transform="matrix(1.00, 0.00, -0.00, -1.00, 396.4, 2.0)">N</text><text xml:space="preserve" font-family="DINCondensed-Bold" font-weight="bold" font-size="66.0" fill="#E8EFEF" transform="matrix(1.00, 0.00, -0.00, -1.00, 429.0, 2.0)">S</text></g></svg>