<?xml version="1.0" encoding="UTF-8" standalone="no"?><svg xmlns="http://www.w3.org/2000/svg" xmlns:xlink="http://www.w3.org/1999/xlink" clip-rule="evenodd" stroke-miterlimit="4.00" viewBox="0 0 1920 1080"><desc>SVG generated by Keynote</desc><defs></defs><g transform="matrix(1.00, 0.00, -0.00, -1.00, 0.0, 1080.0)"><path d="M 0.0 1080.0 L 1920.0 1080.0 L 1920.0 0.0 L 0.0 0.0 Z M 0.0 1080.0 " fill="#1E1E21"></path><path d="M 0.0 0.0 L 1953.0 0.0 " fill="none" stroke="#00FDC7" stroke-width="7.00" transform="matrix(1.00, -0.00, -0.00, -1.00, -16.5, 970.1)"></path><text xml:space="preserve" font-family="DINCondensed-Bold" font-weight="bold" font-size="66.0" fill="#E8EFEF" transform="matrix(1.00, 0.00, -0.00, -1.00, 50.0, 999.0)">T</text><text xml:space="preserve" font-family="DINCondensed-Bold" font-weight="bold" font-size="66.0" fill="#E8EFEF" transform="matrix(1.00, 0.00, -0.00, -1.00, 75.2, 999.0)">H</text><text xml:space="preserve" font-family="DINCondensed-Bold" font-weight="bold" font-size="66.0" fill="#E8EFEF" transform="matrix(1.00, 0.00, -0.00, -1.00, 106.6, 999.0)">E</text><text xml:space="preserve" font-family="DINCondensed-Bold" font-weight="bold" font-size="66.0" fill="#E8EFEF" transform="matrix(1.00, 0.00, -0.00, -1.00, 134.3, 999.0)"> </text><text xml:space="preserve" font-family="DINCondensed-Bold" font-weight="bold" font-size="66.0" fill="#E8EFEF" transform="matrix(1.00, 0.00, -0.00, -1.00, 149.9, 999.0)">G</text><text xml:space="preserve" font-family="DINCondensed-Bold" font-weight="bold" font-size="66.0" fill="#E8EFEF" transform="matrix(1.00, 0.00, -0.00, -1.00, 181.3, 999.0)">A</text><text xml:space="preserve" font-family="DINCondensed-Bold" font-weight="bold" font-size="66.0" fill="#E8EFEF" transform="matrix(1.00, 0.00, -0.00, -1.00, 211.5, 999.0)">M</text><text xml:space="preserve" font-family="DINCondensed-Bold" font-weight="bold" font-size="66.0" fill="#E8EFEF" transform="matrix(1.00, 0.00, -0.00, -1.00, 251.5, 999.0)">E</text><text xml:space="preserve" font-family="DINCondensed-Bold" font-weight="bold" font-size="66.0" fill="#E8EFEF" transform="matrix(1.00, 0.00, -0.00, -1.00, 279.2, 999.0)"> </text><text xml:space="preserve" font-family="DINCondensed-Bold" font-weight="bold" font-size="66.0" fill="#E8EFEF" transform="matrix(1.00, 0.00, -0.00, -1.00, 294.8, 999.0)">S</text><text xml:space="preserve" font-family="DINCondensed-Bold" font-weight="bold" font-size="66.0" fill="#E8EFEF" transform="matrix(1.00, 0.00, -0.00, -1.00, 324.9, 999.0)">E</text><text xml:space="preserve" font-family="DINCondensed-Bold" font-weight="bold" font-size="66.0" fill="#E8EFEF" transform="matrix(1.00, 0.00, -0.00, -1.00, 352.6, 999.0)">Q</text><text xml:space="preserve" font-family="DINCondensed-Bold" font-weight="bold" font-size="66.0" fill="#E8EFEF" transform="matrix(1.00, 0.00, -0.00, -1.00, 384.0, 999.0)">U</text><text xml:space="preserve" font-family="DINCondensed-Bold" font-weight="bold" font-size="66.0" fill="#E8EFEF" transform="matrix(1.00, 0.00, -0.00, -1.00, 415.4, 999.0)">E</text><text xml:space="preserve" font-family="DINCondensed-Bold" font-weight="bold" font-size="66.0" fill="#E8EFEF" transform="matrix(1.00, 0.00, -0.00, -1.00, 443.2, 999.0)">N</text><text xml:space="preserve" font-family="DINCondensed-Bold" font-weight="bold" font-size="66.0" fill="#E8EFEF" transform="matrix(1.00, 0.00, -0.00, -1.00, 475.8, 999.0)">C</text><text xml:space="preserve" font-family="DINCondensed-Bold" font-weight="bold" font-size="66.0" fill="#E8EFEF" transform="matrix(1.00, 0.00, -0.00, -1.00, 505.9, 999.0)">E</text><g><clipPath id="clip-144"><path d="M 8.0 966.0 L 1456.0 966.0 L 1456.0 516.0 L 8.0 516.0 Z M 8.5 965.5 "></path></clipPath><g clip-path="url(#clip-144)"><image xlink:href="../../B0041490-9BEF-4846-B584-557872F3630D/assets/FA6359C8998FDCEC471441309DE32644.png" width="1136.00" height="768.00" transform="matrix(1.77, 0.00, -0.00, -1.77, -179.0, 1801.0)"></image></g></g><g><clipPath id="clip-145"><path d="M 323.6 28.1 L 1745.2 28.1 L 1745.2 743.7 L 323.6 743.7 Z M 323.6 28.1 "></path></clipPath><g clip-path="url(#clip-145)"><image xlink:href="../../DBC9C2C4-112C-4746-8800-50EF19A84839/assets/A8D0E61791B166B410496D69BC16A3FB.png" width="1422.00" height="716.00" transform="matrix(1.00, 0.00, -0.00, -1.00, 323.6, 743.7)" opacity="0.50"></image></g></g><g><clipPath id="clip-146"><path d="M 433.0 658.0 L 1669.0 658.0 L 1669.0 128.0 L 433.0 128.0 Z M 433.4 658.0 "></path></clipPath><g clip-path="url(#clip-146)"><g><clipPath id="clip-147"><path d="M 323.6 28.1 L 1745.2 28.1 L 1745.2 743.7 L 323.6 743.7 Z M 323.6 28.1 "></path></clipPath><g clip-path="url(#clip-147)"><image xlink:href="../../DBC9C2C4-112C-4746-8800-50EF19A84839/assets/F271685A4D9D19D18E2DB04AB0AA3E8B.png" width="1031.00" height="768.00" transform="matrix(1.20, 0.00, -0.00, -1.20, 433.0, 658.0)"></image></g></g></g></g><g><clipPath id="clip-148"><path d="M 323.6 28.1 L 1745.2 28.1 L 1745.2 743.7 L 323.6 743.7 Z M 323.6 28.1 "></path></clipPath><g clip-path="url(#clip-148)"><path d="M 0.0 0.0 L 0.0 529.6 L 1235.6 529.6 L 1235.6 0.0 L 0.0 0.0 Z M 0.0 0.0 " fill="none" stroke="#FFE988" stroke-width="8.00" transform="matrix(1.00, 0.00, 0.00, -1.00, 433.4, 658.0)"></path></g></g><g><clipPath id="clip-149"><path d="M 841.7 828.3 L 1260.7 828.3 L 1260.7 883.5 L 841.7 883.5 Z M 841.7 828.3 "></path></clipPath><g clip-path="url(#clip-149)"><path d="M 842.7 882.5 L 1259.7 882.5 L 1259.7 829.3 L 842.7 829.3 Z M 842.7 882.5 " fill="#FFE988" fill-opacity="0.47"></path></g></g><g><clipPath id="clip-150"><path d="M 1090.3 830.6 L 1090.3 668.2 L 1057.1 668.2 L 1057.1 830.6 Z M 1090.3 830.6 "></path></clipPath><g clip-path="url(#clip-150)"><path d="M 0.0 0.0 L 129.2 0.0 L 133.2 0.0 " fill="none" stroke="#FFE988" stroke-width="8.00" transform="matrix(0.00, -1.00, -1.00, 0.00, 1073.7, 829.6)"></path><path d="M 1058.1 700.4 L 1073.7 669.2 L 1089.3 700.4 Z M 1058.1 700.4 " fill="#FFE988"></path></g></g></g></svg>