<?xml version="1.0" encoding="UTF-8" standalone="no"?><svg xmlns="http://www.w3.org/2000/svg" xmlns:xlink="http://www.w3.org/1999/xlink" clip-rule="evenodd" stroke-miterlimit="4.00" viewBox="0 0 1785 785"><desc>SVG generated by Keynote</desc><defs></defs><g transform="matrix(1.00, 0.00, -0.00, -1.00, 0.0, 785.0)"><g><clipPath id="clip-172"><path d="M 94.4 705.3 L 1779.7 705.3 L 1779.7 784.4 L 94.4 784.4 Z M 94.4 705.3 "></path></clipPath><g clip-path="url(#clip-172)"><path d="M 95.4 783.4 L 1778.7 783.4 L 1778.7 706.3 L 95.4 706.3 Z M 95.4 783.4 " fill="#00BA9C" fill-opacity="0.40"></path></g></g><g><clipPath id="clip-173"><path d="M 365.8 707.6 L 365.8 545.2 L 332.6 545.2 L 332.6 707.6 Z M 365.8 707.6 "></path></clipPath><g clip-path="url(#clip-173)"><path d="M 0.0 0.0 L 129.2 0.0 L 133.2 0.0 " fill="none" stroke="#00FBC8" stroke-width="8.00" transform="matrix(0.00, -1.00, -1.00, 0.00, 349.2, 706.6)"></path><path d="M 333.6 577.4 L 349.2 546.2 L 364.8 577.4 Z M 333.6 577.4 " fill="#00FBC8"></path></g></g><g><clipPath id="clip-174"><path d="M 0.0 0.3 L 1784.9 0.3 L 1784.9 633.9 L 0.0 633.9 Z M 0.0 0.3 "></path></clipPath><g clip-path="url(#clip-174)"><image xlink:href="3EC993CF0EAB7E97E0FAD42EC2B9B29B.png" width="1785.00" height="634.00" transform="matrix(1.00, 0.00, -0.00, -1.00, 0.0, 633.9)" opacity="0.50"></image><image xlink:href="DCD5E8B25DCF70E652F36A6B766E5C77.png" width="1136.00" height="318.00" transform="matrix(1.41, 0.00, -0.00, -1.41, 110.0, 548.0)"></image><path d="M 0.2 0.2 L 1599.2 0.2 L 1599.2 447.2 L 0.2 447.2 Z M 0.2 0.2 " fill="none" stroke="#00FBC8" stroke-width="8.00" transform="matrix(1.00, 0.00, 0.00, -1.00, 109.8, 548.2)"></path></g></g></g></svg>