<?xml version="1.0" encoding="UTF-8" standalone="no"?><svg xmlns="http://www.w3.org/2000/svg" xmlns:xlink="http://www.w3.org/1999/xlink" clip-rule="evenodd" stroke-miterlimit="4.00" viewBox="0 0 1920 1080"><desc>SVG generated by Keynote</desc><defs></defs><g transform="matrix(1.00, 0.00, -0.00, -1.00, 0.0, 1080.0)"><path d="M 0.0 1080.0 L 1920.0 1080.0 L 1920.0 0.0 L 0.0 0.0 Z M 0.0 1080.0 " fill="#1E1E21"></path><path d="M 0.0 0.0 L 1953.0 0.0 " fill="none" stroke="#00FDC7" stroke-width="7.00" transform="matrix(1.00, -0.00, -0.00, -1.00, -16.5, 970.1)"></path><image xlink:href="../../87F64454-2A10-4061-91B2-2E27AB4DBCE3/assets/D4D66BB86E4A31FAC28A3B64C0E7D24D.png" width="2147.00" height="1072.00" transform="matrix(1.00, 0.00, -0.00, -1.00, -130.8, 1056.7)" opacity="0.50"></image><g><clipPath id="clip-175"><path d="M -25.0 971.0 L 1939.0 971.0 L 1939.0 85.0 L -25.0 85.0 Z M -25.1 971.0 "></path></clipPath><g clip-path="url(#clip-175)"><image xlink:href="../../DBC9C2C4-112C-4746-8800-50EF19A84839/assets/BDC22BC8F74DDB4490D849F701EC48D6.png" width="1118.00" height="506.00" transform="matrix(1.75, 0.00, -0.00, -1.75, -12.0, 971.0)"></image></g></g><path d="M 13.2 0.0 L 13.2 886.1 L 1964.5 886.1 L 1964.5 0.0 L 13.2 0.0 Z M 13.2 0.0 " fill="none" stroke="#FFE988" stroke-width="8.00" transform="matrix(1.00, 0.00, 0.00, -1.00, -25.1, 971.0)"></path><g><clipPath id="clip-176"><path d="M 72.0 535.0 L 827.0 535.0 L 827.0 440.0 L 72.0 440.0 Z M 71.6 534.6 "></path></clipPath><g clip-path="url(#clip-176)"><image xlink:href="../../DBC9C2C4-112C-4746-8800-50EF19A84839/assets/BDC22BC8F74DDB4490D849F701EC48D6.png" width="1118.00" height="506.00" transform="matrix(1.67, 0.00, -0.00, -1.67, -1.0, 971.0)"></image></g></g><text xml:space="preserve" font-family="DINCondensed-Bold" font-weight="bold" font-size="66.0" fill="#E8EFEF" transform="matrix(1.00, 0.00, -0.00, -1.00, 50.0, 999.0)">T</text><text xml:space="preserve" font-family="DINCondensed-Bold" font-weight="bold" font-size="66.0" fill="#E8EFEF" transform="matrix(1.00, 0.00, -0.00, -1.00, 75.2, 999.0)">H</text><text xml:space="preserve" font-family="DINCondensed-Bold" font-weight="bold" font-size="66.0" fill="#E8EFEF" transform="matrix(1.00, 0.00, -0.00, -1.00, 106.6, 999.0)">E</text><text xml:space="preserve" font-family="DINCondensed-Bold" font-weight="bold" font-size="66.0" fill="#E8EFEF" transform="matrix(1.00, 0.00, -0.00, -1.00, 134.3, 999.0)"> </text><text xml:space="preserve" font-family="DINCondensed-Bold" font-weight="bold" font-size="66.0" fill="#E8EFEF" transform="matrix(1.00, 0.00, -0.00, -1.00, 149.9, 999.0)">G</text><text xml:space="preserve" font-family="DINCondensed-Bold" font-weight="bold" font-size="66.0" fill="#E8EFEF" transform="matrix(1.00, 0.00, -0.00, -1.00, 181.3, 999.0)">A</text><text xml:space="preserve" font-family="DINCondensed-Bold" font-weight="bold" font-size="66.0" fill="#E8EFEF" transform="matrix(1.00, 0.00, -0.00, -1.00, 211.5, 999.0)">M</text><text xml:space="preserve" font-family="DINCondensed-Bold" font-weight="bold" font-size="66.0" fill="#E8EFEF" transform="matrix(1.00, 0.00, -0.00, -1.00, 251.5, 999.0)">E</text><text xml:space="preserve" font-family="DINCondensed-Bold" font-weight="bold" font-size="66.0" fill="#E8EFEF" transform="matrix(1.00, 0.00, -0.00, -1.00, 279.2, 999.0)"> </text><text xml:space="preserve" font-family="DINCondensed-Bold" font-weight="bold" font-size="66.0" fill="#E8EFEF" transform="matrix(1.00, 0.00, -0.00, -1.00, 294.8, 999.0)">S</text><text xml:space="preserve" font-family="DINCondensed-Bold" font-weight="bold" font-size="66.0" fill="#E8EFEF" transform="matrix(1.00, 0.00, -0.00, -1.00, 324.9, 999.0)">E</text><text xml:space="preserve" font-family="DINCondensed-Bold" font-weight="bold" font-size="66.0" fill="#E8EFEF" transform="matrix(1.00, 0.00, -0.00, -1.00, 352.6, 999.0)">Q</text><text xml:space="preserve" font-family="DINCondensed-Bold" font-weight="bold" font-size="66.0" fill="#E8EFEF" transform="matrix(1.00, 0.00, -0.00, -1.00, 384.0, 999.0)">U</text><text xml:space="preserve" font-family="DINCondensed-Bold" font-weight="bold" font-size="66.0" fill="#E8EFEF" transform="matrix(1.00, 0.00, -0.00, -1.00, 415.4, 999.0)">E</text><text xml:space="preserve" font-family="DINCondensed-Bold" font-weight="bold" font-size="66.0" fill="#E8EFEF" transform="matrix(1.00, 0.00, -0.00, -1.00, 443.2, 999.0)">N</text><text xml:space="preserve" font-family="DINCondensed-Bold" font-weight="bold" font-size="66.0" fill="#E8EFEF" transform="matrix(1.00, 0.00, -0.00, -1.00, 475.8, 999.0)">C</text><text xml:space="preserve" font-family="DINCondensed-Bold" font-weight="bold" font-size="66.0" fill="#E8EFEF" transform="matrix(1.00, 0.00, -0.00, -1.00, 505.9, 999.0)">E</text><g><clipPath id="clip-177"><path d="M 81.4 734.3 L 1766.7 734.3 L 1766.7 813.4 L 81.4 813.4 Z M 81.4 734.3 "></path></clipPath><g clip-path="url(#clip-177)"><path d="M 82.4 812.4 L 1765.7 812.4 L 1765.7 735.3 L 82.4 735.3 Z M 82.4 812.4 " fill="#00BA9C" fill-opacity="0.40"></path></g></g><g><clipPath id="clip-178"><path d="M 352.8 736.6 L 352.8 574.2 L 319.6 574.2 L 319.6 736.6 Z M 352.8 736.6 "></path></clipPath><g clip-path="url(#clip-178)"><path d="M 0.0 0.0 L 129.2 0.0 L 133.2 0.0 " fill="none" stroke="#00FBC8" stroke-width="8.00" transform="matrix(0.00, -1.00, -1.00, 0.00, 336.2, 735.6)"></path><path d="M 320.6 606.4 L 336.2 575.2 L 351.8 606.4 Z M 320.6 606.4 " fill="#00FBC8"></path></g></g><g><clipPath id="clip-179"><path d="M -13.0 29.3 L 1771.9 29.3 L 1771.9 662.9 L -13.0 662.9 Z M -13.0 29.3 "></path></clipPath><g clip-path="url(#clip-179)"><image xlink:href="../../54E7F3EE-BF3E-4256-BB92-C9ECFFD12A95/assets/3EC993CF0EAB7E97E0FAD42EC2B9B29B.png" width="1785.00" height="634.00" transform="matrix(1.00, 0.00, -0.00, -1.00, -13.0, 662.9)" opacity="0.50"></image><image xlink:href="../../54E7F3EE-BF3E-4256-BB92-C9ECFFD12A95/assets/DCD5E8B25DCF70E652F36A6B766E5C77.png" width="1136.00" height="318.00" transform="matrix(1.41, 0.00, -0.00, -1.41, 97.0, 577.0)"></image><path d="M 0.2 0.2 L 1599.2 0.2 L 1599.2 447.2 L 0.2 447.2 Z M 0.2 0.2 " fill="none" stroke="#00FBC8" stroke-width="8.00" transform="matrix(1.00, 0.00, 0.00, -1.00, 96.8, 577.2)"></path></g></g></g></svg>