<?xml version="1.0" encoding="UTF-8" standalone="no"?><svg xmlns="http://www.w3.org/2000/svg" xmlns:xlink="http://www.w3.org/1999/xlink" clip-rule="evenodd" stroke-miterlimit="4.00" viewBox="0 0 1920 1080"><desc>SVG generated by Keynote</desc><defs></defs><g transform="matrix(1.00, 0.00, -0.00, -1.00, 0.0, 1080.0)"><path d="M 0.0 1080.0 L 1920.0 1080.0 L 1920.0 0.0 L 0.0 0.0 Z M 0.0 1080.0 " fill="#1E1E21"></path><path d="M 0.0 0.0 L 1953.0 0.0 " fill="none" stroke="#00FDC7" stroke-width="7.00" transform="matrix(1.00, -0.00, -0.00, -1.00, -16.5, 970.1)"></path><path d="M -12.1 965.5 L 1936.8 965.5 L 1936.8 -3.9 L -12.1 -3.9 Z M -12.1 965.5 " fill="#22252A"></path><image xlink:href="121227E306B674649538260CCA749582.png" width="960.00" height="293.00" transform="matrix(2.00, 0.00, -0.00, -2.00, 1.0, 927.0)"></image><path d="M -2.1 352.3 L 1946.8 352.3 L 1946.8 -13.9 L -2.1 -13.9 Z M -2.1 352.3 " fill="#22252A"></path><g><clipPath id="clip-236"><path d="M 200.1 313.0 L 1949.4 313.0 L 1949.4 942.0 L 200.1 942.0 Z M 200.1 313.0 "></path></clipPath><g clip-path="url(#clip-236)"><path d="M 201.1 941.0 L 1948.4 941.0 L 1948.4 314.0 L 201.1 314.0 Z M 201.1 941.0 " fill="#22252A" fill-opacity="0.60"></path></g></g><g><clipPath id="clip-237"><path d="M -36.9 303.0 L 202.1 303.0 L 202.1 708.5 L -36.9 708.5 Z M -36.9 303.0 "></path></clipPath><g clip-path="url(#clip-237)"><path d="M 201.1 707.5 L -35.9 707.5 L -35.9 304.0 L 201.1 304.0 Z M 201.1 707.5 " fill="#22252A" fill-opacity="0.60"></path></g></g><text xml:space="preserve" font-family="DINCondensed-Bold" font-weight="bold" font-size="66.0" fill="#E8EFEF" transform="matrix(1.00, 0.00, -0.00, -1.00, 50.0, 999.0)">S</text><text xml:space="preserve" font-family="DINCondensed-Bold" font-weight="bold" font-size="66.0" fill="#E8EFEF" transform="matrix(1.00, 0.00, -0.00, -1.00, 80.1, 999.0)">P</text><text xml:space="preserve" font-family="DINCondensed-Bold" font-weight="bold" font-size="66.0" fill="#E8EFEF" transform="matrix(1.00, 0.00, -0.00, -1.00, 110.3, 999.0)">R</text><text xml:space="preserve" font-family="DINCondensed-Bold" font-weight="bold" font-size="66.0" fill="#E8EFEF" transform="matrix(1.00, 0.00, -0.00, -1.00, 141.7, 999.0)">I</text><text xml:space="preserve" font-family="DINCondensed-Bold" font-weight="bold" font-size="66.0" fill="#E8EFEF" transform="matrix(1.00, 0.00, -0.00, -1.00, 158.4, 999.0)">T</text><text xml:space="preserve" font-family="DINCondensed-Bold" font-weight="bold" font-size="66.0" fill="#E8EFEF" transform="matrix(1.00, 0.00, -0.00, -1.00, 183.7, 999.0)">E</text><text xml:space="preserve" font-family="DINCondensed-Bold" font-weight="bold" font-size="66.0" fill="#E8EFEF" transform="matrix(1.00, 0.00, -0.00, -1.00, 211.4, 999.0)"> </text><text xml:space="preserve" font-family="DINCondensed-Bold" font-weight="bold" font-size="66.0" fill="#E8EFEF" transform="matrix(1.00, 0.00, -0.00, -1.00, 226.9, 999.0)">A</text><text xml:space="preserve" font-family="DINCondensed-Bold" font-weight="bold" font-size="66.0" fill="#E8EFEF" transform="matrix(1.00, 0.00, -0.00, -1.00, 257.1, 999.0)">N</text><text xml:space="preserve" font-family="DINCondensed-Bold" font-weight="bold" font-size="66.0" fill="#E8EFEF" transform="matrix(1.00, 0.00, -0.00, -1.00, 289.7, 999.0)">I</text><text xml:space="preserve" font-family="DINCondensed-Bold" font-weight="bold" font-size="66.0" fill="#E8EFEF" transform="matrix(1.00, 0.00, -0.00, -1.00, 306.5, 999.0)">M</text><text xml:space="preserve" font-family="DINCondensed-Bold" font-weight="bold" font-size="66.0" fill="#E8EFEF" transform="matrix(1.00, 0.00, -0.00, -1.00, 346.5, 999.0)">A</text><text xml:space="preserve" font-family="DINCondensed-Bold" font-weight="bold" font-size="66.0" fill="#E8EFEF" transform="matrix(1.00, 0.00, -0.00, -1.00, 373.0, 999.0)">T</text><text xml:space="preserve" font-family="DINCondensed-Bold" font-weight="bold" font-size="66.0" fill="#E8EFEF" transform="matrix(1.00, 0.00, -0.00, -1.00, 398.2, 999.0)">I</text><text xml:space="preserve" font-family="DINCondensed-Bold" font-weight="bold" font-size="66.0" fill="#E8EFEF" transform="matrix(1.00, 0.00, -0.00, -1.00, 415.0, 999.0)">O</text><text xml:space="preserve" font-family="DINCondensed-Bold" font-weight="bold" font-size="66.0" fill="#E8EFEF" transform="matrix(1.00, 0.00, -0.00, -1.00, 446.4, 999.0)">N</text><text xml:space="preserve" font-family="DINCondensed-Bold" font-weight="bold" font-size="66.0" fill="#E8EFEF" transform="matrix(1.00, 0.00, -0.00, -1.00, 479.0, 999.0)">S</text><path d="M 0.0 0.0 L 188.8 0.0 L 188.8 188.8 L 0.0 188.8 Z M 0.0 0.0 " fill="none" stroke="#00FDC7" stroke-width="10.00" stroke-linejoin="round" transform="matrix(1.00, 0.00, 0.00, -1.00, 16.6, 916.3)"></path><path d="M 0.2 18.7 L 0.2 23.7 L 0.2 459.0 L 292.9 459.0 " fill="none" stroke="#00FDC7" stroke-width="10.00" stroke-linejoin="round" transform="matrix(1.00, 0.00, 0.00, -1.00, 107.2, 702.4)"></path><path d="M 93.7 674.7 L 107.2 702.4 L 121.2 675.0 L 107.4 684.0 Z M 93.7 674.7 " fill="#00FDC7"></path><text xml:space="preserve" font-family="CourierNewPS-BoldMT" font-weight="bold" font-size="70.0" fill="#FFFFFF" transform="matrix(1.00, 0.00, -0.00, -1.00, 371.0, 223.0)"> </text><text xml:space="preserve" font-family="CourierNewPS-BoldMT" font-weight="bold" font-size="70.0" fill="#FFFFFF" transform="matrix(1.00, 0.00, -0.00, -1.00, 413.0, 223.0)"> </text><text xml:space="preserve" font-family="CourierNewPS-BoldMT" font-weight="bold" font-size="70.0" fill="#FFFFFF" transform="matrix(1.00, 0.00, -0.00, -1.00, 455.0, 223.0)">w</text><text xml:space="preserve" font-family="CourierNewPS-BoldMT" font-weight="bold" font-size="70.0" fill="#FFFFFF" transform="matrix(1.00, 0.00, -0.00, -1.00, 497.0, 223.0)">i</text><text xml:space="preserve" font-family="CourierNewPS-BoldMT" font-weight="bold" font-size="70.0" fill="#FFFFFF" transform="matrix(1.00, 0.00, -0.00, -1.00, 539.1, 223.0)">d</text><text xml:space="preserve" font-family="CourierNewPS-BoldMT" font-weight="bold" font-size="70.0" fill="#FFFFFF" transform="matrix(1.00, 0.00, -0.00, -1.00, 581.1, 223.0)">t</text><text xml:space="preserve" font-family="CourierNewPS-BoldMT" font-weight="bold" font-size="70.0" fill="#FFFFFF" transform="matrix(1.00, 0.00, -0.00, -1.00, 623.1, 223.0)">h</text><text xml:space="preserve" font-family="CourierNewPS-BoldMT" font-weight="bold" font-size="70.0" fill="#FFFFFF" transform="matrix(1.00, 0.00, -0.00, -1.00, 665.1, 223.0)">:</text><text xml:space="preserve" font-family="CourierNewPS-BoldMT" font-weight="bold" font-size="70.0" fill="#FFFFFF" transform="matrix(1.00, 0.00, -0.00, -1.00, 707.1, 223.0)"> </text><text xml:space="preserve" font-family="CourierNewPS-BoldMT" font-weight="bold" font-size="70.0" fill="#00E3B3" transform="matrix(1.00, 0.00, -0.00, -1.00, 749.1, 223.0)">5</text><text xml:space="preserve" font-family="CourierNewPS-BoldMT" font-weight="bold" font-size="70.0" fill="#00E3B3" transform="matrix(1.00, 0.00, -0.00, -1.00, 791.1, 223.0)">3</text><text xml:space="preserve" font-family="CourierNewPS-BoldMT" font-weight="bold" font-size="70.0" fill="#00E3B3" transform="matrix(1.00, 0.00, -0.00, -1.00, 833.1, 223.0)">0</text><text xml:space="preserve" font-family="CourierNewPS-BoldMT" font-weight="bold" font-size="70.0" fill="#00E3B3" transform="matrix(1.00, 0.00, -0.00, -1.00, 875.1, 223.0)">p</text><text xml:space="preserve" font-family="CourierNewPS-BoldMT" font-weight="bold" font-size="70.0" fill="#00E3B3" transform="matrix(1.00, 0.00, -0.00, -1.00, 917.1, 223.0)">x</text><text xml:space="preserve" font-family="CourierNewPS-BoldMT" font-weight="bold" font-size="70.0" fill="#00E3B3" transform="matrix(1.00, 0.00, -0.00, -1.00, 959.1, 223.0)">;</text><text xml:space="preserve" font-family="CourierNewPS-BoldMT" font-weight="bold" font-size="70.0" fill="#00E3B3" transform="matrix(1.00, 0.00, -0.00, -1.00, 1001.1, 223.0)"> </text><text xml:space="preserve" font-family="CourierNewPS-BoldMT" font-weight="bold" font-size="70.0" fill="#FFFFFF" transform="matrix(1.00, 0.00, -0.00, -1.00, 371.0, 144.0)"> </text><text xml:space="preserve" font-family="CourierNewPS-BoldMT" font-weight="bold" font-size="70.0" fill="#FFFFFF" transform="matrix(1.00, 0.00, -0.00, -1.00, 413.0, 144.0)"> </text><text xml:space="preserve" font-family="CourierNewPS-BoldMT" font-weight="bold" font-size="70.0" fill="#FFFFFF" transform="matrix(1.00, 0.00, -0.00, -1.00, 455.0, 144.0)">h</text><text xml:space="preserve" font-family="CourierNewPS-BoldMT" font-weight="bold" font-size="70.0" fill="#FFFFFF" transform="matrix(1.00, 0.00, -0.00, -1.00, 497.0, 144.0)">e</text><text xml:space="preserve" font-family="CourierNewPS-BoldMT" font-weight="bold" font-size="70.0" fill="#FFFFFF" transform="matrix(1.00, 0.00, -0.00, -1.00, 539.1, 144.0)">i</text><text xml:space="preserve" font-family="CourierNewPS-BoldMT" font-weight="bold" font-size="70.0" fill="#FFFFFF" transform="matrix(1.00, 0.00, -0.00, -1.00, 581.1, 144.0)">g</text><text xml:space="preserve" font-family="CourierNewPS-BoldMT" font-weight="bold" font-size="70.0" fill="#FFFFFF" transform="matrix(1.00, 0.00, -0.00, -1.00, 623.1, 144.0)">h</text><text xml:space="preserve" font-family="CourierNewPS-BoldMT" font-weight="bold" font-size="70.0" fill="#FFFFFF" transform="matrix(1.00, 0.00, -0.00, -1.00, 665.1, 144.0)">t</text><text xml:space="preserve" font-family="CourierNewPS-BoldMT" font-weight="bold" font-size="70.0" fill="#FFFFFF" transform="matrix(1.00, 0.00, -0.00, -1.00, 707.1, 144.0)">:</text><text xml:space="preserve" font-family="CourierNewPS-BoldMT" font-weight="bold" font-size="70.0" fill="#FFFFFF" transform="matrix(1.00, 0.00, -0.00, -1.00, 749.1, 144.0)"> </text><text xml:space="preserve" font-family="CourierNewPS-BoldMT" font-weight="bold" font-size="70.0" fill="#00E3B3" transform="matrix(1.00, 0.00, -0.00, -1.00, 791.1, 144.0)">5</text><text xml:space="preserve" font-family="CourierNewPS-BoldMT" font-weight="bold" font-size="70.0" fill="#00E3B3" transform="matrix(1.00, 0.00, -0.00, -1.00, 833.1, 144.0)">3</text><text xml:space="preserve" font-family="CourierNewPS-BoldMT" font-weight="bold" font-size="70.0" fill="#00E3B3" transform="matrix(1.00, 0.00, -0.00, -1.00, 875.1, 144.0)">0</text><text xml:space="preserve" font-family="CourierNewPS-BoldMT" font-weight="bold" font-size="70.0" fill="#00E3B3" transform="matrix(1.00, 0.00, -0.00, -1.00, 917.1, 144.0)">p</text><text xml:space="preserve" font-family="CourierNewPS-BoldMT" font-weight="bold" font-size="70.0" fill="#00E3B3" transform="matrix(1.00, 0.00, -0.00, -1.00, 959.1, 144.0)">x</text><text xml:space="preserve" font-family="CourierNewPS-BoldMT" font-weight="bold" font-size="70.0" fill="#00E3B3" transform="matrix(1.00, 0.00, -0.00, -1.00, 1001.1, 144.0)">;</text><g opacity="0.60"><g><clipPath id="clip-238"><path d="M 0.0 737.0 L 12.0 737.0 L 12.0 939.0 L 0.0 939.0 Z M 0.0 737.0 "></path></clipPath><g clip-path="url(#clip-238)"><path d="M 10.6 738.8 L -25.9 738.8 L -25.9 937.6 L 10.6 937.6 Z M 10.6 738.8 " fill="#22252A"></path></g></g></g></g></svg>