<?xml version="1.0" encoding="UTF-8" standalone="no"?><svg xmlns="http://www.w3.org/2000/svg" xmlns:xlink="http://www.w3.org/1999/xlink" clip-rule="evenodd" stroke-miterlimit="4.00" viewBox="0 0 1018 47"><desc>SVG generated by Keynote</desc><defs></defs><g transform="matrix(1.00, 0.00, -0.00, -1.00, 0.0, 47.0)"><path d="M -2.1 59.1 L 1018.1 59.1 L 1018.1 -0.9 L -2.1 -0.9 Z M -2.1 59.1 " fill="#000000"></path><text xml:space="preserve" font-family="Courier" font-size="50.0" fill="#FFFFFF" transform="matrix(1.00, 0.00, -0.00, -1.00, -2.0, 11.0)">I</text><text xml:space="preserve" font-family="Courier" font-size="50.0" fill="#FFFFFF" transform="matrix(1.00, 0.00, -0.00, -1.00, 28.0, 11.0)">d</text><text xml:space="preserve" font-family="Courier" font-size="50.0" fill="#FFFFFF" transform="matrix(1.00, 0.00, -0.00, -1.00, 58.0, 11.0)">l</text><text xml:space="preserve" font-family="Courier" font-size="50.0" fill="#FFFFFF" transform="matrix(1.00, 0.00, -0.00, -1.00, 88.0, 11.0)">e</text><text xml:space="preserve" font-family="Courier" font-size="50.0" fill="#FFFFFF" transform="matrix(1.00, 0.00, -0.00, -1.00, 118.0, 11.0)">:</text><text xml:space="preserve" font-family="Courier-Bold" font-weight="bold" font-size="50.0" fill="#FFFFFF" transform="matrix(1.00, 0.00, -0.00, -1.00, 148.0, 11.0)"> </text><text xml:space="preserve" font-family="Courier" font-size="50.0" fill="#00FBC8" transform="matrix(1.00, 0.00, -0.00, -1.00, 178.0, 11.0)">b</text><text xml:space="preserve" font-family="Courier" font-size="50.0" fill="#00FBC8" transform="matrix(1.00, 0.00, -0.00, -1.00, 208.0, 11.0)">a</text><text xml:space="preserve" font-family="Courier" font-size="50.0" fill="#00FBC8" transform="matrix(1.00, 0.00, -0.00, -1.00, 238.0, 11.0)">c</text><text xml:space="preserve" font-family="Courier" font-size="50.0" fill="#00FBC8" transform="matrix(1.00, 0.00, -0.00, -1.00, 268.1, 11.0)">k</text><text xml:space="preserve" font-family="Courier" font-size="50.0" fill="#00FBC8" transform="matrix(1.00, 0.00, -0.00, -1.00, 298.1, 11.0)">g</text><text xml:space="preserve" font-family="Courier" font-size="50.0" fill="#00FBC8" transform="matrix(1.00, 0.00, -0.00, -1.00, 328.1, 11.0)">r</text><text xml:space="preserve" font-family="Courier" font-size="50.0" fill="#00FBC8" transform="matrix(1.00, 0.00, -0.00, -1.00, 358.1, 11.0)">o</text><text xml:space="preserve" font-family="Courier" font-size="50.0" fill="#00FBC8" transform="matrix(1.00, 0.00, -0.00, -1.00, 388.1, 11.0)">u</text><text xml:space="preserve" font-family="Courier" font-size="50.0" fill="#00FBC8" transform="matrix(1.00, 0.00, -0.00, -1.00, 418.1, 11.0)">n</text><text xml:space="preserve" font-family="Courier" font-size="50.0" fill="#00FBC8" transform="matrix(1.00, 0.00, -0.00, -1.00, 448.1, 11.0)">d</text><text xml:space="preserve" font-family="Courier" font-size="50.0" fill="#00FBC8" transform="matrix(1.00, 0.00, -0.00, -1.00, 478.1, 11.0)">-</text><text xml:space="preserve" font-family="Courier" font-size="50.0" fill="#00FBC8" transform="matrix(1.00, 0.00, -0.00, -1.00, 508.1, 11.0)">p</text><text xml:space="preserve" font-family="Courier" font-size="50.0" fill="#00FBC8" transform="matrix(1.00, 0.00, -0.00, -1.00, 538.1, 11.0)">o</text><text xml:space="preserve" font-family="Courier" font-size="50.0" fill="#00FBC8" transform="matrix(1.00, 0.00, -0.00, -1.00, 568.2, 11.0)">s</text><text xml:space="preserve" font-family="Courier" font-size="50.0" fill="#00FBC8" transform="matrix(1.00, 0.00, -0.00, -1.00, 598.2, 11.0)">i</text><text xml:space="preserve" font-family="Courier" font-size="50.0" fill="#00FBC8" transform="matrix(1.00, 0.00, -0.00, -1.00, 628.2, 11.0)">t</text><text xml:space="preserve" font-family="Courier" font-size="50.0" fill="#00FBC8" transform="matrix(1.00, 0.00, -0.00, -1.00, 658.2, 11.0)">i</text><text xml:space="preserve" font-family="Courier" font-size="50.0" fill="#00FBC8" transform="matrix(1.00, 0.00, -0.00, -1.00, 688.2, 11.0)">o</text><text xml:space="preserve" font-family="Courier" font-size="50.0" fill="#00FBC8" transform="matrix(1.00, 0.00, -0.00, -1.00, 718.2, 11.0)">n</text><text xml:space="preserve" font-family="Courier" font-size="50.0" fill="#00FBC8" transform="matrix(1.00, 0.00, -0.00, -1.00, 748.2, 11.0)">:</text><text xml:space="preserve" font-family="Courier" font-size="50.0" fill="#00FBC8" transform="matrix(1.00, 0.00, -0.00, -1.00, 778.2, 11.0)"> </text><text xml:space="preserve" font-family="Courier" font-size="50.0" fill="#00FBC8" transform="matrix(1.00, 0.00, -0.00, -1.00, 808.2, 11.0)">0</text><text xml:space="preserve" font-family="Courier" font-size="50.0" fill="#00FBC8" transform="matrix(1.00, 0.00, -0.00, -1.00, 838.2, 11.0)">p</text><text xml:space="preserve" font-family="Courier" font-size="50.0" fill="#00FBC8" transform="matrix(1.00, 0.00, -0.00, -1.00, 868.3, 11.0)">x</text><text xml:space="preserve" font-family="Courier" font-size="50.0" fill="#00FBC8" transform="matrix(1.00, 0.00, -0.00, -1.00, 898.3, 11.0)"> </text><text xml:space="preserve" font-family="Courier" font-size="50.0" fill="#00FBC8" transform="matrix(1.00, 0.00, -0.00, -1.00, 928.3, 11.0)">0</text><text xml:space="preserve" font-family="Courier" font-size="50.0" fill="#00FBC8" transform="matrix(1.00, 0.00, -0.00, -1.00, 958.3, 11.0)">p</text><text xml:space="preserve" font-family="Courier" font-size="50.0" fill="#00FBC8" transform="matrix(1.00, 0.00, -0.00, -1.00, 988.3, 11.0)">x</text></g></svg>