<?xml version="1.0" encoding="UTF-8" standalone="no"?><svg xmlns="http://www.w3.org/2000/svg" xmlns:xlink="http://www.w3.org/1999/xlink" clip-rule="evenodd" stroke-miterlimit="4.00" viewBox="0 0 1142 47"><desc>SVG generated by Keynote</desc><defs></defs><g transform="matrix(1.00, 0.00, -0.00, -1.00, 0.0, 47.0)"><path d="M 1.6 59.5 L 1141.8 59.5 L 1141.8 -0.5 L 1.6 -0.5 Z M 1.6 59.5 " fill="#000000"></path><text xml:space="preserve" font-family="Courier" font-size="50.0" fill="#FEFEFD" transform="matrix(1.00, 0.00, -0.00, -1.00, 2.0, 12.0)">A</text><text xml:space="preserve" font-family="Courier" font-size="50.0" fill="#FEFEFD" transform="matrix(1.00, 0.00, -0.00, -1.00, 32.0, 12.0)">t</text><text xml:space="preserve" font-family="Courier" font-size="50.0" fill="#FEFEFD" transform="matrix(1.00, 0.00, -0.00, -1.00, 62.0, 12.0)">t</text><text xml:space="preserve" font-family="Courier" font-size="50.0" fill="#FEFEFD" transform="matrix(1.00, 0.00, -0.00, -1.00, 92.0, 12.0)">a</text><text xml:space="preserve" font-family="Courier" font-size="50.0" fill="#FEFEFD" transform="matrix(1.00, 0.00, -0.00, -1.00, 122.0, 12.0)">c</text><text xml:space="preserve" font-family="Courier" font-size="50.0" fill="#FEFEFD" transform="matrix(1.00, 0.00, -0.00, -1.00, 152.0, 12.0)">k</text><text xml:space="preserve" font-family="Courier" font-size="50.0" fill="#FEFEFD" transform="matrix(1.00, 0.00, -0.00, -1.00, 182.1, 12.0)">:</text><text xml:space="preserve" font-family="Courier-Bold" font-weight="bold" font-size="50.0" fill="#00FBC8" transform="matrix(1.00, 0.00, -0.00, -1.00, 212.0, 12.0)"> </text><text xml:space="preserve" font-family="Courier" font-size="50.0" fill="#00FBC8" transform="matrix(1.00, 0.00, -0.00, -1.00, 242.0, 12.0)">b</text><text xml:space="preserve" font-family="Courier" font-size="50.0" fill="#00FBC8" transform="matrix(1.00, 0.00, -0.00, -1.00, 272.0, 12.0)">a</text><text xml:space="preserve" font-family="Courier" font-size="50.0" fill="#00FBC8" transform="matrix(1.00, 0.00, -0.00, -1.00, 302.1, 12.0)">c</text><text xml:space="preserve" font-family="Courier" font-size="50.0" fill="#00FBC8" transform="matrix(1.00, 0.00, -0.00, -1.00, 332.1, 12.0)">k</text><text xml:space="preserve" font-family="Courier" font-size="50.0" fill="#00FBC8" transform="matrix(1.00, 0.00, -0.00, -1.00, 362.1, 12.0)">g</text><text xml:space="preserve" font-family="Courier" font-size="50.0" fill="#00FBC8" transform="matrix(1.00, 0.00, -0.00, -1.00, 392.1, 12.0)">r</text><text xml:space="preserve" font-family="Courier" font-size="50.0" fill="#00FBC8" transform="matrix(1.00, 0.00, -0.00, -1.00, 422.1, 12.0)">o</text><text xml:space="preserve" font-family="Courier" font-size="50.0" fill="#00FBC8" transform="matrix(1.00, 0.00, -0.00, -1.00, 452.1, 12.0)">u</text><text xml:space="preserve" font-family="Courier" font-size="50.0" fill="#00FBC8" transform="matrix(1.00, 0.00, -0.00, -1.00, 482.1, 12.0)">n</text><text xml:space="preserve" font-family="Courier" font-size="50.0" fill="#00FBC8" transform="matrix(1.00, 0.00, -0.00, -1.00, 512.1, 12.0)">d</text><text xml:space="preserve" font-family="Courier" font-size="50.0" fill="#00FBC8" transform="matrix(1.00, 0.00, -0.00, -1.00, 542.1, 12.0)">-</text><text xml:space="preserve" font-family="Courier" font-size="50.0" fill="#00FBC8" transform="matrix(1.00, 0.00, -0.00, -1.00, 572.1, 12.0)">p</text><text xml:space="preserve" font-family="Courier" font-size="50.0" fill="#00FBC8" transform="matrix(1.00, 0.00, -0.00, -1.00, 602.2, 12.0)">o</text><text xml:space="preserve" font-family="Courier" font-size="50.0" fill="#00FBC8" transform="matrix(1.00, 0.00, -0.00, -1.00, 632.2, 12.0)">s</text><text xml:space="preserve" font-family="Courier" font-size="50.0" fill="#00FBC8" transform="matrix(1.00, 0.00, -0.00, -1.00, 662.2, 12.0)">i</text><text xml:space="preserve" font-family="Courier" font-size="50.0" fill="#00FBC8" transform="matrix(1.00, 0.00, -0.00, -1.00, 692.2, 12.0)">t</text><text xml:space="preserve" font-family="Courier" font-size="50.0" fill="#00FBC8" transform="matrix(1.00, 0.00, -0.00, -1.00, 722.2, 12.0)">i</text><text xml:space="preserve" font-family="Courier" font-size="50.0" fill="#00FBC8" transform="matrix(1.00, 0.00, -0.00, -1.00, 752.2, 12.0)">o</text><text xml:space="preserve" font-family="Courier" font-size="50.0" fill="#00FBC8" transform="matrix(1.00, 0.00, -0.00, -1.00, 782.2, 12.0)">n</text><text xml:space="preserve" font-family="Courier" font-size="50.0" fill="#00FBC8" transform="matrix(1.00, 0.00, -0.00, -1.00, 812.2, 12.0)">:</text><text xml:space="preserve" font-family="Courier" font-size="50.0" fill="#00FBC8" transform="matrix(1.00, 0.00, -0.00, -1.00, 842.2, 12.0)"> </text><text xml:space="preserve" font-family="Courier" font-size="50.0" fill="#00FBC8" transform="matrix(1.00, 0.00, -0.00, -1.00, 872.2, 12.0)">0</text><text xml:space="preserve" font-family="Courier" font-size="50.0" fill="#00FBC8" transform="matrix(1.00, 0.00, -0.00, -1.00, 902.3, 12.0)">p</text><text xml:space="preserve" font-family="Courier" font-size="50.0" fill="#00FBC8" transform="matrix(1.00, 0.00, -0.00, -1.00, 932.3, 12.0)">x</text><text xml:space="preserve" font-family="Courier" font-size="50.0" fill="#00FBC8" transform="matrix(1.00, 0.00, -0.00, -1.00, 962.3, 12.0)"> </text><text xml:space="preserve" font-family="Courier" font-size="50.0" fill="#00FBC8" transform="matrix(1.00, 0.00, -0.00, -1.00, 992.3, 12.0)">5</text><text xml:space="preserve" font-family="Courier" font-size="50.0" fill="#00FBC8" transform="matrix(1.00, 0.00, -0.00, -1.00, 1022.3, 12.0)">3</text><text xml:space="preserve" font-family="Courier" font-size="50.0" fill="#00FBC8" transform="matrix(1.00, 0.00, -0.00, -1.00, 1052.3, 12.0)">4</text><text xml:space="preserve" font-family="Courier" font-size="50.0" fill="#00FBC8" transform="matrix(1.00, 0.00, -0.00, -1.00, 1082.3, 12.0)">p</text><text xml:space="preserve" font-family="Courier" font-size="50.0" fill="#00FBC8" transform="matrix(1.00, 0.00, -0.00, -1.00, 1112.3, 12.0)">x</text></g></svg>