<?xml version="1.0" encoding="UTF-8" standalone="no"?><svg xmlns="http://www.w3.org/2000/svg" xmlns:xlink="http://www.w3.org/1999/xlink" clip-rule="evenodd" stroke-miterlimit="4.00" viewBox="0 0 1746 549"><desc>SVG generated by Keynote</desc><defs></defs><g transform="matrix(1.00, 0.00, -0.00, -1.00, 0.0, 549.0)"><g><clipPath id="clip-271"><path d="M 39.9 493.8 L 458.8 493.8 L 458.8 549.0 L 39.9 549.0 Z M 39.9 493.8 "></path></clipPath><g clip-path="url(#clip-271)"><path d="M 40.9 548.0 L 457.8 548.0 L 457.8 494.8 L 40.9 494.8 Z M 40.9 548.0 " fill="#FFE988" fill-opacity="0.47"></path></g></g><g><clipPath id="clip-272"><path d="M 0.4 0.7 L 737.8 0.7 L 737.8 55.9 L 0.4 55.9 Z M 0.4 0.7 "></path></clipPath><g clip-path="url(#clip-272)"><path d="M 1.4 54.9 L 736.8 54.9 L 736.8 1.7 L 1.4 1.7 Z M 1.4 54.9 " fill="#FFE988" fill-opacity="0.47"></path></g></g><g><clipPath id="clip-273"><path d="M 504.5 132.5 L 1745.5 132.5 L 1745.5 467.5 L 504.5 467.5 Z M 504.5 132.5 "></path></clipPath><g clip-path="url(#clip-273)"><image xlink:href="../../A78F63D5-FDA3-4B1D-88CB-7B8DFFCEED2E/assets/5C3A387C3868FD06AF1E8474D48650F9.png" width="1230.00" height="324.00" transform="matrix(1.00, 0.00, -0.00, -1.00, 510.0, 462.0)"></image><path d="M 0.0 0.0 L 1230.0 0.0 L 1230.0 324.0 L 0.0 324.0 Z M 0.0 0.0 " fill="none" stroke="#FFE988" stroke-width="11.00" transform="matrix(1.00, 0.00, 0.00, -1.00, 510.0, 462.0)"></path></g></g><g><clipPath id="clip-274"><path d="M 731.5 120.7 L 1085.6 139.3 L 1091.9 18.7 L 737.8 0.1 Z M 731.5 120.7 "></path></clipPath><g clip-path="url(#clip-274)"><path d="M 0.0 87.9 C 39.1 81.1 79.1 81.7 117.9 89.6 C 185.0 103.3 258.7 132.6 307.6 85.6 C 320.1 73.6 328.0 58.1 330.7 41.8 L 330.2 36.3 " fill="none" stroke="#FFE988" stroke-width="11.00" transform="matrix(1.00, 0.05, 0.05, -1.00, 733.6, 117.8)"></path><path d="M 1086.8 96.6 L 1059.7 134.9 L 1045.3 90.2 Z M 1086.8 96.6 " fill="#FFE988"></path></g></g></g></svg>