<?xml version="1.0" encoding="UTF-8" standalone="no"?><svg xmlns="http://www.w3.org/2000/svg" xmlns:xlink="http://www.w3.org/1999/xlink" clip-rule="evenodd" stroke-miterlimit="4.00" viewBox="0 0 750 57"><desc>SVG generated by Keynote</desc><defs></defs><g transform="matrix(1.00, 0.00, -0.00, -1.00, 0.0, 57.0)"><text xml:space="preserve" font-family="Courier" font-size="70.0" fill="#FEFFFE" transform="matrix(1.00, 0.00, -0.00, -1.00, -6.0, 6.0)">/</text><text xml:space="preserve" font-family="Courier" font-size="70.0" fill="#FEFFFE" transform="matrix(1.00, 0.00, -0.00, -1.00, 36.0, 6.0)">/</text><text xml:space="preserve" font-family="Courier" font-size="70.0" fill="#FEFFFE" transform="matrix(1.00, 0.00, -0.00, -1.00, 78.0, 6.0)"> </text><text xml:space="preserve" font-family="Courier" font-size="70.0" fill="#FEFFFE" transform="matrix(1.00, 0.00, -0.00, -1.00, 120.0, 6.0)">1</text><text xml:space="preserve" font-family="Courier" font-size="70.0" fill="#FEFFFE" transform="matrix(1.00, 0.00, -0.00, -1.00, 162.1, 6.0)">.</text><text xml:space="preserve" font-family="Courier" font-size="70.0" fill="#FEFFFE" transform="matrix(1.00, 0.00, -0.00, -1.00, 204.1, 6.0)">3</text><text xml:space="preserve" font-family="Courier" font-size="70.0" fill="#FEFFFE" transform="matrix(1.00, 0.00, -0.00, -1.00, 246.1, 6.0)"> </text><text xml:space="preserve" font-family="Courier" font-size="70.0" fill="#FEFFFE" transform="matrix(1.00, 0.00, -0.00, -1.00, 288.1, 6.0)"> </text><text xml:space="preserve" font-family="Courier" font-size="70.0" fill="#FEFFFE" transform="matrix(1.00, 0.00, -0.00, -1.00, 330.1, 6.0)">*</text><text xml:space="preserve" font-family="Courier" font-size="70.0" fill="#FEFFFE" transform="matrix(1.00, 0.00, -0.00, -1.00, 372.1, 6.0)"> </text><text xml:space="preserve" font-family="Courier" font-size="70.0" fill="#FEFFFE" transform="matrix(1.00, 0.00, -0.00, -1.00, 414.1, 6.0)">5</text><text xml:space="preserve" font-family="Courier" font-size="70.0" fill="#FEFFFE" transform="matrix(1.00, 0.00, -0.00, -1.00, 456.2, 6.0)">0</text><text xml:space="preserve" font-family="Courier" font-size="70.0" fill="#FEFFFE" transform="matrix(1.00, 0.00, -0.00, -1.00, 498.2, 6.0)"> </text><text xml:space="preserve" font-family="Courier" font-size="70.0" fill="#FEFFFE" transform="matrix(1.00, 0.00, -0.00, -1.00, 540.2, 6.0)">=</text><text xml:space="preserve" font-family="Courier" font-size="70.0" fill="#FEFFFE" transform="matrix(1.00, 0.00, -0.00, -1.00, 582.2, 6.0)"> </text><text xml:space="preserve" font-family="Courier" font-size="70.0" fill="#FEFFFE" transform="matrix(1.00, 0.00, -0.00, -1.00, 624.2, 6.0)">6</text><text xml:space="preserve" font-family="Courier" font-size="70.0" fill="#FEFFFE" transform="matrix(1.00, 0.00, -0.00, -1.00, 666.2, 6.0)">5</text><text xml:space="preserve" font-family="Courier" font-size="70.0" fill="#FEFFFE" transform="matrix(1.00, 0.00, -0.00, -1.00, 708.2, 6.0)">x</text></g></svg>