<?xml version="1.0" encoding="UTF-8" standalone="no"?><svg xmlns="http://www.w3.org/2000/svg" xmlns:xlink="http://www.w3.org/1999/xlink" clip-rule="evenodd" stroke-miterlimit="4.00" viewBox="0 0 1752 486"><desc>SVG generated by Keynote</desc><defs></defs><g transform="matrix(1.00, 0.00, -0.00, -1.00, 0.0, 486.0)"><g><clipPath id="clip-293"><path d="M 424.2 107.5 L 894.7 132.1 L 899.3 43.9 L 428.9 19.2 Z M 424.2 107.5 "></path></clipPath><g clip-path="url(#clip-293)"><path d="M 0.0 3.7 C 65.6 50.1 139.6 68.8 212.7 57.3 C 283.9 46.1 352.0 6.5 423.2 0.7 L 428.7 0.8 " fill="none" stroke="#00FBC8" stroke-width="11.00" transform="matrix(1.00, 0.05, 0.05, -1.00, 429.5, 86.4)"></path><path d="M 852.8 86.9 L 894.1 109.2 L 851.5 128.9 Z M 852.8 86.9 " fill="#00FBC8"></path></g></g><g><clipPath id="clip-294"><path d="M 898.5 0.5 L 1751.5 0.5 L 1751.5 485.5 L 898.5 485.5 Z M 898.5 0.5 "></path></clipPath><g clip-path="url(#clip-294)"><image xlink:href="../../8A3A60FC-869F-4707-8309-6A852A110BDD/assets/03507E8DDAD11B724B059587BB611F56.png" width="842.00" height="474.00" transform="matrix(1.00, 0.00, -0.00, -1.00, 904.0, 480.0)"></image><path d="M 0.0 0.0 L 842.0 0.0 L 842.0 474.0 L 0.0 474.0 Z M 0.0 0.0 " fill="none" stroke="#00FBC8" stroke-width="11.00" transform="matrix(1.00, 0.00, 0.00, -1.00, 904.0, 480.0)"></path></g></g><g><clipPath id="clip-295"><path d="M 465.0 234.5 L 893.9 257.0 L 900.0 140.2 L 471.2 117.7 Z M 465.0 234.5 "></path></clipPath><g clip-path="url(#clip-295)"><path d="M 0.0 0.0 C 30.9 21.4 65.8 36.2 102.7 43.5 C 195.4 61.9 298.6 33.3 378.7 85.8 C 380.6 87.1 382.5 88.4 384.4 89.7 L 389.5 91.6 " fill="none" stroke="#00FBC8" stroke-width="11.00" transform="matrix(1.00, 0.05, 0.05, -1.00, 469.5, 229.2)"></path><path d="M 851.6 139.8 L 898.0 146.8 L 864.5 179.8 Z M 851.6 139.8 " fill="#00FBC8"></path></g></g><g><clipPath id="clip-296"><path d="M 0.3 58.6 L 422.7 58.6 L 422.7 99.2 L 0.3 99.2 Z M 0.3 58.6 "></path></clipPath><g clip-path="url(#clip-296)"><path d="M 1.3 98.2 L 421.7 98.2 L 421.7 59.6 L 1.3 59.6 Z M 1.3 98.2 " fill="#00BA9C" fill-opacity="0.40"></path></g></g><g><clipPath id="clip-297"><path d="M 48.3 208.5 L 470.7 208.5 L 470.7 249.1 L 48.3 249.1 Z M 48.3 208.5 "></path></clipPath><g clip-path="url(#clip-297)"><path d="M 49.3 248.1 L 469.7 248.1 L 469.7 209.5 L 49.3 209.5 Z M 49.3 248.1 " fill="#00BA9C" fill-opacity="0.40"></path></g></g></g></svg>