<?xml version="1.0" encoding="UTF-8" standalone="no"?><svg xmlns="http://www.w3.org/2000/svg" xmlns:xlink="http://www.w3.org/1999/xlink" clip-rule="evenodd" stroke-miterlimit="4.00" viewBox="0 0 1920 1080"><desc>SVG generated by Keynote</desc><defs></defs><g transform="matrix(1.00, 0.00, -0.00, -1.00, 0.0, 1080.0)"><path d="M 0.0 1080.0 L 1920.0 1080.0 L 1920.0 0.0 L 0.0 0.0 Z M 0.0 1080.0 " fill="#1E1E21"></path><path d="M 0.0 0.0 L 1928.2 0.0 " fill="none" stroke="#00E5C0" stroke-width="112.00" transform="matrix(1.00, -0.00, -0.00, -1.00, -4.1, 52.6)"></path><path d="M 0.0 0.0 L 1953.0 0.0 " fill="none" stroke="#00FDC7" stroke-width="7.00" transform="matrix(1.00, -0.00, -0.00, -1.00, -16.5, 970.1)"></path><text xml:space="preserve" font-family="DINCondensed-Bold" font-weight="bold" font-size="66.0" fill="#E8EFEF" transform="matrix(1.00, 0.00, -0.00, -1.00, 50.0, 999.0)">F</text><text xml:space="preserve" font-family="DINCondensed-Bold" font-weight="bold" font-size="66.0" fill="#E8EFEF" transform="matrix(1.00, 0.00, -0.00, -1.00, 77.7, 999.0)">I</text><text xml:space="preserve" font-family="DINCondensed-Bold" font-weight="bold" font-size="66.0" fill="#E8EFEF" transform="matrix(1.00, 0.00, -0.00, -1.00, 94.5, 999.0)">R</text><text xml:space="preserve" font-family="DINCondensed-Bold" font-weight="bold" font-size="66.0" fill="#E8EFEF" transform="matrix(1.00, 0.00, -0.00, -1.00, 125.9, 999.0)">S</text><text xml:space="preserve" font-family="DINCondensed-Bold" font-weight="bold" font-size="66.0" fill="#E8EFEF" transform="matrix(1.00, 0.00, -0.00, -1.00, 156.0, 999.0)">T</text><text xml:space="preserve" font-family="DINCondensed-Bold" font-weight="bold" font-size="66.0" fill="#E8EFEF" transform="matrix(1.00, 0.00, -0.00, -1.00, 181.2, 999.0)"> </text><text xml:space="preserve" font-family="DINCondensed-Bold" font-weight="bold" font-size="66.0" fill="#E8EFEF" transform="matrix(1.00, 0.00, -0.00, -1.00, 196.8, 999.0)">O</text><text xml:space="preserve" font-family="DINCondensed-Bold" font-weight="bold" font-size="66.0" fill="#E8EFEF" transform="matrix(1.00, 0.00, -0.00, -1.00, 228.2, 999.0)">F</text><text xml:space="preserve" font-family="DINCondensed-Bold" font-weight="bold" font-size="66.0" fill="#E8EFEF" transform="matrix(1.00, 0.00, -0.00, -1.00, 255.9, 999.0)"> </text><text xml:space="preserve" font-family="DINCondensed-Bold" font-weight="bold" font-size="66.0" fill="#E8EFEF" transform="matrix(1.00, 0.00, -0.00, -1.00, 271.5, 999.0)">A</text><text xml:space="preserve" font-family="DINCondensed-Bold" font-weight="bold" font-size="66.0" fill="#E8EFEF" transform="matrix(1.00, 0.00, -0.00, -1.00, 301.7, 999.0)">L</text><text xml:space="preserve" font-family="DINCondensed-Bold" font-weight="bold" font-size="66.0" fill="#E8EFEF" transform="matrix(1.00, 0.00, -0.00, -1.00, 329.4, 999.0)">L</text><text xml:space="preserve" font-family="DINCondensed-Bold" font-weight="bold" font-size="66.0" fill="#E8EFEF" transform="matrix(1.00, 0.00, -0.00, -1.00, 357.1, 999.0)">:</text><text xml:space="preserve" font-family="DINCondensed-Bold" font-weight="bold" font-size="66.0" fill="#E8EFEF" transform="matrix(1.00, 0.00, -0.00, -1.00, 372.7, 999.0)"> </text><text xml:space="preserve" font-family="DINCondensed-Bold" font-weight="bold" font-size="66.0" fill="#E8EFEF" transform="matrix(1.00, 0.00, -0.00, -1.00, 388.3, 999.0)">W</text><text xml:space="preserve" font-family="DINCondensed-Bold" font-weight="bold" font-size="66.0" fill="#E8EFEF" transform="matrix(1.00, 0.00, -0.00, -1.00, 430.7, 999.0)">H</text><text xml:space="preserve" font-family="DINCondensed-Bold" font-weight="bold" font-size="66.0" fill="#E8EFEF" transform="matrix(1.00, 0.00, -0.00, -1.00, 462.1, 999.0)">A</text><text xml:space="preserve" font-family="DINCondensed-Bold" font-weight="bold" font-size="66.0" fill="#E8EFEF" transform="matrix(1.00, 0.00, -0.00, -1.00, 488.6, 999.0)">T</text><text xml:space="preserve" font-family="DINCondensed-Bold" font-weight="bold" font-size="66.0" fill="#E8EFEF" transform="matrix(1.00, 0.00, -0.00, -1.00, 513.8, 999.0)"> </text><text xml:space="preserve" font-family="DINCondensed-Bold" font-weight="bold" font-size="66.0" fill="#E8EFEF" transform="matrix(1.00, 0.00, -0.00, -1.00, 529.4, 999.0)">I</text><text xml:space="preserve" font-family="DINCondensed-Bold" font-weight="bold" font-size="66.0" fill="#E8EFEF" transform="matrix(1.00, 0.00, -0.00, -1.00, 546.2, 999.0)">S</text><text xml:space="preserve" font-family="DINCondensed-Bold" font-weight="bold" font-size="66.0" fill="#E8EFEF" transform="matrix(1.00, 0.00, -0.00, -1.00, 576.3, 999.0)"> </text><text xml:space="preserve" font-family="DINCondensed-Bold" font-weight="bold" font-size="66.0" fill="#E8EFEF" transform="matrix(1.00, 0.00, -0.00, -1.00, 591.9, 999.0)">V</text><text xml:space="preserve" font-family="DINCondensed-Bold" font-weight="bold" font-size="66.0" fill="#E8EFEF" transform="matrix(1.00, 0.00, -0.00, -1.00, 622.0, 999.0)">U</text><text xml:space="preserve" font-family="DINCondensed-Bold" font-weight="bold" font-size="66.0" fill="#E8EFEF" transform="matrix(1.00, 0.00, -0.00, -1.00, 653.4, 999.0)">E</text><text xml:space="preserve" font-family="DINCondensed-Bold" font-weight="bold" font-size="66.0" fill="#E8EFEF" transform="matrix(1.00, 0.00, -0.00, -1.00, 681.2, 999.0)">.</text><text xml:space="preserve" font-family="DINCondensed-Bold" font-weight="bold" font-size="66.0" fill="#E8EFEF" transform="matrix(1.00, 0.00, -0.00, -1.00, 696.7, 999.0)">J</text><text xml:space="preserve" font-family="DINCondensed-Bold" font-weight="bold" font-size="66.0" fill="#E8EFEF" transform="matrix(1.00, 0.00, -0.00, -1.00, 722.0, 999.0)">S</text><text xml:space="preserve" font-family="DINCondensed-Bold" font-weight="bold" font-size="66.0" fill="#E8EFEF" transform="matrix(1.00, 0.00, -0.00, -1.00, 752.1, 999.0)">?</text><path d="M 962.2 786.8 L 1442.1 786.8 L 1442.1 718.8 L 962.2 718.8 Z M 962.2 786.8 " fill="#00FBC8"></path><text xml:space="preserve" font-family="Courier" font-size="57.1" fill="#000000" transform="matrix(1.00, 0.00, -0.00, -1.00, 962.0, 733.0)"> </text><text xml:space="preserve" font-family="Courier" font-size="57.1" fill="#000000" transform="matrix(1.00, 0.00, -0.00, -1.00, 996.3, 733.0)">A</text><text xml:space="preserve" font-family="Courier" font-size="57.1" fill="#000000" transform="matrix(1.00, 0.00, -0.00, -1.00, 1030.6, 733.0)">p</text><text xml:space="preserve" font-family="Courier" font-size="57.1" fill="#000000" transform="matrix(1.00, 0.00, -0.00, -1.00, 1064.8, 733.0)">p</text><text xml:space="preserve" font-family="Courier" font-size="57.1" fill="#000000" transform="matrix(1.00, 0.00, -0.00, -1.00, 1099.1, 733.0)">r</text><text xml:space="preserve" font-family="Courier" font-size="57.1" fill="#000000" transform="matrix(1.00, 0.00, -0.00, -1.00, 1133.4, 733.0)">o</text><text xml:space="preserve" font-family="Courier" font-size="57.1" fill="#000000" transform="matrix(1.00, 0.00, -0.00, -1.00, 1167.7, 733.0)">a</text><text xml:space="preserve" font-family="Courier" font-size="57.1" fill="#000000" transform="matrix(1.00, 0.00, -0.00, -1.00, 1202.0, 733.0)">c</text><text xml:space="preserve" font-family="Courier" font-size="57.1" fill="#000000" transform="matrix(1.00, 0.00, -0.00, -1.00, 1236.3, 733.0)">h</text><text xml:space="preserve" font-family="Courier" font-size="57.1" fill="#000000" transform="matrix(1.00, 0.00, -0.00, -1.00, 1270.5, 733.0)">a</text><text xml:space="preserve" font-family="Courier" font-size="57.1" fill="#000000" transform="matrix(1.00, 0.00, -0.00, -1.00, 1304.8, 733.0)">b</text><text xml:space="preserve" font-family="Courier" font-size="57.1" fill="#000000" transform="matrix(1.00, 0.00, -0.00, -1.00, 1339.1, 733.0)">l</text><text xml:space="preserve" font-family="Courier" font-size="57.1" fill="#000000" transform="matrix(1.00, 0.00, -0.00, -1.00, 1373.4, 733.0)">e</text><text xml:space="preserve" font-family="Courier" font-size="57.1" fill="#000000" transform="matrix(1.00, 0.00, -0.00, -1.00, 1407.7, 733.0)"> </text><image xlink:href="../../4129D080-87C9-4FAE-8E9D-237F16DFAAD9/assets/AAE9A22DD745B485459FD3C540561CFD.png" width="400.00" height="400.00" transform="matrix(1.44, 0.00, -0.00, -1.44, 267.0, 830.0)"></image><path d="M 962.2 680.8 L 1339.3 680.8 L 1339.3 612.8 L 962.2 612.8 Z M 962.2 680.8 " fill="#00FBC8"></path><text xml:space="preserve" font-family="Courier" font-size="57.1" fill="#000000" transform="matrix(1.00, 0.00, -0.00, -1.00, 962.0, 627.0)"> </text><text xml:space="preserve" font-family="Courier" font-size="57.1" fill="#000000" transform="matrix(1.00, 0.00, -0.00, -1.00, 996.3, 627.0)">V</text><text xml:space="preserve" font-family="Courier" font-size="57.1" fill="#000000" transform="matrix(1.00, 0.00, -0.00, -1.00, 1030.6, 627.0)">e</text><text xml:space="preserve" font-family="Courier" font-size="57.1" fill="#000000" transform="matrix(1.00, 0.00, -0.00, -1.00, 1064.8, 627.0)">r</text><text xml:space="preserve" font-family="Courier" font-size="57.1" fill="#000000" transform="matrix(1.00, 0.00, -0.00, -1.00, 1099.1, 627.0)">s</text><text xml:space="preserve" font-family="Courier" font-size="57.1" fill="#000000" transform="matrix(1.00, 0.00, -0.00, -1.00, 1133.4, 627.0)">a</text><text xml:space="preserve" font-family="Courier" font-size="57.1" fill="#000000" transform="matrix(1.00, 0.00, -0.00, -1.00, 1167.7, 627.0)">t</text><text xml:space="preserve" font-family="Courier" font-size="57.1" fill="#000000" transform="matrix(1.00, 0.00, -0.00, -1.00, 1202.0, 627.0)">i</text><text xml:space="preserve" font-family="Courier" font-size="57.1" fill="#000000" transform="matrix(1.00, 0.00, -0.00, -1.00, 1236.3, 627.0)">l</text><text xml:space="preserve" font-family="Courier" font-size="57.1" fill="#000000" transform="matrix(1.00, 0.00, -0.00, -1.00, 1270.5, 627.0)">e</text><text xml:space="preserve" font-family="Courier" font-size="57.1" fill="#000000" transform="matrix(1.00, 0.00, -0.00, -1.00, 1304.8, 627.0)"> </text><path d="M 962.2 572.0 L 1373.5 572.0 L 1373.5 504.0 L 962.2 504.0 Z M 962.2 572.0 " fill="#00FBC8"></path><text xml:space="preserve" font-family="Courier" font-size="57.1" fill="#000000" transform="matrix(1.00, 0.00, -0.00, -1.00, 962.0, 518.0)"> </text><text xml:space="preserve" font-family="Courier" font-size="57.1" fill="#000000" transform="matrix(1.00, 0.00, -0.00, -1.00, 996.3, 518.0)">P</text><text xml:space="preserve" font-family="Courier" font-size="57.1" fill="#000000" transform="matrix(1.00, 0.00, -0.00, -1.00, 1030.6, 518.0)">e</text><text xml:space="preserve" font-family="Courier" font-size="57.1" fill="#000000" transform="matrix(1.00, 0.00, -0.00, -1.00, 1064.8, 518.0)">r</text><text xml:space="preserve" font-family="Courier" font-size="57.1" fill="#000000" transform="matrix(1.00, 0.00, -0.00, -1.00, 1099.1, 518.0)">f</text><text xml:space="preserve" font-family="Courier" font-size="57.1" fill="#000000" transform="matrix(1.00, 0.00, -0.00, -1.00, 1133.4, 518.0)">o</text><text xml:space="preserve" font-family="Courier" font-size="57.1" fill="#000000" transform="matrix(1.00, 0.00, -0.00, -1.00, 1167.7, 518.0)">r</text><text xml:space="preserve" font-family="Courier" font-size="57.1" fill="#000000" transform="matrix(1.00, 0.00, -0.00, -1.00, 1202.0, 518.0)">m</text><text xml:space="preserve" font-family="Courier" font-size="57.1" fill="#000000" transform="matrix(1.00, 0.00, -0.00, -1.00, 1236.3, 518.0)">a</text><text xml:space="preserve" font-family="Courier" font-size="57.1" fill="#000000" transform="matrix(1.00, 0.00, -0.00, -1.00, 1270.5, 518.0)">n</text><text xml:space="preserve" font-family="Courier" font-size="57.1" fill="#000000" transform="matrix(1.00, 0.00, -0.00, -1.00, 1304.8, 518.0)">t</text><text xml:space="preserve" font-family="Courier" font-size="57.1" fill="#000000" transform="matrix(1.00, 0.00, -0.00, -1.00, 1339.1, 518.0)"> </text><path d="M 962.2 463.2 L 1373.5 463.2 L 1373.5 395.2 L 962.2 395.2 Z M 962.2 463.2 " fill="#00FBC8"></path><text xml:space="preserve" font-family="Courier" font-size="57.1" fill="#000000" transform="matrix(1.00, 0.00, -0.00, -1.00, 962.0, 409.0)"> </text><text xml:space="preserve" font-family="Courier" font-size="57.1" fill="#000000" transform="matrix(1.00, 0.00, -0.00, -1.00, 996.3, 409.0)">J</text><text xml:space="preserve" font-family="Courier" font-size="57.1" fill="#000000" transform="matrix(1.00, 0.00, -0.00, -1.00, 1030.6, 409.0)">a</text><text xml:space="preserve" font-family="Courier" font-size="57.1" fill="#000000" transform="matrix(1.00, 0.00, -0.00, -1.00, 1064.8, 409.0)">v</text><text xml:space="preserve" font-family="Courier" font-size="57.1" fill="#000000" transform="matrix(1.00, 0.00, -0.00, -1.00, 1099.1, 409.0)">a</text><text xml:space="preserve" font-family="Courier" font-size="57.1" fill="#000000" transform="matrix(1.00, 0.00, -0.00, -1.00, 1133.4, 409.0)">s</text><text xml:space="preserve" font-family="Courier" font-size="57.1" fill="#000000" transform="matrix(1.00, 0.00, -0.00, -1.00, 1167.7, 409.0)">c</text><text xml:space="preserve" font-family="Courier" font-size="57.1" fill="#000000" transform="matrix(1.00, 0.00, -0.00, -1.00, 1202.0, 409.0)">r</text><text xml:space="preserve" font-family="Courier" font-size="57.1" fill="#000000" transform="matrix(1.00, 0.00, -0.00, -1.00, 1236.3, 409.0)">i</text><text xml:space="preserve" font-family="Courier" font-size="57.1" fill="#000000" transform="matrix(1.00, 0.00, -0.00, -1.00, 1270.5, 409.0)">p</text><text xml:space="preserve" font-family="Courier" font-size="57.1" fill="#000000" transform="matrix(1.00, 0.00, -0.00, -1.00, 1304.8, 409.0)">t</text><text xml:space="preserve" font-family="Courier" font-size="57.1" fill="#000000" transform="matrix(1.00, 0.00, -0.00, -1.00, 1339.1, 409.0)"> </text><path d="M 962.2 354.3 L 1608.8 354.3 L 1608.8 286.3 L 962.2 286.3 Z M 962.2 354.3 " fill="#00FBC8"></path><text xml:space="preserve" font-family="Courier" font-size="57.1" fill="#000000" transform="matrix(1.00, 0.00, -0.00, -1.00, 962.0, 300.0)"> </text><text xml:space="preserve" font-family="Courier" font-size="57.1" fill="#000000" transform="matrix(1.00, 0.00, -0.00, -1.00, 996.3, 300.0)">L</text><text xml:space="preserve" font-family="Courier" font-size="57.1" fill="#000000" transform="matrix(1.00, 0.00, -0.00, -1.00, 1030.6, 300.0)">i</text><text xml:space="preserve" font-family="Courier" font-size="57.1" fill="#000000" transform="matrix(1.00, 0.00, -0.00, -1.00, 1064.8, 300.0)">b</text><text xml:space="preserve" font-family="Courier" font-size="57.1" fill="#000000" transform="matrix(1.00, 0.00, -0.00, -1.00, 1099.1, 300.0)">r</text><text xml:space="preserve" font-family="Courier" font-size="57.1" fill="#000000" transform="matrix(1.00, 0.00, -0.00, -1.00, 1133.4, 300.0)">a</text><text xml:space="preserve" font-family="Courier" font-size="57.1" fill="#000000" transform="matrix(1.00, 0.00, -0.00, -1.00, 1167.7, 300.0)">r</text><text xml:space="preserve" font-family="Courier" font-size="57.1" fill="#000000" transform="matrix(1.00, 0.00, -0.00, -1.00, 1202.0, 300.0)">y</text><text xml:space="preserve" font-family="Courier" font-size="57.1" fill="#000000" transform="matrix(1.00, 0.00, -0.00, -1.00, 1236.3, 300.0)">/</text><text xml:space="preserve" font-family="Courier" font-size="57.1" fill="#000000" transform="matrix(1.00, 0.00, -0.00, -1.00, 1270.5, 300.0)">F</text><text xml:space="preserve" font-family="Courier" font-size="57.1" fill="#000000" transform="matrix(1.00, 0.00, -0.00, -1.00, 1304.8, 300.0)">r</text><text xml:space="preserve" font-family="Courier" font-size="57.1" fill="#000000" transform="matrix(1.00, 0.00, -0.00, -1.00, 1339.1, 300.0)">a</text><text xml:space="preserve" font-family="Courier" font-size="57.1" fill="#000000" transform="matrix(1.00, 0.00, -0.00, -1.00, 1373.4, 300.0)">m</text><text xml:space="preserve" font-family="Courier" font-size="57.1" fill="#000000" transform="matrix(1.00, 0.00, -0.00, -1.00, 1407.7, 300.0)">e</text><text xml:space="preserve" font-family="Courier" font-size="57.1" fill="#000000" transform="matrix(1.00, 0.00, -0.00, -1.00, 1442.0, 300.0)">w</text><text xml:space="preserve" font-family="Courier" font-size="57.1" fill="#000000" transform="matrix(1.00, 0.00, -0.00, -1.00, 1476.2, 300.0)">o</text><text xml:space="preserve" font-family="Courier" font-size="57.1" fill="#000000" transform="matrix(1.00, 0.00, -0.00, -1.00, 1510.5, 300.0)">r</text><text xml:space="preserve" font-family="Courier" font-size="57.1" fill="#000000" transform="matrix(1.00, 0.00, -0.00, -1.00, 1544.7, 300.0)">K</text><text xml:space="preserve" font-family="Courier" font-size="57.1" fill="#000000" transform="matrix(1.00, 0.00, -0.00, -1.00, 1579.0, 300.0)"> </text></g></svg>