<?xml version="1.0" encoding="UTF-8" standalone="no"?><svg xmlns="http://www.w3.org/2000/svg" xmlns:xlink="http://www.w3.org/1999/xlink" clip-rule="evenodd" stroke-miterlimit="4.00" viewBox="0 0 1920 1080"><desc>SVG generated by Keynote</desc><defs></defs><g transform="matrix(1.00, 0.00, -0.00, -1.00, 0.0, 1080.0)"><path d="M 0.0 1080.0 L 1920.0 1080.0 L 1920.0 0.0 L 0.0 0.0 Z M 0.0 1080.0 " fill="#1E1E21"></path><path d="M 0.0 0.0 L 1953.0 0.0 " fill="none" stroke="#00FDC7" stroke-width="7.00" transform="matrix(1.00, -0.00, -0.00, -1.00, -16.5, 970.1)"></path><path d="M -2.1 965.5 L 1946.8 965.5 L 1946.8 -13.9 L -2.1 -13.9 Z M -2.1 965.5 " fill="#22252A"></path><text xml:space="preserve" font-family="DINCondensed-Bold" font-weight="bold" font-size="66.0" fill="#E8EFEF" transform="matrix(1.00, 0.00, -0.00, -1.00, 50.0, 999.0)">S</text><text xml:space="preserve" font-family="DINCondensed-Bold" font-weight="bold" font-size="66.0" fill="#E8EFEF" transform="matrix(1.00, 0.00, -0.00, -1.00, 80.1, 999.0)">P</text><text xml:space="preserve" font-family="DINCondensed-Bold" font-weight="bold" font-size="66.0" fill="#E8EFEF" transform="matrix(1.00, 0.00, -0.00, -1.00, 110.3, 999.0)">R</text><text xml:space="preserve" font-family="DINCondensed-Bold" font-weight="bold" font-size="66.0" fill="#E8EFEF" transform="matrix(1.00, 0.00, -0.00, -1.00, 141.7, 999.0)">I</text><text xml:space="preserve" font-family="DINCondensed-Bold" font-weight="bold" font-size="66.0" fill="#E8EFEF" transform="matrix(1.00, 0.00, -0.00, -1.00, 158.4, 999.0)">T</text><text xml:space="preserve" font-family="DINCondensed-Bold" font-weight="bold" font-size="66.0" fill="#E8EFEF" transform="matrix(1.00, 0.00, -0.00, -1.00, 183.7, 999.0)">E</text><text xml:space="preserve" font-family="DINCondensed-Bold" font-weight="bold" font-size="66.0" fill="#E8EFEF" transform="matrix(1.00, 0.00, -0.00, -1.00, 211.4, 999.0)"> </text><text xml:space="preserve" font-family="DINCondensed-Bold" font-weight="bold" font-size="66.0" fill="#E8EFEF" transform="matrix(1.00, 0.00, -0.00, -1.00, 226.9, 999.0)">A</text><text xml:space="preserve" font-family="DINCondensed-Bold" font-weight="bold" font-size="66.0" fill="#E8EFEF" transform="matrix(1.00, 0.00, -0.00, -1.00, 257.1, 999.0)">N</text><text xml:space="preserve" font-family="DINCondensed-Bold" font-weight="bold" font-size="66.0" fill="#E8EFEF" transform="matrix(1.00, 0.00, -0.00, -1.00, 289.7, 999.0)">I</text><text xml:space="preserve" font-family="DINCondensed-Bold" font-weight="bold" font-size="66.0" fill="#E8EFEF" transform="matrix(1.00, 0.00, -0.00, -1.00, 306.5, 999.0)">M</text><text xml:space="preserve" font-family="DINCondensed-Bold" font-weight="bold" font-size="66.0" fill="#E8EFEF" transform="matrix(1.00, 0.00, -0.00, -1.00, 346.5, 999.0)">A</text><text xml:space="preserve" font-family="DINCondensed-Bold" font-weight="bold" font-size="66.0" fill="#E8EFEF" transform="matrix(1.00, 0.00, -0.00, -1.00, 373.0, 999.0)">T</text><text xml:space="preserve" font-family="DINCondensed-Bold" font-weight="bold" font-size="66.0" fill="#E8EFEF" transform="matrix(1.00, 0.00, -0.00, -1.00, 398.2, 999.0)">I</text><text xml:space="preserve" font-family="DINCondensed-Bold" font-weight="bold" font-size="66.0" fill="#E8EFEF" transform="matrix(1.00, 0.00, -0.00, -1.00, 415.0, 999.0)">O</text><text xml:space="preserve" font-family="DINCondensed-Bold" font-weight="bold" font-size="66.0" fill="#E8EFEF" transform="matrix(1.00, 0.00, -0.00, -1.00, 446.4, 999.0)">N</text><text xml:space="preserve" font-family="DINCondensed-Bold" font-weight="bold" font-size="66.0" fill="#E8EFEF" transform="matrix(1.00, 0.00, -0.00, -1.00, 479.0, 999.0)">S</text><path d="M 0.0 0.0 L 188.8 0.0 L 188.8 188.8 L 0.0 188.8 Z M 0.0 0.0 " fill="none" stroke="#00FDC7" stroke-width="10.00" stroke-linejoin="round" transform="matrix(1.00, 0.00, 0.00, -1.00, 16.6, 916.3)"></path><path d="M 0.0 0.0 L 188.8 0.0 L 188.8 188.8 L 0.0 188.8 Z M 0.0 0.0 " fill="none" stroke="#00FDC7" stroke-width="10.00" stroke-linejoin="round" transform="matrix(1.00, 0.00, 0.00, -1.00, 205.4, 916.3)"></path><path d="M 0.0 0.0 L 188.8 0.0 L 188.8 188.8 L 0.0 188.8 Z M 0.0 0.0 " fill="none" stroke="#00FDC7" stroke-width="10.00" stroke-linejoin="round" transform="matrix(1.00, 0.00, 0.00, -1.00, 394.3, 916.3)"></path><path d="M 0.0 0.0 L 188.8 0.0 L 188.8 188.8 L 0.0 188.8 Z M 0.0 0.0 " fill="none" stroke="#00FDC7" stroke-width="10.00" stroke-linejoin="round" transform="matrix(1.00, 0.00, 0.00, -1.00, 583.1, 916.3)"></path><path d="M 0.0 0.0 L 188.8 0.0 L 188.8 188.8 L 0.0 188.8 Z M 0.0 0.0 " fill="none" stroke="#00FDC7" stroke-width="10.00" stroke-linejoin="round" transform="matrix(1.00, 0.00, 0.00, -1.00, 771.9, 916.3)"></path><path d="M 0.0 0.0 L 188.8 0.0 L 188.8 188.8 L 0.0 188.8 Z M 0.0 0.0 " fill="none" stroke="#00FDC7" stroke-width="10.00" stroke-linejoin="round" transform="matrix(1.00, 0.00, 0.00, -1.00, 960.7, 916.3)"></path><path d="M 0.0 0.0 L 188.8 0.0 L 188.8 188.8 L 0.0 188.8 Z M 0.0 0.0 " fill="none" stroke="#00FDC7" stroke-width="10.00" stroke-linejoin="round" transform="matrix(1.00, 0.00, 0.00, -1.00, 1149.5, 916.3)"></path><path d="M 0.0 0.0 L 188.8 0.0 L 188.8 188.8 L 0.0 188.8 Z M 0.0 0.0 " fill="none" stroke="#00FDC7" stroke-width="10.00" stroke-linejoin="round" transform="matrix(1.00, 0.00, 0.00, -1.00, 1338.4, 916.3)"></path><path d="M 0.0 0.0 L 188.8 0.0 L 188.8 188.8 L 0.0 188.8 Z M 0.0 0.0 " fill="none" stroke="#00FDC7" stroke-width="10.00" stroke-linejoin="round" transform="matrix(1.00, 0.00, 0.00, -1.00, 1527.2, 916.3)"></path><path d="M 0.0 0.0 L 188.8 0.0 L 188.8 188.8 L 0.0 188.8 Z M 0.0 0.0 " fill="none" stroke="#00FDC7" stroke-width="10.00" stroke-linejoin="round" transform="matrix(1.00, 0.00, 0.00, -1.00, 1716.3, 916.1)"></path><g><clipPath id="clip-222"><path d="M 12.0 922.0 L 1908.0 922.0 L 1908.0 357.0 L 12.0 357.0 Z M 12.2 922.4 "></path></clipPath><g clip-path="url(#clip-222)"><image xlink:href="../../A562B0AC-1D4E-48B0-ACB6-57445B591CE7/assets/DDFD58EBD50FD2F57010C50FF027728C.png" width="961.00" height="480.00" transform="matrix(1.97, 0.00, -0.00, -1.97, 12.0, 922.0)"></image></g></g><text xml:space="preserve" font-family="CourierNewPS-BoldMT" font-weight="bold" font-size="90.0" fill="#00E3B3" transform="matrix(1.00, 0.00, -0.00, -1.00, 617.0, 203.0)">1</text><text xml:space="preserve" font-family="CourierNewPS-BoldMT" font-weight="bold" font-size="90.0" fill="#00E3B3" transform="matrix(1.00, 0.00, -0.00, -1.00, 671.0, 203.0)">0</text><text xml:space="preserve" font-family="CourierNewPS-BoldMT" font-weight="bold" font-size="90.0" fill="#00E3B3" transform="matrix(1.00, 0.00, -0.00, -1.00, 725.0, 203.0)"> </text><text xml:space="preserve" font-family="CourierNewPS-BoldMT" font-weight="bold" font-size="90.0" fill="#FFFFFF" transform="matrix(1.00, 0.00, -0.00, -1.00, 779.0, 203.0)">s</text><text xml:space="preserve" font-family="CourierNewPS-BoldMT" font-weight="bold" font-size="90.0" fill="#FFFFFF" transform="matrix(1.00, 0.00, -0.00, -1.00, 833.0, 203.0)">t</text><text xml:space="preserve" font-family="CourierNewPS-BoldMT" font-weight="bold" font-size="90.0" fill="#FFFFFF" transform="matrix(1.00, 0.00, -0.00, -1.00, 887.1, 203.0)">e</text><text xml:space="preserve" font-family="CourierNewPS-BoldMT" font-weight="bold" font-size="90.0" fill="#FFFFFF" transform="matrix(1.00, 0.00, -0.00, -1.00, 941.1, 203.0)">p</text><text xml:space="preserve" font-family="CourierNewPS-BoldMT" font-weight="bold" font-size="90.0" fill="#FFFFFF" transform="matrix(1.00, 0.00, -0.00, -1.00, 995.1, 203.0)">s</text><path d="M 0.3 472.0 L 0.3 467.0 L 0.3 -0.0 L 503.7 -0.0 " fill="none" stroke="#00FDC7" stroke-width="10.00" stroke-linejoin="round" transform="matrix(0.00, 1.00, 1.00, 0.00, 108.3, 226.5)"></path><path d="M 571.7 240.7 L 599.0 226.5 L 571.3 213.2 L 580.6 226.8 Z M 571.7 240.7 " fill="#00FDC7"></path></g></svg>