<?xml version="1.0" encoding="UTF-8" standalone="no"?><svg xmlns="http://www.w3.org/2000/svg" xmlns:xlink="http://www.w3.org/1999/xlink" clip-rule="evenodd" stroke-miterlimit="4.00" viewBox="0 0 1284 106"><desc>SVG generated by Keynote</desc><defs></defs><g transform="matrix(1.00, 0.00, -0.00, -1.00, 0.0, 106.0)"><g><clipPath id="clip-1"><path d="M 0.3 8.5 L 89.1 8.5 L 89.1 97.2 L 0.3 97.2 Z M 0.3 8.5 "></path></clipPath><g clip-path="url(#clip-1)"><image xlink:href="253B13AC368FD79145040F3284DA8AE5.png" width="89.00" height="89.00" transform="matrix(1.00, 0.00, -0.00, -1.00, 0.0, 97.0)"></image></g></g><g><clipPath id="clip-2"><path d="M 97.7 8.5 L 186.4 8.5 L 186.4 97.2 L 97.7 97.2 Z M 97.7 8.5 "></path></clipPath><g clip-path="url(#clip-2)"><image xlink:href="948AF615858B12604878D14BEF288EBE.png" width="89.00" height="89.00" transform="matrix(0.99, 0.00, -0.00, -1.00, 98.0, 97.0)"></image></g></g><g><clipPath id="clip-3"><path d="M 195.1 8.5 L 283.8 8.5 L 283.8 97.2 L 195.1 97.2 Z M 195.1 8.5 "></path></clipPath><g clip-path="url(#clip-3)"><image xlink:href="B546EB14ABFF6D232C51229F74221C98.png" width="89.00" height="89.00" transform="matrix(1.00, 0.00, -0.00, -1.00, 195.0, 97.0)"></image></g></g><g><clipPath id="clip-4"><path d="M 292.5 8.5 L 381.2 8.5 L 381.2 97.2 L 292.5 97.2 Z M 292.5 8.5 "></path></clipPath><g clip-path="url(#clip-4)"><image xlink:href="DF91A8B97F243B5B4D7316BABC524EB5.png" width="89.00" height="89.00" transform="matrix(1.00, 0.00, -0.00, -1.00, 292.0, 97.0)"></image></g></g><g><clipPath id="clip-5"><path d="M 389.9 8.5 L 478.6 8.5 L 478.6 97.2 L 389.9 97.2 Z M 389.9 8.5 "></path></clipPath><g clip-path="url(#clip-5)"><image xlink:href="13E80470E948FA545863AB722B7C3861.png" width="89.00" height="89.00" transform="matrix(1.00, 0.00, -0.00, -1.00, 390.0, 97.0)"></image></g></g><g><clipPath id="clip-6"><path d="M 473.6 7.1 L 1284.0 7.1 L 1284.0 98.9 L 473.6 98.9 Z M 473.6 7.1 "></path></clipPath><g clip-path="url(#clip-6)"><path d="M 492.9 98.9 L 1234.9 98.9 L 1234.9 6.9 L 492.9 6.9 Z M 492.9 98.9 " fill="#000000" fill-opacity="0.00"></path></g></g><g><clipPath id="clip-7"><path d="M 473.6 7.1 L 1284.0 7.1 L 1284.0 98.9 L 473.6 98.9 Z M 473.6 7.1 "></path></clipPath><g clip-path="url(#clip-7)"><text xml:space="preserve" font-family="Courier" font-size="77.3" fill="#FFFFFF" transform="matrix(1.00, 0.00, -0.00, -1.00, 493.0, 26.0)">@</text><text xml:space="preserve" font-family="Courier" font-size="77.3" fill="#FFFFFF" transform="matrix(1.00, 0.00, -0.00, -1.00, 539.4, 26.0)">k</text><text xml:space="preserve" font-family="Courier" font-size="77.3" fill="#FFFFFF" transform="matrix(1.00, 0.00, -0.00, -1.00, 585.8, 26.0)">r</text><text xml:space="preserve" font-family="Courier" font-size="77.3" fill="#FFFFFF" transform="matrix(1.00, 0.00, -0.00, -1.00, 632.1, 26.0)">y</text><text xml:space="preserve" font-family="Courier" font-size="77.3" fill="#FFFFFF" transform="matrix(1.00, 0.00, -0.00, -1.00, 678.5, 26.0)">s</text><text xml:space="preserve" font-family="Courier" font-size="77.3" fill="#FFFFFF" transform="matrix(1.00, 0.00, -0.00, -1.00, 724.9, 26.0)">t</text><text xml:space="preserve" font-family="Courier" font-size="77.3" fill="#FFFFFF" transform="matrix(1.00, 0.00, -0.00, -1.00, 771.3, 26.0)">a</text><text xml:space="preserve" font-family="Courier" font-size="77.3" fill="#FFFFFF" transform="matrix(1.00, 0.00, -0.00, -1.00, 817.7, 26.0)">l</text><text xml:space="preserve" font-family="Courier" font-size="77.3" fill="#FFFFFF" transform="matrix(1.00, 0.00, -0.00, -1.00, 864.1, 26.0)">c</text><text xml:space="preserve" font-family="Courier" font-size="77.3" fill="#FFFFFF" transform="matrix(1.00, 0.00, -0.00, -1.00, 910.4, 26.0)">a</text><text xml:space="preserve" font-family="Courier" font-size="77.3" fill="#FFFFFF" transform="matrix(1.00, 0.00, -0.00, -1.00, 956.8, 26.0)">m</text><text xml:space="preserve" font-family="Courier" font-size="77.3" fill="#FFFFFF" transform="matrix(1.00, 0.00, -0.00, -1.00, 1003.2, 26.0)">p</text><text xml:space="preserve" font-family="Courier" font-size="77.3" fill="#FFFFFF" transform="matrix(1.00, 0.00, -0.00, -1.00, 1049.6, 26.0)">i</text><text xml:space="preserve" font-family="Courier" font-size="77.3" fill="#FFFFFF" transform="matrix(1.00, 0.00, -0.00, -1.00, 1096.0, 26.0)">o</text><text xml:space="preserve" font-family="Courier" font-size="77.3" fill="#FFFFFF" transform="matrix(1.00, 0.00, -0.00, -1.00, 1142.4, 26.0)">n</text><text xml:space="preserve" font-family="Courier" font-size="77.3" fill="#FFFFFF" transform="matrix(1.00, 0.00, -0.00, -1.00, 1188.7, 26.0)">i</text></g></g></g></svg>