<?xml version="1.0" encoding="UTF-8" standalone="no"?><svg xmlns="http://www.w3.org/2000/svg" xmlns:xlink="http://www.w3.org/1999/xlink" clip-rule="evenodd" stroke-miterlimit="4.00" viewBox="0 0 1041 50"><desc>SVG generated by Keynote</desc><defs></defs><g transform="matrix(1.00, 0.00, -0.00, -1.00, 0.0, 50.0)"><path d="M 2.8 64.2 L 1039.8 64.2 L 1039.8 -0.8 L 2.8 -0.8 Z M 2.8 64.2 " fill="#000000" fill-opacity="0.00"></path><text xml:space="preserve" font-family="Courier" font-size="54.0" fill="#00FBC8" transform="matrix(1.00, 0.00, -0.00, -1.00, 2.8, 12.5)"> </text><text xml:space="preserve" font-family="Courier" font-size="54.0" fill="#00FBC8" transform="matrix(1.00, 0.00, -0.00, -1.00, 35.2, 12.5)">l</text><text xml:space="preserve" font-family="Courier" font-size="54.0" fill="#00FBC8" transform="matrix(1.00, 0.00, -0.00, -1.00, 67.6, 12.5)">e</text><text xml:space="preserve" font-family="Courier" font-size="54.0" fill="#00FBC8" transform="matrix(1.00, 0.00, -0.00, -1.00, 100.0, 12.5)">t</text><text xml:space="preserve" font-family="Courier" font-size="54.0" fill="#00FBC8" transform="matrix(1.00, 0.00, -0.00, -1.00, 132.4, 12.5)">'</text><text xml:space="preserve" font-family="Courier" font-size="54.0" fill="#00FBC8" transform="matrix(1.00, 0.00, -0.00, -1.00, 164.9, 12.5)">s</text><text xml:space="preserve" font-family="Courier" font-size="54.0" fill="#00FBC8" transform="matrix(1.00, 0.00, -0.00, -1.00, 197.3, 12.5)"> </text><text xml:space="preserve" font-family="Courier" font-size="54.0" fill="#00FBC8" transform="matrix(1.00, 0.00, -0.00, -1.00, 229.7, 12.5)">c</text><text xml:space="preserve" font-family="Courier" font-size="54.0" fill="#00FBC8" transform="matrix(1.00, 0.00, -0.00, -1.00, 262.1, 12.5)">r</text><text xml:space="preserve" font-family="Courier" font-size="54.0" fill="#00FBC8" transform="matrix(1.00, 0.00, -0.00, -1.00, 294.5, 12.5)">e</text><text xml:space="preserve" font-family="Courier" font-size="54.0" fill="#00FBC8" transform="matrix(1.00, 0.00, -0.00, -1.00, 326.9, 12.5)">a</text><text xml:space="preserve" font-family="Courier" font-size="54.0" fill="#00FBC8" transform="matrix(1.00, 0.00, -0.00, -1.00, 359.3, 12.5)">t</text><text xml:space="preserve" font-family="Courier" font-size="54.0" fill="#00FBC8" transform="matrix(1.00, 0.00, -0.00, -1.00, 391.7, 12.5)">e</text><text xml:space="preserve" font-family="Courier" font-size="54.0" fill="#00FBC8" transform="matrix(1.00, 0.00, -0.00, -1.00, 424.1, 12.5)"> </text><text xml:space="preserve" font-family="Courier" font-size="54.0" fill="#00FBC8" transform="matrix(1.00, 0.00, -0.00, -1.00, 456.6, 12.5)">a</text><text xml:space="preserve" font-family="Courier" font-size="54.0" fill="#00FBC8" transform="matrix(1.00, 0.00, -0.00, -1.00, 489.0, 12.5)"> </text><text xml:space="preserve" font-family="Courier" font-size="54.0" fill="#00FBC8" transform="matrix(1.00, 0.00, -0.00, -1.00, 521.4, 12.5)">g</text><text xml:space="preserve" font-family="Courier" font-size="54.0" fill="#00FBC8" transform="matrix(1.00, 0.00, -0.00, -1.00, 553.8, 12.5)">a</text><text xml:space="preserve" font-family="Courier" font-size="54.0" fill="#00FBC8" transform="matrix(1.00, 0.00, -0.00, -1.00, 586.2, 12.5)">m</text><text xml:space="preserve" font-family="Courier" font-size="54.0" fill="#00FBC8" transform="matrix(1.00, 0.00, -0.00, -1.00, 618.6, 12.5)">e</text><text xml:space="preserve" font-family="Courier" font-size="54.0" fill="#00FBC8" transform="matrix(1.00, 0.00, -0.00, -1.00, 651.0, 12.5)"> </text><text xml:space="preserve" font-family="Courier" font-size="54.0" fill="#00FBC8" transform="matrix(1.00, 0.00, -0.00, -1.00, 683.4, 12.5)">w</text><text xml:space="preserve" font-family="Courier" font-size="54.0" fill="#00FBC8" transform="matrix(1.00, 0.00, -0.00, -1.00, 715.8, 12.5)">i</text><text xml:space="preserve" font-family="Courier" font-size="54.0" fill="#00FBC8" transform="matrix(1.00, 0.00, -0.00, -1.00, 748.3, 12.5)">t</text><text xml:space="preserve" font-family="Courier" font-size="54.0" fill="#00FBC8" transform="matrix(1.00, 0.00, -0.00, -1.00, 780.7, 12.5)">h</text><text xml:space="preserve" font-family="Courier" font-size="54.0" fill="#00FBC8" transform="matrix(1.00, 0.00, -0.00, -1.00, 813.1, 12.5)"> </text><text xml:space="preserve" font-family="Courier" font-size="54.0" fill="#00FBC8" transform="matrix(1.00, 0.00, -0.00, -1.00, 845.5, 12.5)">V</text><text xml:space="preserve" font-family="Courier" font-size="54.0" fill="#00FBC8" transform="matrix(1.00, 0.00, -0.00, -1.00, 877.9, 12.5)">u</text><text xml:space="preserve" font-family="Courier" font-size="54.0" fill="#00FBC8" transform="matrix(1.00, 0.00, -0.00, -1.00, 910.3, 12.5)">e</text><text xml:space="preserve" font-family="Courier" font-size="54.0" fill="#00FBC8" transform="matrix(1.00, 0.00, -0.00, -1.00, 942.7, 12.5)">.</text><text xml:space="preserve" font-family="Courier" font-size="54.0" fill="#00FBC8" transform="matrix(1.00, 0.00, -0.00, -1.00, 975.1, 12.5)">j</text><text xml:space="preserve" font-family="Courier" font-size="54.0" fill="#00FBC8" transform="matrix(1.00, 0.00, -0.00, -1.00, 1007.5, 12.5)">s</text><text xml:space="preserve" font-family="Courier" font-size="54.0" fill="#00FBC8" transform="matrix(1.00, 0.00, -0.00, -1.00, 1039.9, 12.5)"> </text></g></svg>