<?xml version="1.0" encoding="UTF-8" standalone="no"?><svg xmlns="http://www.w3.org/2000/svg" xmlns:xlink="http://www.w3.org/1999/xlink" clip-rule="evenodd" stroke-miterlimit="4.00" viewBox="0 0 1294 314"><desc>SVG generated by Keynote</desc><defs></defs><g transform="matrix(1.00, 0.00, -0.00, -1.00, 0.0, 314.0)"><text xml:space="preserve" font-family="Oswald-Regular" font-size="150.0" fill="#FEFAFF" transform="matrix(1.00, 0.00, -0.00, -1.00, -7.6, 180.2)">I</text><text xml:space="preserve" font-family="Oswald-Regular" font-size="150.0" fill="#FEFAFF" transform="matrix(1.00, 0.00, -0.00, -1.00, 32.0, 180.2)">n</text><text xml:space="preserve" font-family="Oswald-Regular" font-size="150.0" fill="#FEFAFF" transform="matrix(1.00, 0.00, -0.00, -1.00, 104.7, 180.2)">t</text><text xml:space="preserve" font-family="Oswald-Regular" font-size="150.0" fill="#FEFAFF" transform="matrix(1.00, 0.00, -0.00, -1.00, 155.4, 180.2)">e</text><text xml:space="preserve" font-family="Oswald-Regular" font-size="150.0" fill="#FEFAFF" transform="matrix(1.00, 0.00, -0.00, -1.00, 223.7, 180.2)">r</text><text xml:space="preserve" font-family="Oswald-Regular" font-size="150.0" fill="#FEFAFF" transform="matrix(1.00, 0.00, -0.00, -1.00, 274.5, 180.2)">f</text><text xml:space="preserve" font-family="Oswald-Regular" font-size="150.0" fill="#FEFAFF" transform="matrix(1.00, 0.00, -0.00, -1.00, 320.9, 180.2)">a</text><text xml:space="preserve" font-family="Oswald-Regular" font-size="150.0" fill="#FEFAFF" transform="matrix(1.00, 0.00, -0.00, -1.00, 390.9, 180.2)">c</text><text xml:space="preserve" font-family="Oswald-Regular" font-size="150.0" fill="#FEFAFF" transform="matrix(1.00, 0.00, -0.00, -1.00, 454.2, 180.2)">e</text><text xml:space="preserve" font-family="Oswald-Regular" font-size="150.0" fill="#FEFAFF" transform="matrix(1.00, 0.00, -0.00, -1.00, 522.4, 180.2)"> </text><text xml:space="preserve" font-family="Oswald-Regular" font-size="150.0" fill="#FEFAFF" transform="matrix(1.00, 0.00, -0.00, -1.00, 552.9, 180.2)">i</text><text xml:space="preserve" font-family="Oswald-Regular" font-size="150.0" fill="#FEFAFF" transform="matrix(1.00, 0.00, -0.00, -1.00, 590.4, 180.2)">n</text><text xml:space="preserve" font-family="Oswald-Regular" font-size="150.0" fill="#FEFAFF" transform="matrix(1.00, 0.00, -0.00, -1.00, 663.1, 180.2)">t</text><text xml:space="preserve" font-family="Oswald-Regular" font-size="150.0" fill="#FEFAFF" transform="matrix(1.00, 0.00, -0.00, -1.00, 713.9, 180.2)">e</text><text xml:space="preserve" font-family="Oswald-Regular" font-size="150.0" fill="#FEFAFF" transform="matrix(1.00, 0.00, -0.00, -1.00, 782.1, 180.2)">r</text><text xml:space="preserve" font-family="Oswald-Regular" font-size="150.0" fill="#FEFAFF" transform="matrix(1.00, 0.00, -0.00, -1.00, 833.0, 180.2)">a</text><text xml:space="preserve" font-family="Oswald-Regular" font-size="150.0" fill="#FEFAFF" transform="matrix(1.00, 0.00, -0.00, -1.00, 902.9, 180.2)">c</text><text xml:space="preserve" font-family="Oswald-Regular" font-size="150.0" fill="#FEFAFF" transform="matrix(1.00, 0.00, -0.00, -1.00, 966.2, 180.2)">t</text><text xml:space="preserve" font-family="Oswald-Regular" font-size="150.0" fill="#FEFAFF" transform="matrix(1.00, 0.00, -0.00, -1.00, 1017.5, 180.2)">i</text><text xml:space="preserve" font-family="Oswald-Regular" font-size="150.0" fill="#FEFAFF" transform="matrix(1.00, 0.00, -0.00, -1.00, 1055.0, 180.2)">o</text><text xml:space="preserve" font-family="Oswald-Regular" font-size="150.0" fill="#FEFAFF" transform="matrix(1.00, 0.00, -0.00, -1.00, 1124.8, 180.2)">n</text><text xml:space="preserve" font-family="Oswald-Regular" font-size="150.0" fill="#FEFAFF" transform="matrix(1.00, 0.00, -0.00, -1.00, 1197.5, 180.2)">s</text><text xml:space="preserve" font-family="Oswald-Regular" font-size="150.0" fill="#FEFAFF" transform="matrix(1.00, 0.00, -0.00, -1.00, 1261.6, 180.2)"> </text><text xml:space="preserve" font-family="LucidaGrande" font-size="150.0" fill="#FEFAFF" transform="matrix(1.00, 0.00, -0.00, -1.00, 1292.0, 180.2)"> </text><text xml:space="preserve" font-family="Oswald-Regular" font-size="150.0" fill="#FEFAFF" transform="matrix(1.00, 0.00, -0.00, -1.00, 358.4, 2.6)">a</text><text xml:space="preserve" font-family="Oswald-Regular" font-size="150.0" fill="#FEFAFF" transform="matrix(1.00, 0.00, -0.00, -1.00, 428.4, 2.6)">n</text><text xml:space="preserve" font-family="Oswald-Regular" font-size="150.0" fill="#FEFAFF" transform="matrix(1.00, 0.00, -0.00, -1.00, 501.1, 2.6)">d</text><text xml:space="preserve" font-family="Oswald-Regular" font-size="150.0" fill="#FEFAFF" transform="matrix(1.00, 0.00, -0.00, -1.00, 578.0, 2.6)"> </text><text xml:space="preserve" font-family="Oswald-Regular" font-size="150.0" fill="#FEFAFF" transform="matrix(1.00, 0.00, -0.00, -1.00, 608.5, 2.6)">a</text><text xml:space="preserve" font-family="Oswald-Regular" font-size="150.0" fill="#FEFAFF" transform="matrix(1.00, 0.00, -0.00, -1.00, 678.5, 2.6)">n</text><text xml:space="preserve" font-family="Oswald-Regular" font-size="150.0" fill="#FEFAFF" transform="matrix(1.00, 0.00, -0.00, -1.00, 751.2, 2.6)">i</text><text xml:space="preserve" font-family="Oswald-Regular" font-size="150.0" fill="#FEFAFF" transform="matrix(1.00, 0.00, -0.00, -1.00, 788.7, 2.6)">m</text><text xml:space="preserve" font-family="Oswald-Regular" font-size="150.0" fill="#FEFAFF" transform="matrix(1.00, 0.00, -0.00, -1.00, 898.9, 2.6)">a</text><text xml:space="preserve" font-family="Oswald-Regular" font-size="150.0" fill="#FEFAFF" transform="matrix(1.00, 0.00, -0.00, -1.00, 966.4, 2.6)">t</text><text xml:space="preserve" font-family="Oswald-Regular" font-size="150.0" fill="#FEFAFF" transform="matrix(1.00, 0.00, -0.00, -1.00, 1017.6, 2.6)">i</text><text xml:space="preserve" font-family="Oswald-Regular" font-size="150.0" fill="#FEFAFF" transform="matrix(1.00, 0.00, -0.00, -1.00, 1055.1, 2.6)">o</text><text xml:space="preserve" font-family="Oswald-Regular" font-size="150.0" fill="#FEFAFF" transform="matrix(1.00, 0.00, -0.00, -1.00, 1125.0, 2.6)">n</text><text xml:space="preserve" font-family="Oswald-Regular" font-size="150.0" fill="#FEFAFF" transform="matrix(1.00, 0.00, -0.00, -1.00, 1197.7, 2.6)">s</text></g></svg>