<?xml version="1.0" encoding="UTF-8" standalone="no"?><svg xmlns="http://www.w3.org/2000/svg" xmlns:xlink="http://www.w3.org/1999/xlink" clip-rule="evenodd" stroke-miterlimit="4.00" viewBox="0 0 533 131"><desc>SVG generated by Keynote</desc><defs></defs><g transform="matrix(1.00, 0.00, -0.00, -1.00, 0.0, 131.0)"><path d="M -0.4 158.3 L 532.3 158.3 L 532.3 61.3 L -0.4 61.3 Z M -0.4 158.3 " fill="#000000"></path><path d="M -0.4 80.7 L 435.1 80.7 L 435.1 -16.3 L -0.4 -16.3 Z M -0.4 80.7 " fill="#000000"></path><text xml:space="preserve" font-family="Courier" font-size="80.6" fill="#34A4DA" transform="matrix(1.00, 0.00, -0.00, -1.00, 0.0, 81.0)">E</text><text xml:space="preserve" font-family="Courier" font-size="80.6" fill="#34A4DA" transform="matrix(1.00, 0.00, -0.00, -1.00, 48.4, 81.0)">N</text><text xml:space="preserve" font-family="Courier" font-size="80.6" fill="#34A4DA" transform="matrix(1.00, 0.00, -0.00, -1.00, 96.8, 81.0)">V</text><text xml:space="preserve" font-family="Courier" font-size="80.6" fill="#34A4DA" transform="matrix(1.00, 0.00, -0.00, -1.00, 145.2, 81.0)">I</text><text xml:space="preserve" font-family="Courier" font-size="80.6" fill="#34A4DA" transform="matrix(1.00, 0.00, -0.00, -1.00, 193.6, 81.0)">R</text><text xml:space="preserve" font-family="Courier" font-size="80.6" fill="#34A4DA" transform="matrix(1.00, 0.00, -0.00, -1.00, 242.0, 81.0)">O</text><text xml:space="preserve" font-family="Courier" font-size="80.6" fill="#34A4DA" transform="matrix(1.00, 0.00, -0.00, -1.00, 290.4, 81.0)">N</text><text xml:space="preserve" font-family="Courier" font-size="80.6" fill="#34A4DA" transform="matrix(1.00, 0.00, -0.00, -1.00, 338.8, 81.0)">M</text><text xml:space="preserve" font-family="Courier" font-size="80.6" fill="#34A4DA" transform="matrix(1.00, 0.00, -0.00, -1.00, 387.2, 81.0)">E</text><text xml:space="preserve" font-family="Courier" font-size="80.6" fill="#34A4DA" transform="matrix(1.00, 0.00, -0.00, -1.00, 435.6, 81.0)">N</text><text xml:space="preserve" font-family="Courier" font-size="80.6" fill="#34A4DA" transform="matrix(1.00, 0.00, -0.00, -1.00, 484.0, 81.0)">T</text><text xml:space="preserve" font-family="Courier" font-size="80.6" fill="#34A4DA" transform="matrix(1.00, 0.00, -0.00, -1.00, 532.4, 81.0)"> </text><text xml:space="preserve" font-family="Courier" font-size="80.6" fill="#34A4DA" transform="matrix(1.00, 0.00, -0.00, -1.00, 0.0, 4.0)">C</text><text xml:space="preserve" font-family="Courier" font-size="80.6" fill="#34A4DA" transform="matrix(1.00, 0.00, -0.00, -1.00, 48.4, 4.0)">O</text><text xml:space="preserve" font-family="Courier" font-size="80.6" fill="#34A4DA" transform="matrix(1.00, 0.00, -0.00, -1.00, 96.8, 4.0)">M</text><text xml:space="preserve" font-family="Courier" font-size="80.6" fill="#34A4DA" transform="matrix(1.00, 0.00, -0.00, -1.00, 145.2, 4.0)">P</text><text xml:space="preserve" font-family="Courier" font-size="80.6" fill="#34A4DA" transform="matrix(1.00, 0.00, -0.00, -1.00, 193.6, 4.0)">O</text><text xml:space="preserve" font-family="Courier" font-size="80.6" fill="#34A4DA" transform="matrix(1.00, 0.00, -0.00, -1.00, 242.0, 4.0)">N</text><text xml:space="preserve" font-family="Courier" font-size="80.6" fill="#34A4DA" transform="matrix(1.00, 0.00, -0.00, -1.00, 290.4, 4.0)">E</text><text xml:space="preserve" font-family="Courier" font-size="80.6" fill="#34A4DA" transform="matrix(1.00, 0.00, -0.00, -1.00, 338.8, 4.0)">N</text><text xml:space="preserve" font-family="Courier" font-size="80.6" fill="#34A4DA" transform="matrix(1.00, 0.00, -0.00, -1.00, 387.2, 4.0)">T</text></g></svg>