<?xml version="1.0" encoding="UTF-8" standalone="no"?><svg xmlns="http://www.w3.org/2000/svg" xmlns:xlink="http://www.w3.org/1999/xlink" clip-rule="evenodd" stroke-miterlimit="4.00" viewBox="0 0 1920 1080"><desc>SVG generated by Keynote</desc><defs></defs><g transform="matrix(1.00, 0.00, -0.00, -1.00, 0.0, 1080.0)"><path d="M 0.0 1080.0 L 1920.0 1080.0 L 1920.0 0.0 L 0.0 0.0 Z M 0.0 1080.0 " fill="#1E1E21"></path><path d="M 0.0 0.0 L 1953.0 0.0 " fill="none" stroke="#00FDC7" stroke-width="7.00" transform="matrix(1.00, -0.00, -0.00, -1.00, -16.5, 970.1)"></path><path d="M -2.1 965.5 L 1946.8 965.5 L 1946.8 -13.9 L -2.1 -13.9 Z M -2.1 965.5 " fill="#22252A"></path><text xml:space="preserve" font-family="DINCondensed-Bold" font-weight="bold" font-size="66.0" fill="#E8EFEF" transform="matrix(1.00, 0.00, -0.00, -1.00, 50.0, 999.0)">S</text><text xml:space="preserve" font-family="DINCondensed-Bold" font-weight="bold" font-size="66.0" fill="#E8EFEF" transform="matrix(1.00, 0.00, -0.00, -1.00, 80.1, 999.0)">P</text><text xml:space="preserve" font-family="DINCondensed-Bold" font-weight="bold" font-size="66.0" fill="#E8EFEF" transform="matrix(1.00, 0.00, -0.00, -1.00, 110.3, 999.0)">R</text><text xml:space="preserve" font-family="DINCondensed-Bold" font-weight="bold" font-size="66.0" fill="#E8EFEF" transform="matrix(1.00, 0.00, -0.00, -1.00, 141.7, 999.0)">I</text><text xml:space="preserve" font-family="DINCondensed-Bold" font-weight="bold" font-size="66.0" fill="#E8EFEF" transform="matrix(1.00, 0.00, -0.00, -1.00, 158.4, 999.0)">T</text><text xml:space="preserve" font-family="DINCondensed-Bold" font-weight="bold" font-size="66.0" fill="#E8EFEF" transform="matrix(1.00, 0.00, -0.00, -1.00, 183.7, 999.0)">E</text><text xml:space="preserve" font-family="DINCondensed-Bold" font-weight="bold" font-size="66.0" fill="#E8EFEF" transform="matrix(1.00, 0.00, -0.00, -1.00, 211.4, 999.0)"> </text><text xml:space="preserve" font-family="DINCondensed-Bold" font-weight="bold" font-size="66.0" fill="#E8EFEF" transform="matrix(1.00, 0.00, -0.00, -1.00, 226.9, 999.0)">A</text><text xml:space="preserve" font-family="DINCondensed-Bold" font-weight="bold" font-size="66.0" fill="#E8EFEF" transform="matrix(1.00, 0.00, -0.00, -1.00, 257.1, 999.0)">N</text><text xml:space="preserve" font-family="DINCondensed-Bold" font-weight="bold" font-size="66.0" fill="#E8EFEF" transform="matrix(1.00, 0.00, -0.00, -1.00, 289.7, 999.0)">I</text><text xml:space="preserve" font-family="DINCondensed-Bold" font-weight="bold" font-size="66.0" fill="#E8EFEF" transform="matrix(1.00, 0.00, -0.00, -1.00, 306.5, 999.0)">M</text><text xml:space="preserve" font-family="DINCondensed-Bold" font-weight="bold" font-size="66.0" fill="#E8EFEF" transform="matrix(1.00, 0.00, -0.00, -1.00, 346.5, 999.0)">A</text><text xml:space="preserve" font-family="DINCondensed-Bold" font-weight="bold" font-size="66.0" fill="#E8EFEF" transform="matrix(1.00, 0.00, -0.00, -1.00, 373.0, 999.0)">T</text><text xml:space="preserve" font-family="DINCondensed-Bold" font-weight="bold" font-size="66.0" fill="#E8EFEF" transform="matrix(1.00, 0.00, -0.00, -1.00, 398.2, 999.0)">I</text><text xml:space="preserve" font-family="DINCondensed-Bold" font-weight="bold" font-size="66.0" fill="#E8EFEF" transform="matrix(1.00, 0.00, -0.00, -1.00, 415.0, 999.0)">O</text><text xml:space="preserve" font-family="DINCondensed-Bold" font-weight="bold" font-size="66.0" fill="#E8EFEF" transform="matrix(1.00, 0.00, -0.00, -1.00, 446.4, 999.0)">N</text><text xml:space="preserve" font-family="DINCondensed-Bold" font-weight="bold" font-size="66.0" fill="#E8EFEF" transform="matrix(1.00, 0.00, -0.00, -1.00, 479.0, 999.0)">S</text><g><clipPath id="clip-212"><path d="M 12.0 922.0 L 1908.0 922.0 L 1908.0 357.0 L 12.0 357.0 Z M 12.2 922.4 "></path></clipPath><g clip-path="url(#clip-212)"><g><clipPath id="clip-213"><path d="M 12.2 357.0 L 1907.8 357.0 L 1907.8 922.4 L 12.2 922.4 Z M 12.2 357.0 "></path></clipPath><g clip-path="url(#clip-213)"><image xlink:href="DDFD58EBD50FD2F57010C50FF027728C.png" width="961.00" height="480.00" transform="matrix(1.97, 0.00, -0.00, -1.97, 12.0, 922.0)"></image></g></g></g></g><g><clipPath id="clip-214"><path d="M 37.6 301.0 L 935.7 301.0 L 935.7 380.9 L 37.6 380.9 Z M 37.6 301.0 "></path></clipPath><g clip-path="url(#clip-214)"><path d="M 0.5 18.7 L 0.6 23.7 L 0.6 67.9 L 883.0 67.9 " fill="none" stroke="#00FDC7" stroke-width="10.00" stroke-linejoin="round" transform="matrix(1.00, 0.00, 0.00, -1.00, 51.7, 374.9)"></path><path d="M 38.6 347.0 L 51.7 374.9 L 66.1 347.7 L 52.2 356.5 Z M 38.6 347.0 " fill="#00FDC7"></path></g></g><g><clipPath id="clip-215"><path d="M 921.0 301.0 L 1866.4 301.0 L 1866.4 371.1 L 921.0 371.1 Z M 921.0 301.0 "></path></clipPath><g clip-path="url(#clip-215)"><path d="M 0.0 18.7 L 0.0 23.7 L 0.0 63.1 L 929.6 63.1 " fill="none" stroke="#00FDC7" stroke-width="10.00" stroke-linejoin="round" transform="matrix(-1.00, 0.00, 0.00, -1.00, 1851.6, 370.1)"></path><path d="M 1865.4 342.5 L 1851.6 370.1 L 1837.8 342.5 L 1851.6 351.7 Z M 1865.4 342.5 " fill="#00FDC7"></path></g></g><g><clipPath id="clip-216"><path d="M 48.3 157.6 L 1851.5 157.6 L 1851.5 302.1 L 48.3 302.1 Z M 48.3 157.6 "></path></clipPath><g clip-path="url(#clip-216)"><text xml:space="preserve" font-family="CourierNewPS-BoldMT" font-weight="bold" font-size="70.0" fill="#FFFFFF" transform="matrix(1.00, 0.00, -0.00, -1.00, 467.0, 224.0)">b</text><text xml:space="preserve" font-family="CourierNewPS-BoldMT" font-weight="bold" font-size="70.0" fill="#FFFFFF" transform="matrix(1.00, 0.00, -0.00, -1.00, 509.0, 224.0)">a</text><text xml:space="preserve" font-family="CourierNewPS-BoldMT" font-weight="bold" font-size="70.0" fill="#FFFFFF" transform="matrix(1.00, 0.00, -0.00, -1.00, 551.0, 224.0)">c</text><text xml:space="preserve" font-family="CourierNewPS-BoldMT" font-weight="bold" font-size="70.0" fill="#FFFFFF" transform="matrix(1.00, 0.00, -0.00, -1.00, 593.0, 224.0)">k</text><text xml:space="preserve" font-family="CourierNewPS-BoldMT" font-weight="bold" font-size="70.0" fill="#FFFFFF" transform="matrix(1.00, 0.00, -0.00, -1.00, 635.1, 224.0)">g</text><text xml:space="preserve" font-family="CourierNewPS-BoldMT" font-weight="bold" font-size="70.0" fill="#FFFFFF" transform="matrix(1.00, 0.00, -0.00, -1.00, 677.1, 224.0)">r</text><text xml:space="preserve" font-family="CourierNewPS-BoldMT" font-weight="bold" font-size="70.0" fill="#FFFFFF" transform="matrix(1.00, 0.00, -0.00, -1.00, 719.1, 224.0)">o</text><text xml:space="preserve" font-family="CourierNewPS-BoldMT" font-weight="bold" font-size="70.0" fill="#FFFFFF" transform="matrix(1.00, 0.00, -0.00, -1.00, 761.1, 224.0)">u</text><text xml:space="preserve" font-family="CourierNewPS-BoldMT" font-weight="bold" font-size="70.0" fill="#FFFFFF" transform="matrix(1.00, 0.00, -0.00, -1.00, 803.1, 224.0)">n</text><text xml:space="preserve" font-family="CourierNewPS-BoldMT" font-weight="bold" font-size="70.0" fill="#FFFFFF" transform="matrix(1.00, 0.00, -0.00, -1.00, 845.1, 224.0)">d</text><text xml:space="preserve" font-family="CourierNewPS-BoldMT" font-weight="bold" font-size="70.0" fill="#FFFFFF" transform="matrix(1.00, 0.00, -0.00, -1.00, 887.1, 224.0)">-</text><text xml:space="preserve" font-family="CourierNewPS-BoldMT" font-weight="bold" font-size="70.0" fill="#FFFFFF" transform="matrix(1.00, 0.00, -0.00, -1.00, 929.2, 224.0)">s</text><text xml:space="preserve" font-family="CourierNewPS-BoldMT" font-weight="bold" font-size="70.0" fill="#FFFFFF" transform="matrix(1.00, 0.00, -0.00, -1.00, 971.2, 224.0)">i</text><text xml:space="preserve" font-family="CourierNewPS-BoldMT" font-weight="bold" font-size="70.0" fill="#FFFFFF" transform="matrix(1.00, 0.00, -0.00, -1.00, 1013.2, 224.0)">z</text><text xml:space="preserve" font-family="CourierNewPS-BoldMT" font-weight="bold" font-size="70.0" fill="#FFFFFF" transform="matrix(1.00, 0.00, -0.00, -1.00, 1055.2, 224.0)">e</text><text xml:space="preserve" font-family="CourierNewPS-BoldMT" font-weight="bold" font-size="70.0" fill="#FFFFFF" transform="matrix(1.00, 0.00, -0.00, -1.00, 1097.2, 224.0)">:</text><text xml:space="preserve" font-family="CourierNewPS-BoldMT" font-weight="bold" font-size="70.0" fill="#00FDC7" transform="matrix(1.00, 0.00, -0.00, -1.00, 1139.1, 224.0)"> </text><text xml:space="preserve" font-family="CourierNewPS-BoldMT" font-weight="bold" font-size="70.0" fill="#00FDC7" transform="matrix(1.00, 0.00, -0.00, -1.00, 1181.1, 224.0)">5</text><text xml:space="preserve" font-family="CourierNewPS-BoldMT" font-weight="bold" font-size="70.0" fill="#00FDC7" transform="matrix(1.00, 0.00, -0.00, -1.00, 1223.1, 224.0)">3</text><text xml:space="preserve" font-family="CourierNewPS-BoldMT" font-weight="bold" font-size="70.0" fill="#00FDC7" transform="matrix(1.00, 0.00, -0.00, -1.00, 1265.2, 224.0)">4</text><text xml:space="preserve" font-family="CourierNewPS-BoldMT" font-weight="bold" font-size="70.0" fill="#00FDC7" transform="matrix(1.00, 0.00, -0.00, -1.00, 1307.2, 224.0)">5</text><text xml:space="preserve" font-family="CourierNewPS-BoldMT" font-weight="bold" font-size="70.0" fill="#00FDC7" transform="matrix(1.00, 0.00, -0.00, -1.00, 1349.2, 224.0)">p</text><text xml:space="preserve" font-family="CourierNewPS-BoldMT" font-weight="bold" font-size="70.0" fill="#00FDC7" transform="matrix(1.00, 0.00, -0.00, -1.00, 1391.2, 224.0)">x</text></g></g></g></svg>