<?xml version="1.0" encoding="UTF-8" standalone="no"?><svg xmlns="http://www.w3.org/2000/svg" xmlns:xlink="http://www.w3.org/1999/xlink" clip-rule="evenodd" stroke-miterlimit="4.00" viewBox="0 0 1920 1080"><desc>SVG generated by Keynote</desc><defs></defs><g transform="matrix(1.00, 0.00, -0.00, -1.00, 0.0, 1080.0)"><path d="M 0.0 1080.0 L 1920.0 1080.0 L 1920.0 0.0 L 0.0 0.0 Z M 0.0 1080.0 " fill="#1E1E21"></path><path d="M 0.0 0.0 L 1953.0 0.0 " fill="none" stroke="#00FDC7" stroke-width="7.00" transform="matrix(1.00, -0.00, -0.00, -1.00, -16.5, 970.1)"></path><image xlink:href="../../AA86E8B7-3515-4DE1-AD8C-0D390218A2ED/assets/D1E9D44EAB03B85E754551C245BF2FD2.png" width="961.00" height="477.00" transform="matrix(2.03, 0.00, -0.00, -2.04, -16.0, 966.0)"></image><text xml:space="preserve" font-family="DINCondensed-Bold" font-weight="bold" font-size="66.0" fill="#E8EFEF" transform="matrix(1.00, 0.00, -0.00, -1.00, 50.0, 999.0)">U</text><text xml:space="preserve" font-family="DINCondensed-Bold" font-weight="bold" font-size="66.0" fill="#E8EFEF" transform="matrix(1.00, 0.00, -0.00, -1.00, 81.4, 999.0)">S</text><text xml:space="preserve" font-family="DINCondensed-Bold" font-weight="bold" font-size="66.0" fill="#E8EFEF" transform="matrix(1.00, 0.00, -0.00, -1.00, 111.5, 999.0)">I</text><text xml:space="preserve" font-family="DINCondensed-Bold" font-weight="bold" font-size="66.0" fill="#E8EFEF" transform="matrix(1.00, 0.00, -0.00, -1.00, 128.3, 999.0)">N</text><text xml:space="preserve" font-family="DINCondensed-Bold" font-weight="bold" font-size="66.0" fill="#E8EFEF" transform="matrix(1.00, 0.00, -0.00, -1.00, 160.9, 999.0)">G</text><text xml:space="preserve" font-family="DINCondensed-Bold" font-weight="bold" font-size="66.0" fill="#E8EFEF" transform="matrix(1.00, 0.00, -0.00, -1.00, 192.3, 999.0)"> </text><text xml:space="preserve" font-family="DINCondensed-Bold" font-weight="bold" font-size="66.0" fill="#E8EFEF" transform="matrix(1.00, 0.00, -0.00, -1.00, 207.9, 999.0)">C</text><text xml:space="preserve" font-family="DINCondensed-Bold" font-weight="bold" font-size="66.0" fill="#E8EFEF" transform="matrix(1.00, 0.00, -0.00, -1.00, 238.0, 999.0)">O</text><text xml:space="preserve" font-family="DINCondensed-Bold" font-weight="bold" font-size="66.0" fill="#E8EFEF" transform="matrix(1.00, 0.00, -0.00, -1.00, 269.5, 999.0)">M</text><text xml:space="preserve" font-family="DINCondensed-Bold" font-weight="bold" font-size="66.0" fill="#E8EFEF" transform="matrix(1.00, 0.00, -0.00, -1.00, 309.4, 999.0)">P</text><text xml:space="preserve" font-family="DINCondensed-Bold" font-weight="bold" font-size="66.0" fill="#E8EFEF" transform="matrix(1.00, 0.00, -0.00, -1.00, 339.6, 999.0)">O</text><text xml:space="preserve" font-family="DINCondensed-Bold" font-weight="bold" font-size="66.0" fill="#E8EFEF" transform="matrix(1.00, 0.00, -0.00, -1.00, 371.0, 999.0)">N</text><text xml:space="preserve" font-family="DINCondensed-Bold" font-weight="bold" font-size="66.0" fill="#E8EFEF" transform="matrix(1.00, 0.00, -0.00, -1.00, 403.6, 999.0)">E</text><text xml:space="preserve" font-family="DINCondensed-Bold" font-weight="bold" font-size="66.0" fill="#E8EFEF" transform="matrix(1.00, 0.00, -0.00, -1.00, 431.3, 999.0)">N</text><text xml:space="preserve" font-family="DINCondensed-Bold" font-weight="bold" font-size="66.0" fill="#E8EFEF" transform="matrix(1.00, 0.00, -0.00, -1.00, 464.0, 999.0)">T</text><text xml:space="preserve" font-family="DINCondensed-Bold" font-weight="bold" font-size="66.0" fill="#E8EFEF" transform="matrix(1.00, 0.00, -0.00, -1.00, 489.2, 999.0)">S</text><path d="M 25.0 21.9 L 29.5 24.1 C 88.9 46.8 183.4 54.3 260.2 50.4 C 335.9 46.6 414.3 36.3 475.3 15.6 C 477.7 14.8 480.0 13.9 482.2 12.9 L 486.8 10.9 " fill="none" stroke="#8ABE5D" stroke-width="10.00" stroke-linejoin="round" transform="matrix(1.00, 0.00, 0.00, -1.00, 641.3, 833.5)"></path><path d="M 1123.1 835.4 L 1153.8 833.5 L 1133.8 810.0 Z M 1123.1 835.4 " fill="#8ABE5D"></path><path d="M 659.9 799.4 L 641.3 823.9 L 672.1 824.1 Z M 659.9 799.4 " fill="#8ABE5D"></path><path d="M 21.4 28.3 L 25.2 25.1 C 60.5 3.9 111.9 -2.9 154.2 1.1 C 197.4 5.1 242.1 15.8 277.5 37.0 L 281.5 40.0 " fill="none" stroke="#9900FF" stroke-width="10.00" stroke-linejoin="round" transform="matrix(-1.00, 0.00, 0.00, 1.00, 672.4, 147.0)"></path><path d="M 382.3 176.2 L 368.6 203.7 L 398.9 198.1 Z M 382.3 176.2 " fill="#9900FF"></path><path d="M 642.5 186.0 L 672.4 193.1 L 660.1 164.9 Z M 642.5 186.0 " fill="#9900FF"></path><path d="M 0.0 15.0 C 22.7 68.2 72.9 86.0 112.2 78.9 C 143.9 73.1 176.7 57.7 202.6 27.2 L 205.4 23.1 " fill="none" stroke="#34A4DA" stroke-width="10.00" stroke-linejoin="round" transform="matrix(-0.97, 0.24, 0.24, 0.97, 1264.0, 291.3)"></path><path d="M 1078.9 352.1 L 1049.3 343.7 L 1060.4 372.4 Z M 1078.9 352.1 " fill="#34A4DA"></path><path d="M 717.7 760.7 L 1649.2 760.7 L 1649.2 671.7 L 717.7 671.7 Z M 717.7 760.7 " fill="#000000"></path><text xml:space="preserve" font-family="Courier" font-size="73.9" fill="#8ABE5D" transform="matrix(1.00, 0.00, -0.00, -1.00, 718.0, 690.0)">S</text><text xml:space="preserve" font-family="Courier" font-size="73.9" fill="#8ABE5D" transform="matrix(1.00, 0.00, -0.00, -1.00, 762.4, 690.0)">T</text><text xml:space="preserve" font-family="Courier" font-size="73.9" fill="#8ABE5D" transform="matrix(1.00, 0.00, -0.00, -1.00, 806.7, 690.0)">A</text><text xml:space="preserve" font-family="Courier" font-size="73.9" fill="#8ABE5D" transform="matrix(1.00, 0.00, -0.00, -1.00, 851.1, 690.0)">T</text><text xml:space="preserve" font-family="Courier" font-size="73.9" fill="#8ABE5D" transform="matrix(1.00, 0.00, -0.00, -1.00, 895.5, 690.0)">U</text><text xml:space="preserve" font-family="Courier" font-size="73.9" fill="#8ABE5D" transform="matrix(1.00, 0.00, -0.00, -1.00, 939.8, 690.0)">S</text><text xml:space="preserve" font-family="Courier" font-size="73.9" fill="#8ABE5D" transform="matrix(1.00, 0.00, -0.00, -1.00, 984.2, 690.0)"> </text><text xml:space="preserve" font-family="Courier" font-size="73.9" fill="#8ABE5D" transform="matrix(1.00, 0.00, -0.00, -1.00, 1028.6, 690.0)">B</text><text xml:space="preserve" font-family="Courier" font-size="73.9" fill="#8ABE5D" transform="matrix(1.00, 0.00, -0.00, -1.00, 1072.9, 690.0)">A</text><text xml:space="preserve" font-family="Courier" font-size="73.9" fill="#8ABE5D" transform="matrix(1.00, 0.00, -0.00, -1.00, 1117.3, 690.0)">R</text><text xml:space="preserve" font-family="Courier" font-size="73.9" fill="#8ABE5D" transform="matrix(1.00, 0.00, -0.00, -1.00, 1161.7, 690.0)"> </text><text xml:space="preserve" font-family="Courier" font-size="73.9" fill="#8ABE5D" transform="matrix(1.00, 0.00, -0.00, -1.00, 1206.0, 690.0)">C</text><text xml:space="preserve" font-family="Courier" font-size="73.9" fill="#8ABE5D" transform="matrix(1.00, 0.00, -0.00, -1.00, 1250.4, 690.0)">O</text><text xml:space="preserve" font-family="Courier" font-size="73.9" fill="#8ABE5D" transform="matrix(1.00, 0.00, -0.00, -1.00, 1294.8, 690.0)">M</text><text xml:space="preserve" font-family="Courier" font-size="73.9" fill="#8ABE5D" transform="matrix(1.00, 0.00, -0.00, -1.00, 1339.1, 690.0)">P</text><text xml:space="preserve" font-family="Courier" font-size="73.9" fill="#8ABE5D" transform="matrix(1.00, 0.00, -0.00, -1.00, 1383.5, 690.0)">O</text><text xml:space="preserve" font-family="Courier" font-size="73.9" fill="#8ABE5D" transform="matrix(1.00, 0.00, -0.00, -1.00, 1427.9, 690.0)">N</text><text xml:space="preserve" font-family="Courier" font-size="73.9" fill="#8ABE5D" transform="matrix(1.00, 0.00, -0.00, -1.00, 1472.2, 690.0)">E</text><text xml:space="preserve" font-family="Courier" font-size="73.9" fill="#8ABE5D" transform="matrix(1.00, 0.00, -0.00, -1.00, 1516.6, 690.0)">N</text><text xml:space="preserve" font-family="Courier" font-size="73.9" fill="#8ABE5D" transform="matrix(1.00, 0.00, -0.00, -1.00, 1561.0, 690.0)">T</text><text xml:space="preserve" font-family="Courier" font-size="73.9" fill="#8ABE5D" transform="matrix(1.00, 0.00, -0.00, -1.00, 1605.3, 690.0)">S</text><path d="M 95.7 150.7 L 1033.3 150.7 L 1033.3 56.7 L 95.7 56.7 Z M 95.7 150.7 " fill="#000000"></path><text xml:space="preserve" font-family="Courier" font-size="78.1" fill="#9937FF" transform="matrix(1.00, 0.00, -0.00, -1.00, 96.0, 76.0)">C</text><text xml:space="preserve" font-family="Courier" font-size="78.1" fill="#9937FF" transform="matrix(1.00, 0.00, -0.00, -1.00, 142.9, 76.0)">H</text><text xml:space="preserve" font-family="Courier" font-size="78.1" fill="#9937FF" transform="matrix(1.00, 0.00, -0.00, -1.00, 189.8, 76.0)">A</text><text xml:space="preserve" font-family="Courier" font-size="78.1" fill="#9937FF" transform="matrix(1.00, 0.00, -0.00, -1.00, 236.7, 76.0)">R</text><text xml:space="preserve" font-family="Courier" font-size="78.1" fill="#9937FF" transform="matrix(1.00, 0.00, -0.00, -1.00, 283.5, 76.0)">A</text><text xml:space="preserve" font-family="Courier" font-size="78.1" fill="#9937FF" transform="matrix(1.00, 0.00, -0.00, -1.00, 330.4, 76.0)">C</text><text xml:space="preserve" font-family="Courier" font-size="78.1" fill="#9937FF" transform="matrix(1.00, 0.00, -0.00, -1.00, 377.3, 76.0)">T</text><text xml:space="preserve" font-family="Courier" font-size="78.1" fill="#9937FF" transform="matrix(1.00, 0.00, -0.00, -1.00, 424.2, 76.0)">E</text><text xml:space="preserve" font-family="Courier" font-size="78.1" fill="#9937FF" transform="matrix(1.00, 0.00, -0.00, -1.00, 471.1, 76.0)">R</text><text xml:space="preserve" font-family="Courier" font-size="78.1" fill="#9937FF" transform="matrix(1.00, 0.00, -0.00, -1.00, 518.0, 76.0)"> </text><text xml:space="preserve" font-family="Courier" font-size="78.1" fill="#9937FF" transform="matrix(1.00, 0.00, -0.00, -1.00, 564.9, 76.0)">C</text><text xml:space="preserve" font-family="Courier" font-size="78.1" fill="#9937FF" transform="matrix(1.00, 0.00, -0.00, -1.00, 611.8, 76.0)">O</text><text xml:space="preserve" font-family="Courier" font-size="78.1" fill="#9937FF" transform="matrix(1.00, 0.00, -0.00, -1.00, 658.6, 76.0)">M</text><text xml:space="preserve" font-family="Courier" font-size="78.1" fill="#9937FF" transform="matrix(1.00, 0.00, -0.00, -1.00, 705.5, 76.0)">P</text><text xml:space="preserve" font-family="Courier" font-size="78.1" fill="#9937FF" transform="matrix(1.00, 0.00, -0.00, -1.00, 752.4, 76.0)">O</text><text xml:space="preserve" font-family="Courier" font-size="78.1" fill="#9937FF" transform="matrix(1.00, 0.00, -0.00, -1.00, 799.3, 76.0)">N</text><text xml:space="preserve" font-family="Courier" font-size="78.1" fill="#9937FF" transform="matrix(1.00, 0.00, -0.00, -1.00, 846.2, 76.0)">E</text><text xml:space="preserve" font-family="Courier" font-size="78.1" fill="#9937FF" transform="matrix(1.00, 0.00, -0.00, -1.00, 893.1, 76.0)">N</text><text xml:space="preserve" font-family="Courier" font-size="78.1" fill="#9937FF" transform="matrix(1.00, 0.00, -0.00, -1.00, 940.0, 76.0)">T</text><text xml:space="preserve" font-family="Courier" font-size="78.1" fill="#9937FF" transform="matrix(1.00, 0.00, -0.00, -1.00, 986.9, 76.0)">S</text><path d="M 1240.6 295.3 L 1773.2 295.3 L 1773.2 198.3 L 1240.6 198.3 Z M 1240.6 295.3 " fill="#000000"></path><path d="M 1240.6 217.7 L 1676.1 217.7 L 1676.1 120.7 L 1240.6 120.7 Z M 1240.6 217.7 " fill="#000000"></path><text xml:space="preserve" font-family="Courier" font-size="80.6" fill="#34A4DA" transform="matrix(1.00, 0.00, -0.00, -1.00, 1241.0, 218.0)">E</text><text xml:space="preserve" font-family="Courier" font-size="80.6" fill="#34A4DA" transform="matrix(1.00, 0.00, -0.00, -1.00, 1289.4, 218.0)">N</text><text xml:space="preserve" font-family="Courier" font-size="80.6" fill="#34A4DA" transform="matrix(1.00, 0.00, -0.00, -1.00, 1337.8, 218.0)">V</text><text xml:space="preserve" font-family="Courier" font-size="80.6" fill="#34A4DA" transform="matrix(1.00, 0.00, -0.00, -1.00, 1386.2, 218.0)">I</text><text xml:space="preserve" font-family="Courier" font-size="80.6" fill="#34A4DA" transform="matrix(1.00, 0.00, -0.00, -1.00, 1434.6, 218.0)">R</text><text xml:space="preserve" font-family="Courier" font-size="80.6" fill="#34A4DA" transform="matrix(1.00, 0.00, -0.00, -1.00, 1483.0, 218.0)">O</text><text xml:space="preserve" font-family="Courier" font-size="80.6" fill="#34A4DA" transform="matrix(1.00, 0.00, -0.00, -1.00, 1531.4, 218.0)">N</text><text xml:space="preserve" font-family="Courier" font-size="80.6" fill="#34A4DA" transform="matrix(1.00, 0.00, -0.00, -1.00, 1579.8, 218.0)">M</text><text xml:space="preserve" font-family="Courier" font-size="80.6" fill="#34A4DA" transform="matrix(1.00, 0.00, -0.00, -1.00, 1628.2, 218.0)">E</text><text xml:space="preserve" font-family="Courier" font-size="80.6" fill="#34A4DA" transform="matrix(1.00, 0.00, -0.00, -1.00, 1676.6, 218.0)">N</text><text xml:space="preserve" font-family="Courier" font-size="80.6" fill="#34A4DA" transform="matrix(1.00, 0.00, -0.00, -1.00, 1725.0, 218.0)">T</text><text xml:space="preserve" font-family="Courier" font-size="80.6" fill="#34A4DA" transform="matrix(1.00, 0.00, -0.00, -1.00, 1773.4, 218.0)"> </text><text xml:space="preserve" font-family="Courier" font-size="80.6" fill="#34A4DA" transform="matrix(1.00, 0.00, -0.00, -1.00, 1241.0, 141.0)">C</text><text xml:space="preserve" font-family="Courier" font-size="80.6" fill="#34A4DA" transform="matrix(1.00, 0.00, -0.00, -1.00, 1289.4, 141.0)">O</text><text xml:space="preserve" font-family="Courier" font-size="80.6" fill="#34A4DA" transform="matrix(1.00, 0.00, -0.00, -1.00, 1337.8, 141.0)">M</text><text xml:space="preserve" font-family="Courier" font-size="80.6" fill="#34A4DA" transform="matrix(1.00, 0.00, -0.00, -1.00, 1386.2, 141.0)">P</text><text xml:space="preserve" font-family="Courier" font-size="80.6" fill="#34A4DA" transform="matrix(1.00, 0.00, -0.00, -1.00, 1434.6, 141.0)">O</text><text xml:space="preserve" font-family="Courier" font-size="80.6" fill="#34A4DA" transform="matrix(1.00, 0.00, -0.00, -1.00, 1483.0, 141.0)">N</text><text xml:space="preserve" font-family="Courier" font-size="80.6" fill="#34A4DA" transform="matrix(1.00, 0.00, -0.00, -1.00, 1531.4, 141.0)">E</text><text xml:space="preserve" font-family="Courier" font-size="80.6" fill="#34A4DA" transform="matrix(1.00, 0.00, -0.00, -1.00, 1579.8, 141.0)">N</text><text xml:space="preserve" font-family="Courier" font-size="80.6" fill="#34A4DA" transform="matrix(1.00, 0.00, -0.00, -1.00, 1628.2, 141.0)">T</text></g></svg>