<?xml version="1.0" encoding="UTF-8" standalone="no"?><svg xmlns="http://www.w3.org/2000/svg" xmlns:xlink="http://www.w3.org/1999/xlink" clip-rule="evenodd" stroke-miterlimit="4.00" viewBox="0 0 1920 1080"><desc>SVG generated by Keynote</desc><defs></defs><g transform="matrix(1.00, 0.00, -0.00, -1.00, 0.0, 1080.0)"><path d="M 0.0 1080.0 L 1920.0 1080.0 L 1920.0 0.0 L 0.0 0.0 Z M 0.0 1080.0 " fill="#1E1E21"></path><path d="M 0.0 0.0 L 1953.0 0.0 " fill="none" stroke="#00FDC7" stroke-width="7.00" transform="matrix(1.00, -0.00, -0.00, -1.00, -16.5, 970.1)"></path><text xml:space="preserve" font-family="DINCondensed-Bold" font-weight="bold" font-size="66.0" fill="#E8EFEF" transform="matrix(1.00, 0.00, -0.00, -1.00, 50.0, 999.0)">C</text><text xml:space="preserve" font-family="DINCondensed-Bold" font-weight="bold" font-size="66.0" fill="#E8EFEF" transform="matrix(1.00, 0.00, -0.00, -1.00, 80.2, 999.0)">O</text><text xml:space="preserve" font-family="DINCondensed-Bold" font-weight="bold" font-size="66.0" fill="#E8EFEF" transform="matrix(1.00, 0.00, -0.00, -1.00, 111.6, 999.0)">L</text><text xml:space="preserve" font-family="DINCondensed-Bold" font-weight="bold" font-size="66.0" fill="#E8EFEF" transform="matrix(1.00, 0.00, -0.00, -1.00, 139.3, 999.0)">L</text><text xml:space="preserve" font-family="DINCondensed-Bold" font-weight="bold" font-size="66.0" fill="#E8EFEF" transform="matrix(1.00, 0.00, -0.00, -1.00, 167.0, 999.0)">A</text><text xml:space="preserve" font-family="DINCondensed-Bold" font-weight="bold" font-size="66.0" fill="#E8EFEF" transform="matrix(1.00, 0.00, -0.00, -1.00, 197.2, 999.0)">P</text><text xml:space="preserve" font-family="DINCondensed-Bold" font-weight="bold" font-size="66.0" fill="#E8EFEF" transform="matrix(1.00, 0.00, -0.00, -1.00, 227.3, 999.0)">S</text><text xml:space="preserve" font-family="DINCondensed-Bold" font-weight="bold" font-size="66.0" fill="#E8EFEF" transform="matrix(1.00, 0.00, -0.00, -1.00, 257.4, 999.0)">I</text><text xml:space="preserve" font-family="DINCondensed-Bold" font-weight="bold" font-size="66.0" fill="#E8EFEF" transform="matrix(1.00, 0.00, -0.00, -1.00, 274.2, 999.0)">B</text><text xml:space="preserve" font-family="DINCondensed-Bold" font-weight="bold" font-size="66.0" fill="#E8EFEF" transform="matrix(1.00, 0.00, -0.00, -1.00, 305.6, 999.0)">L</text><text xml:space="preserve" font-family="DINCondensed-Bold" font-weight="bold" font-size="66.0" fill="#E8EFEF" transform="matrix(1.00, 0.00, -0.00, -1.00, 333.3, 999.0)">E</text><text xml:space="preserve" font-family="DINCondensed-Bold" font-weight="bold" font-size="66.0" fill="#E8EFEF" transform="matrix(1.00, 0.00, -0.00, -1.00, 361.1, 999.0)"> </text><text xml:space="preserve" font-family="DINCondensed-Bold" font-weight="bold" font-size="66.0" fill="#E8EFEF" transform="matrix(1.00, 0.00, -0.00, -1.00, 376.6, 999.0)">C</text><text xml:space="preserve" font-family="DINCondensed-Bold" font-weight="bold" font-size="66.0" fill="#E8EFEF" transform="matrix(1.00, 0.00, -0.00, -1.00, 406.8, 999.0)">O</text><text xml:space="preserve" font-family="DINCondensed-Bold" font-weight="bold" font-size="66.0" fill="#E8EFEF" transform="matrix(1.00, 0.00, -0.00, -1.00, 438.2, 999.0)">N</text><text xml:space="preserve" font-family="DINCondensed-Bold" font-weight="bold" font-size="66.0" fill="#E8EFEF" transform="matrix(1.00, 0.00, -0.00, -1.00, 470.8, 999.0)">T</text><text xml:space="preserve" font-family="DINCondensed-Bold" font-weight="bold" font-size="66.0" fill="#E8EFEF" transform="matrix(1.00, 0.00, -0.00, -1.00, 496.0, 999.0)">E</text><text xml:space="preserve" font-family="DINCondensed-Bold" font-weight="bold" font-size="66.0" fill="#E8EFEF" transform="matrix(1.00, 0.00, -0.00, -1.00, 523.7, 999.0)">N</text><text xml:space="preserve" font-family="DINCondensed-Bold" font-weight="bold" font-size="66.0" fill="#E8EFEF" transform="matrix(1.00, 0.00, -0.00, -1.00, 556.4, 999.0)">T</text><text xml:space="preserve" font-family="DINCondensed-Bold" font-weight="bold" font-size="66.0" fill="#E8EFEF" transform="matrix(1.00, 0.00, -0.00, -1.00, 581.6, 999.0)"> </text><text xml:space="preserve" font-family="DINCondensed-Bold" font-weight="bold" font-size="66.0" fill="#E8EFEF" transform="matrix(1.00, 0.00, -0.00, -1.00, 597.1, 999.0)">C</text><text xml:space="preserve" font-family="DINCondensed-Bold" font-weight="bold" font-size="66.0" fill="#E8EFEF" transform="matrix(1.00, 0.00, -0.00, -1.00, 627.3, 999.0)">O</text><text xml:space="preserve" font-family="DINCondensed-Bold" font-weight="bold" font-size="66.0" fill="#E8EFEF" transform="matrix(1.00, 0.00, -0.00, -1.00, 658.7, 999.0)">M</text><text xml:space="preserve" font-family="DINCondensed-Bold" font-weight="bold" font-size="66.0" fill="#E8EFEF" transform="matrix(1.00, 0.00, -0.00, -1.00, 698.7, 999.0)">P</text><text xml:space="preserve" font-family="DINCondensed-Bold" font-weight="bold" font-size="66.0" fill="#E8EFEF" transform="matrix(1.00, 0.00, -0.00, -1.00, 728.9, 999.0)">O</text><text xml:space="preserve" font-family="DINCondensed-Bold" font-weight="bold" font-size="66.0" fill="#E8EFEF" transform="matrix(1.00, 0.00, -0.00, -1.00, 760.3, 999.0)">N</text><text xml:space="preserve" font-family="DINCondensed-Bold" font-weight="bold" font-size="66.0" fill="#E8EFEF" transform="matrix(1.00, 0.00, -0.00, -1.00, 792.9, 999.0)">E</text><text xml:space="preserve" font-family="DINCondensed-Bold" font-weight="bold" font-size="66.0" fill="#E8EFEF" transform="matrix(1.00, 0.00, -0.00, -1.00, 820.6, 999.0)">N</text><text xml:space="preserve" font-family="DINCondensed-Bold" font-weight="bold" font-size="66.0" fill="#E8EFEF" transform="matrix(1.00, 0.00, -0.00, -1.00, 853.2, 999.0)">T</text><image xlink:href="C7F217D5C9D81863B339413D07E65835.png" width="493.00" height="720.00" transform="matrix(1.50, 0.00, -0.00, -1.50, 1179.0, 1080.0)"></image><image xlink:href="../../0628AB82-C1D5-40A3-B135-FC2FF0AC5CCC/assets/43315DBE00970B2B997CAC6F15FEA661.png" width="972.00" height="428.00" transform="matrix(1.20, 0.00, -0.00, -1.20, 9.0, 966.0)"></image></g></svg>