<?xml version="1.0" encoding="UTF-8" standalone="no"?><svg xmlns="http://www.w3.org/2000/svg" xmlns:xlink="http://www.w3.org/1999/xlink" clip-rule="evenodd" stroke-miterlimit="4.00" viewBox="0 0 1920 1080"><desc>SVG generated by Keynote</desc><defs></defs><g transform="matrix(1.00, 0.00, -0.00, -1.00, 0.0, 1080.0)"><path d="M 0.0 1080.0 L 1920.0 1080.0 L 1920.0 0.0 L 0.0 0.0 Z M 0.0 1080.0 " fill="#1E1E21"></path><path d="M 0.0 0.0 L 1953.0 0.0 " fill="none" stroke="#00FDC7" stroke-width="7.00" transform="matrix(1.00, -0.00, -0.00, -1.00, -16.5, 970.1)"></path><g><clipPath id="clip-49"><path d="M 9.0 956.0 L 1449.0 956.0 L 1449.0 13.0 L 9.0 13.0 Z M 9.1 955.5 "></path></clipPath><g clip-path="url(#clip-49)"><image xlink:href="../../26445786-B99E-454A-8CB1-A4A96DB8888F/assets/0402370CC33DBA4661DC0CC65FC8EB15.png" width="1143.00" height="768.00" transform="matrix(1.26, 0.00, -0.00, -1.26, 9.0, 981.0)"></image></g></g><g opacity="0.40"><g><clipPath id="clip-50"><path d="M 116.0 537.0 L 1446.0 537.0 L 1446.0 709.0 L 116.0 709.0 Z M 116.0 537.0 "></path></clipPath><g clip-path="url(#clip-50)"><path d="M 117.9 707.8 L 1444.5 707.8 L 1444.5 538.2 L 117.9 538.2 Z M 117.9 707.8 " fill="#761C76"></path></g></g></g><g opacity="0.30"><g><clipPath id="clip-51"><path d="M 163.0 616.0 L 1403.0 616.0 L 1403.0 661.0 L 163.0 661.0 Z M 163.0 616.0 "></path></clipPath><g clip-path="url(#clip-51)"><path d="M 165.0 659.7 L 1402.0 659.7 L 1402.0 617.2 L 165.0 617.2 Z M 165.0 659.7 " fill="#FFDE00"></path></g></g></g><g opacity="0.30"><g><clipPath id="clip-52"><path d="M 163.0 566.0 L 1357.0 566.0 L 1357.0 612.0 L 163.0 612.0 Z M 163.0 566.0 "></path></clipPath><g clip-path="url(#clip-52)"><path d="M 165.0 610.3 L 1355.9 610.3 L 1355.9 567.7 L 165.0 567.7 Z M 165.0 610.3 " fill="#FFDE00"></path></g></g></g><g><clipPath id="clip-53"><path d="M 154.2 787.4 L 998.0 787.4 L 998.0 829.5 L 154.2 829.5 Z M 154.2 787.4 "></path></clipPath><g clip-path="url(#clip-53)"><path d="M 155.2 828.5 L 997.0 828.5 L 997.0 788.4 L 155.2 788.4 Z M 155.2 828.5 " fill="#00FBC8" fill-opacity="0.30"></path></g></g><g><clipPath id="clip-54"><path d="M 154.2 742.3 L 998.0 742.3 L 998.0 784.4 L 154.2 784.4 Z M 154.2 742.3 "></path></clipPath><g clip-path="url(#clip-54)"><path d="M 155.2 783.4 L 997.0 783.4 L 997.0 743.3 L 155.2 743.3 Z M 155.2 783.4 " fill="#00FBC8" fill-opacity="0.30"></path></g></g><text xml:space="preserve" font-family="DINCondensed-Bold" font-weight="bold" font-size="66.0" fill="#E8EFEF" transform="matrix(1.00, 0.00, -0.00, -1.00, 50.0, 999.0)">A</text><text xml:space="preserve" font-family="DINCondensed-Bold" font-weight="bold" font-size="66.0" fill="#E8EFEF" transform="matrix(1.00, 0.00, -0.00, -1.00, 80.2, 999.0)">P</text><text xml:space="preserve" font-family="DINCondensed-Bold" font-weight="bold" font-size="66.0" fill="#E8EFEF" transform="matrix(1.00, 0.00, -0.00, -1.00, 110.3, 999.0)">P</text><text xml:space="preserve" font-family="DINCondensed-Bold" font-weight="bold" font-size="66.0" fill="#E8EFEF" transform="matrix(1.00, 0.00, -0.00, -1.00, 132.0, 999.0)">.</text><text xml:space="preserve" font-family="DINCondensed-Bold" font-weight="bold" font-size="66.0" fill="#E8EFEF" transform="matrix(1.00, 0.00, -0.00, -1.00, 147.5, 999.0)">V</text><text xml:space="preserve" font-family="DINCondensed-Bold" font-weight="bold" font-size="66.0" fill="#E8EFEF" transform="matrix(1.00, 0.00, -0.00, -1.00, 177.7, 999.0)">U</text><text xml:space="preserve" font-family="DINCondensed-Bold" font-weight="bold" font-size="66.0" fill="#E8EFEF" transform="matrix(1.00, 0.00, -0.00, -1.00, 209.1, 999.0)">E</text><text xml:space="preserve" font-family="DINCondensed-Bold" font-weight="bold" font-size="66.0" fill="#E8EFEF" transform="matrix(1.00, 0.00, -0.00, -1.00, 236.8, 999.0)"> </text><text xml:space="preserve" font-family="DINCondensed-Bold" font-weight="bold" font-size="66.0" fill="#E8EFEF" transform="matrix(1.00, 0.00, -0.00, -1.00, 252.4, 999.0)">F</text><text xml:space="preserve" font-family="DINCondensed-Bold" font-weight="bold" font-size="66.0" fill="#E8EFEF" transform="matrix(1.00, 0.00, -0.00, -1.00, 280.1, 999.0)">I</text><text xml:space="preserve" font-family="DINCondensed-Bold" font-weight="bold" font-size="66.0" fill="#E8EFEF" transform="matrix(1.00, 0.00, -0.00, -1.00, 296.9, 999.0)">L</text><text xml:space="preserve" font-family="DINCondensed-Bold" font-weight="bold" font-size="66.0" fill="#E8EFEF" transform="matrix(1.00, 0.00, -0.00, -1.00, 324.6, 999.0)">E</text><g><clipPath id="clip-55"><path d="M 377.6 -121.2 L 2024.0 -121.2 L 2024.0 1080.7 L 377.6 1080.7 Z M 377.6 -121.2 "></path></clipPath><g clip-path="url(#clip-55)"><image xlink:href="E53A0E1CC9158D05F28B76B8D277A9F2.png" width="1646.00" height="1202.00" transform="matrix(1.00, 0.00, -0.00, -1.00, 377.6, 1080.7)" opacity="0.50"></image></g></g><g><clipPath id="clip-56"><path d="M 498.0 984.0 L 1937.0 984.0 L 1937.0 -10.0 L 498.0 -10.0 Z M 498.4 984.0 "></path></clipPath><g clip-path="url(#clip-56)"><g><clipPath id="clip-57"><path d="M 377.6 -121.2 L 2024.0 -121.2 L 2024.0 1080.7 L 377.6 1080.7 Z M 377.6 -121.2 "></path></clipPath><g clip-path="url(#clip-57)"><image xlink:href="6A95D5F4D2F960F44FE52348CD9A54B3.png" width="1094.00" height="769.00" transform="matrix(1.32, 0.00, -0.00, -1.31, 498.0, 1001.0)"></image></g></g></g></g><g><clipPath id="clip-58"><path d="M 377.6 -121.2 L 2024.0 -121.2 L 2024.0 1080.7 L 377.6 1080.7 Z M 377.6 -121.2 "></path></clipPath><g clip-path="url(#clip-58)"><path d="M 0.0 0.0 L 0.0 994.0 L 1438.4 994.0 L 1438.4 0.0 L 0.0 0.0 Z M 0.0 0.0 " fill="none" stroke="#761C76" stroke-width="8.00" transform="matrix(1.00, 0.00, 0.00, -1.00, 498.4, 984.0)"></path></g></g><g><clipPath id="clip-59"><path d="M 511.0 977.0 L 2052.0 977.0 L 2052.0 -6.0 L 511.0 -6.0 Z M 510.9 976.5 "></path></clipPath><g clip-path="url(#clip-59)"><g><clipPath id="clip-60"><path d="M 510.9 -6.4 L 2052.1 -6.4 L 2052.1 976.5 L 510.9 976.5 Z M 510.9 -6.4 "></path></clipPath><g clip-path="url(#clip-60)"><image xlink:href="14AFB5784169CCF152B46ED5C5C9E324.png" width="1198.00" height="768.00" transform="matrix(1.31, 0.00, -0.00, -1.31, 486.0, 998.0)"></image></g></g></g></g></g></svg>